<?xml version="1.0" ?><!-- Uploaded to: SVG Repo, www.svgrepo.com, Generator: SVG Repo Mixer Tools -->
<svg fill="#000000" width="800px" height="800px" viewBox="0 0 24 24" id="Layer_1" version="1.1" xml:space="preserve" xmlns="http://www.w3.org/2000/svg" xmlns:xlink="http://www.w3.org/1999/xlink"><path d="M12.79,10.29l-1.29,1.29l-0.29-0.29c-0.39-0.39-1.02-0.39-1.41,0s-0.39,1.02,0,1.41l1,1c0.2,0.2,0.45,0.29,0.71,0.29  s0.51-0.1,0.71-0.29l2-2c0.39-0.39,0.39-1.02,0-1.41S13.18,9.9,12.79,10.29z"/><path d="M15.45,10.02c0.19,0.32,0.52,0.5,0.87,0.5c0.17,0,0.34-0.04,0.5-0.13c0.48-0.28,0.64-0.89,0.37-1.37  c-0.2-0.35-0.44-0.69-0.72-0.99c-0.37-0.41-1-0.45-1.41-0.08c-0.41,0.37-0.45,1-0.08,1.41C15.15,9.56,15.31,9.78,15.45,10.02z"/><path d="M17.07,11.46c-0.55-0.04-1.04,0.36-1.09,0.91C15.79,14.44,14.08,16,12,16c-2.2,0-4-1.79-4-4s1.79-4,4-4  c0.27,0,0.54,0.03,0.8,0.08c0.55,0.11,1.07-0.24,1.18-0.78s-0.24-1.07-0.78-1.18C12.81,6.04,12.4,6,12,6c-3.31,0-6,2.69-6,6  s2.69,6,6,6c3.12,0,5.69-2.34,5.97-5.45C18.02,12,17.62,11.51,17.07,11.46z"/><path d="M20.7,6.98c-0.42-0.73-1.55-0.94-2.14-1.53c-0.59-0.59-0.8-1.72-1.53-2.14c-0.29-0.17-0.65-0.21-1.02-0.21  c-0.3,0-0.61,0.02-0.91,0.02c-0.24,0-0.48-0.02-0.7-0.07c-0.8-0.21-1.54-1.09-2.4-1.09s-1.6,0.87-2.4,1.09  C9.38,3.11,9.14,3.12,8.9,3.12c-0.3,0-0.61-0.02-0.91-0.02c-0.37,0-0.72,0.04-1.02,0.21C6.25,3.73,6.04,4.85,5.45,5.45  C4.85,6.04,3.73,6.25,3.3,6.98C2.89,7.7,3.27,8.78,3.05,9.6c-0.21,0.8-1.09,1.54-1.09,2.4c0,0.86,0.87,1.6,1.09,2.4  c0.22,0.82-0.16,1.9,0.26,2.62c0.42,0.73,1.55,0.94,2.14,1.53c0.59,0.59,0.8,1.72,1.53,2.14c0.29,0.17,0.65,0.21,1.02,0.21  c0.3,0,0.61-0.02,0.91-0.02c0.24,0,0.48,0.02,0.7,0.07c0.8,0.21,1.54,1.09,2.4,1.09s1.6-0.87,2.4-1.09c0.22-0.06,0.46-0.07,0.7-0.07  c0.3,0,0.61,0.02,0.91,0.02c0.37,0,0.72-0.04,1.02-0.21c0.73-0.42,0.94-1.55,1.53-2.14c0.59-0.59,1.72-0.8,2.14-1.53  c0.42-0.72,0.04-1.8,0.26-2.62c0.21-0.8,1.09-1.54,1.09-2.4s-0.87-1.6-1.09-2.4C20.73,8.78,21.11,7.7,20.7,6.98z M19.77,12.33  c-0.26,0.41-0.58,0.92-0.75,1.55c-0.17,0.65-0.15,1.26-0.13,1.75c0,0.1,0.01,0.24,0.01,0.35c-0.1,0.06-0.22,0.12-0.32,0.17  c-0.43,0.23-0.97,0.51-1.45,0.98c-0.47,0.47-0.75,1.01-0.98,1.45c-0.05,0.1-0.11,0.22-0.17,0.32c-0.12,0-0.24-0.01-0.35-0.01  c-0.18-0.01-0.36-0.01-0.54-0.01c-0.47,0-0.85,0.05-1.21,0.14c-0.63,0.17-1.14,0.49-1.55,0.75c-0.1,0.06-0.23,0.14-0.33,0.21  c-0.11-0.06-0.23-0.14-0.33-0.21c-0.41-0.26-0.92-0.58-1.55-0.75c-0.36-0.1-0.75-0.14-1.22-0.14c-0.18,0-0.36,0.01-0.54,0.01  c-0.12,0-0.24,0.01-0.35,0.01c-0.06-0.1-0.12-0.22-0.17-0.32c-0.23-0.43-0.51-0.97-0.98-1.45c-0.47-0.47-1.01-0.75-1.45-0.98  c-0.1-0.05-0.22-0.11-0.32-0.17c0-0.11,0.01-0.25,0.01-0.35c0.02-0.49,0.04-1.1-0.13-1.75c-0.17-0.63-0.49-1.14-0.75-1.55  c-0.06-0.1-0.14-0.23-0.21-0.33c0.06-0.11,0.14-0.23,0.21-0.33c0.26-0.41,0.58-0.92,0.75-1.55c0.17-0.65,0.15-1.26,0.13-1.75  c0-0.1-0.01-0.24-0.01-0.35c0.1-0.06,0.22-0.12,0.32-0.17c0.43-0.23,0.97-0.51,1.45-0.98c0.47-0.47,0.75-1.01,0.98-1.45  C7.89,5.32,7.95,5.2,8.01,5.1c0.12,0,0.24,0.01,0.35,0.01C8.55,5.11,8.73,5.12,8.9,5.12c0.47,0,0.85-0.05,1.21-0.14  c0.63-0.17,1.14-0.49,1.55-0.75c0.1-0.06,0.23-0.14,0.33-0.21c0.11,0.06,0.23,0.14,0.33,0.21c0.41,0.26,0.92,0.58,1.55,0.75  c0.36,0.1,0.75,0.14,1.22,0.14c0.18,0,0.36-0.01,0.54-0.01c0.12,0,0.24-0.01,0.35-0.01c0.06,0.1,0.12,0.22,0.17,0.32  c0.23,0.43,0.51,0.97,0.98,1.45c0.47,0.47,1.01,0.75,1.45,0.98c0.1,0.05,0.22,0.11,0.32,0.17c0,0.11-0.01,0.25-0.01,0.35  c-0.02,0.49-0.04,1.1,0.13,1.75c0.17,0.63,0.49,1.14,0.75,1.55c0.06,0.1,0.14,0.23,0.21,0.33C19.92,12.11,19.84,12.23,19.77,12.33z"/></svg>