<?xml version="1.0" encoding="UTF-8"?>
<svg version="1.1" xmlns="http://www.w3.org/2000/svg" width="6731" height="1532">
<path d="M0 0 C0.98204407 0.00087616 1.96408813 0.00175232 2.97589111 0.00265503 C41.63065428 0.11544329 79.27733822 7.3259937 116.9609375 15.4140625 C117.84567686 15.60352762 118.73041622 15.79299274 119.64196587 15.98819923 C140.17230139 20.39562007 160.59904493 25.22750681 181.02670288 30.08465576 C221.47306937 39.69687085 261.95711157 49.0382707 302.6875 57.375 C304.28313782 57.70186798 304.28313782 57.70186798 305.91101074 58.03533936 C402.32947213 77.71813145 500.25757007 89.16548087 598.6875 90.375 C599.99477051 90.39159668 601.30204102 90.40819336 602.64892578 90.42529297 C611.33019077 90.5165798 620.00655779 90.48521041 628.6875 90.375 C629.38740051 90.36639954 630.08730103 90.35779907 630.80841064 90.34893799 C733.72617555 89.0302496 835.72207274 76.16359232 998.9230957 40.51000977 C999.74042679 40.30679108 1000.55775787 40.10357239 1001.39985657 39.89419556 C1002.91077166 39.51771019 1004.42114618 39.13904508 1005.93083191 38.75765991 C1027.91236269 33.26872484 1049.25291322 35.72270695 1068.6875 47.375 C1072.27183044 49.80927789 1075.4968346 52.44835092 1078.6875 55.375 C1079.4196875 56.01566406 1080.151875 56.65632813 1080.90625 57.31640625 C1137.92899613 110.22307387 1139.70278995 219.04169229 1142.58629799 291.40381813 C1142.8696333 299.72223719 1142.872898 308.0448002 1142.890625 316.3671875 C1142.89765249 318.42503377 1142.90473925 320.48287983 1142.91188049 322.54072571 C1142.93133337 329.11048691 1142.9363181 335.68021292 1142.9375 342.25 C1142.93794186 343.37396305 1142.93838371 344.4979261 1142.93883896 345.65594864 C1142.94666306 383.66058502 1142.24332124 421.44702647 1139.6875 459.375 C1139.59923386 460.70744711 1139.51114292 462.03990583 1139.42321777 463.37237549 C1134.12756764 543.42562054 1125.29542747 623.21691526 1085.6875 868.375 C1085.55974686 869.03757561 1085.43199371 869.70015121 1085.30036926 870.38280487 C1075.34940059 921.98789002 1064.29852107 973.32301362 1052.0625 1024.4375 C1051.81619843 1025.4678537 1051.56989685 1026.4982074 1051.31613159 1027.55978394 C1049.99683488 1033.06278729 1048.64380025 1038.55557288 1047.25653076 1044.04180908 C1046.72560274 1046.21876772 1046.25221155 1048.39976242 1045.79541016 1050.59326172 C1044.11620204 1057.86537017 1042.40608642 1061.85052274 1035.98852539 1065.87133789 C1035.10543701 1066.36754639 1034.22234863 1066.86375488 1033.3125 1067.375 C1031.92115845 1068.2266272 1031.92115845 1068.2266272 1030.50170898 1069.09545898 C1028.55390575 1070.28641089 1026.59622376 1071.46134422 1024.62939453 1072.62060547 C1020.8451744 1074.87731965 1017.1615637 1077.27409325 1013.46850586 1079.67602539 C1001.75504588 1087.26584252 989.76905307 1094.39048498 977.6875 1101.375 C976.31754883 1102.16922363 976.31754883 1102.16922363 974.91992188 1102.97949219 C960.51627461 1111.30486104 945.87127171 1119.10827667 931.04882812 1126.66064453 C927.82466916 1128.30504054 924.60759451 1129.9626905 921.390625 1131.62109375 C846.05480498 1170.16952171 763.90419338 1197.20052194 559.0234375 1230.61328125 C558.2582782 1230.67653091 557.4931189 1230.73978058 556.70477295 1230.8049469 C541.2592178 1232.01704878 525.83716084 1232.54060759 510.34765625 1232.578125 C508.54380265 1232.58514684 506.7399493 1232.59223366 504.93609619 1232.59938049 C499.20739379 1232.61877021 493.47873191 1232.62381416 487.75 1232.625 C486.2864036 1232.62566278 486.2864036 1232.62566278 484.79323959 1232.62633896 C456.81431544 1232.63298522 428.97098965 1232.53178941 401.11425781 1229.625 C398.56286558 1229.3621604 396.01027671 1229.11524374 393.45703125 1228.87109375 C309.21716011 1220.74463808 226.59802313 1201.39545069 63.5625 1136.5 C62.34244766 1135.92301865 62.34244766 1135.92301865 61.0977478 1135.3343811 C26.62187108 1118.98755 -6.53680976 1099.97893751 -38.75 1079.5625 C-39.68626221 1078.96945068 -40.62252441 1078.37640137 -41.5871582 1077.76538086 C-42.44398193 1077.21760986 -43.30080566 1076.66983887 -44.18359375 1076.10546875 C-45.31172485 1075.38460083 -45.31172485 1075.38460083 -46.46264648 1074.64916992 C-49.47905899 1072.57147995 -50.23804755 1071.68591923 -51.11479187 1068.02456665 C-51.39155013 1066.51996774 -51.65935203 1065.01370765 -51.9206543 1063.50634766 C-52.07398287 1062.6604797 -52.22731144 1061.81461174 -52.38528633 1060.94311142 C-52.72805089 1059.04614735 -53.06706316 1057.14850275 -53.40299416 1055.25031662 C-53.967446 1052.06107572 -54.54120886 1048.87362409 -55.11711121 1045.68643188 C-55.8899736 1041.4060954 -56.6605615 1037.12536387 -57.42841822 1032.84412658 C-59.20455494 1022.9453575 -61.00933408 1013.05189491 -62.81884766 1003.15917969 C-62.97347158 1002.3136895 -63.12809551 1001.46819932 -63.28740501 1000.59708822 C-63.92964314 997.08532764 -64.57192358 993.57357482 -65.21431684 990.06184262 C-67.08682997 979.82447482 -68.95448247 969.58622108 -70.82177734 959.34790039 C-70.99611046 958.39208938 -71.17044357 957.43627837 -71.35005951 956.4515034 C-78.19327139 918.93166512 -85.02814796 881.41030885 -91.85533428 843.88755131 C-92.29332505 841.48038423 -92.73136087 839.07322536 -93.16941071 836.66606903 C-130.2304969 633.00286425 -130.2304969 633.00286425 -171.3125 295.375 C-171.3608902 294.51853882 -171.4092804 293.66207764 -171.45913696 292.77966309 C-172.36085346 276.42969646 -172.50017647 260.08718547 -172.49780273 243.71728516 C-172.49772183 240.83668694 -172.50462829 237.95624901 -172.51831055 235.07568359 C-172.63692929 209.64834509 -172.12353911 184.1514501 -168.5 158.9375 C-168.32968262 157.71562988 -168.15936523 156.49375977 -167.98388672 155.23486328 C-163.61492293 124.99817333 -156.97881698 93.31011762 -138.3125 68.375 C-137.55324219 67.3334375 -136.79398438 66.291875 -136.01171875 65.21875 C-113.73798319 35.11862109 -84.32684141 13.55553583 -47.8125 4.625 C-47.00731934 4.42624268 -46.20213867 4.22748535 -45.37255859 4.02270508 C-30.32839708 0.54834071 -15.36927371 -0.03374387 0 0 Z " fill="#00026F" transform="translate(5588.3125,299.625)"/>
<path d="M0 0 C34.98 0 69.96 0 106 0 C114.0260764 16.05215279 114.0260764 16.05215279 116.98828125 22.9296875 C117.32868942 23.71054718 117.6690976 24.49140686 118.01982117 25.29592896 C118.74478863 26.95932282 119.46822284 28.62338571 120.19018555 30.28808594 C122.15561163 34.81835671 124.13429864 39.34282568 126.11328125 43.8671875 C126.72225754 45.25994904 126.72225754 45.25994904 127.34353638 46.68084717 C131.4920431 56.15240742 135.73987044 65.57825214 140 75 C146.47024301 89.31672159 152.83052008 103.67795586 159.125 118.07275391 C164.6711542 130.75139722 170.30169799 143.38904429 176 156 C182.46926155 170.31717215 188.83051423 184.67794248 195.125 199.07275391 C200.6711542 211.75139722 206.30169799 224.38904429 212 237 C218.46926155 251.31717215 224.83051423 265.67794248 231.125 280.07275391 C236.6711542 292.75139722 242.30169799 305.38904429 248 318 C254.46926155 332.31717215 260.83051423 346.67794248 267.125 361.07275391 C272.67115605 373.75140143 278.30199644 386.38890698 284 399 C290.41272827 413.19534588 296.73032918 427.42915029 302.97412109 441.69958496 C310.1256884 458.04455077 317.36297971 474.35061744 324.62841797 490.64526367 C325.0396994 491.56854965 325.45098083 492.49183563 325.87472534 493.44309998 C326.64352111 495.16886584 327.41310252 496.89428202 328.18362427 498.61927795 C329.86172723 502.38701266 331.5084384 506.15323944 333 510 C338.20875587 498.9215151 343.29219489 487.79004178 348.3125 476.625 C348.69883606 475.76651459 349.08517212 474.90802917 349.48321533 474.02352905 C356.11151202 459.28777574 362.63144063 444.50618858 369.11108398 429.70458984 C374.6587304 417.03501255 380.25284508 404.38668464 385.875 391.75 C386.29086365 390.81523834 386.70672729 389.88047668 387.13519287 388.91738892 C389.24549223 384.17449391 391.35647977 379.43190559 393.46777344 374.68945312 C397.2330721 366.23085306 400.9923248 357.76956604 404.75201416 349.30847168 C406.83442657 344.62220355 408.9172333 339.93611068 411 335.25 C411.83333522 333.37500084 412.66666855 331.50000084 413.5 329.625 C454.78808594 236.72680664 496.07617187 143.82861328 560 0 C594.98 0 629.96 0 666 0 C666 217.8 666 435.6 666 660 C629.7 660 593.4 660 556 660 C555.67 524.7 555.34 389.4 555 250 C549.06 263.2 543.12 276.4 537 290 C528.875 307.75 528.875 307.75 524.94140625 316.33203125 C520.47730901 326.09559861 516.1394151 335.91478751 511.79730225 345.73303223 C506.96130583 356.66208566 502.00274958 367.52248365 496.93286133 378.34545898 C492.49940298 387.84378079 488.23746784 397.41300501 484 407 C478.76605504 418.84145955 473.42596971 430.61937637 467.93359375 442.34375 C463.50002246 451.84270373 459.23771916 461.41243642 455 471 C449.76605504 482.84145955 444.42596971 494.61937637 438.93359375 506.34375 C434.50002246 515.84270373 430.23771916 525.41243642 426 535 C420.76605504 546.84145955 415.42596971 558.61937637 409.93359375 570.34375 C405.5000187 579.84271179 401.23798868 589.41254896 397 599 C390.18169316 614.42168669 383.15752653 629.73249612 376 645 C373.69 649.95 371.38 654.9 369 660 C344.91 660 320.82 660 296 660 C286.81792849 641.63585697 286.81792849 641.63585697 283.625 634.48046875 C283.25807037 633.66598267 282.89114075 632.85149658 282.51309204 632.0123291 C281.73771768 630.2903819 280.96377052 628.56779135 280.19122314 626.84457397 C278.12097025 622.2267867 276.04004677 617.61380472 273.9609375 613 C273.5422641 612.07007736 273.1235907 611.14015472 272.69223022 610.18205261 C268.7062993 601.33375481 264.67004638 592.50888725 260.625 583.6875 C255.33586628 572.14676187 250.10859024 560.58083715 244.93212891 548.98901367 C240.6740837 539.46829685 236.3453408 529.98111783 232 520.5 C226.58690661 508.6891482 221.23110696 496.85544652 215.93359375 484.9921875 C211.67497146 475.47045215 207.3458265 465.98217758 203 456.5 C197.58690661 444.6891482 192.23110696 432.85544652 186.93359375 420.9921875 C182.67497146 411.47045215 178.3458265 401.98217758 174 392.5 C168.58690661 380.6891482 163.23110696 368.85544652 157.93359375 356.9921875 C153.67497004 347.47044898 149.34558785 337.98228927 145 328.5 C137.91479932 313.03698133 130.94000149 297.52911224 124 282 C119.71 272.43 115.42 262.86 111 253 C110.67 387.31 110.34 521.62 110 660 C73.7 660 37.4 660 0 660 C0 442.2 0 224.4 0 0 Z " fill="#231F20" transform="translate(0,578)"/>
<path d="M0 0 C25.73854095 -0.37417252 51.47667296 -0.65610653 77.21738815 -0.82899475 C89.1701029 -0.9114136 101.12112553 -1.02372121 113.07275391 -1.20703125 C123.49297428 -1.36677654 133.91196914 -1.46979251 144.33337998 -1.50541592 C149.84954743 -1.52623425 155.36220989 -1.57495198 160.87725067 -1.69168091 C166.07573659 -1.80081182 171.26929794 -1.83369147 176.46882057 -1.8097229 C178.37009594 -1.81410263 180.27154639 -1.84564664 182.17182732 -1.9072876 C196.11290551 -2.3370852 196.11290551 -2.3370852 200.910676 1.54668045 C204.44951119 5.32018713 207.15215265 9.51664248 209.75364637 13.9694128 C211.70788423 17.15330082 214.02366234 19.97475813 216.375 22.875 C216.87233643 23.50575439 217.36967285 24.13650879 217.88208008 24.78637695 C218.27806396 25.28613037 218.67404785 25.78588379 219.08203125 26.30078125 C228.95374364 38.79312106 238.65176583 51.42280147 248.34375 64.0546875 C253.20739731 70.38690364 258.09480199 76.69990277 263 83 C269.48221026 91.32556705 275.92074055 99.68336518 282.34375 108.0546875 C287.80357767 115.1630995 293.29449779 122.24659339 298.80517578 129.31567383 C301.54430726 132.83178132 304.27628206 136.3523743 306.9765625 139.8984375 C307.65332031 140.78595703 307.65332031 140.78595703 308.34375 141.69140625 C309.53635419 143.25851724 310.72535441 144.82836913 311.9140625 146.3984375 C313.81839492 148.77350378 315.80027724 150.89981221 318 153 C324.6801433 144.8640604 331.29846418 136.71726346 337.5625 128.25390625 C340.62269285 124.14014018 343.78440807 120.1051948 346.9375 116.0625 C352.65462657 108.73064159 358.34039459 101.37635238 364 94 C370.24233341 85.8641588 376.51849483 77.75591816 382.81835938 69.66455078 C387.90460897 63.12924698 392.95892306 56.57020361 398 50 C404.23849561 41.86916072 410.50923073 33.76466032 416.80737305 25.67993164 C421.17229572 20.07386673 425.50577622 14.44477154 429.81640625 8.796875 C430.89728516 7.41242187 430.89728516 7.41242187 432 6 C432.70416644 4.96719595 433.40833288 3.9343919 434.1338377 2.87029076 C436.41173932 0.16988232 436.94437446 0.01117108 440.67624378 -0.73828697 C442.13135372 -0.76338174 443.58726126 -0.75551878 445.04219055 -0.7215271 C445.84683894 -0.72665365 446.65148733 -0.7317802 447.480519 -0.7370621 C450.17443533 -0.74693865 452.86610508 -0.71396014 455.55981445 -0.68115234 C457.49156135 -0.67945977 459.42331211 -0.68041015 461.35505676 -0.68380737 C466.59873291 -0.68553008 471.84158687 -0.65023514 477.0850718 -0.60836363 C482.56498826 -0.57087569 488.04492322 -0.56733279 493.52494812 -0.56021118 C503.90184197 -0.54155669 514.2783569 -0.49231126 524.65508384 -0.43211424 C536.46870622 -0.36506808 548.28234664 -0.33206483 560.09611189 -0.30194163 C584.39761807 -0.23921294 608.69878781 -0.13366594 633 0 C631.16823029 3.09459207 629.34349424 5.95882419 627.03125 8.71484375 C626.46599609 9.39353516 625.90074219 10.07222656 625.31835938 10.77148438 C624.71830078 11.48626953 624.11824219 12.20105469 623.5 12.9375 C619.09142301 18.23596482 614.72907682 23.55705094 610.5 29 C605.84075588 34.98761331 601.03065922 40.84095355 596.19140625 46.68359375 C592.56299073 51.07421472 588.99829576 55.50515707 585.5 60 C580.8402126 65.98720458 576.03067485 71.84093469 571.19140625 77.68359375 C567.56299073 82.07421472 563.99829576 86.50515707 560.5 91 C555.8402126 96.98720458 551.03067485 102.84093469 546.19140625 108.68359375 C542.56299073 113.07421472 538.99829576 117.50515707 535.5 122 C530.8402126 127.98720458 526.03067485 133.84093469 521.19140625 139.68359375 C517.56299073 144.07421472 513.99829576 148.50515707 510.5 153 C505.8402126 158.98720458 501.03067485 164.84093469 496.19140625 170.68359375 C492.56299073 175.07421472 488.99829576 179.50515707 485.5 184 C480.8402126 189.98720458 476.03067485 195.84093469 471.19140625 201.68359375 C467.56299073 206.07421472 463.99829576 210.50515707 460.5 215 C455.8402126 220.98720458 451.03067485 226.84093469 446.19140625 232.68359375 C442.11568965 237.61547839 438.13673674 242.6115467 434.20776367 247.66064453 C428.29283861 255.23166116 422.13477788 262.60697904 416 270 C417.28880086 273.69969203 418.74340979 276.10898533 421.4375 278.9375 C424.93176626 282.74082591 428.15408141 286.66990965 431.3125 290.75 C435.0046578 295.50670853 438.77726225 300.17071792 442.6875 304.75 C446.46566653 309.17551389 450.16127425 313.65186835 453.77734375 318.2109375 C456.64146828 321.80493559 459.53829914 325.37177328 462.4375 328.9375 C463.0032373 329.63335205 463.56897461 330.3292041 464.15185547 331.04614258 C467.97244406 335.74258203 471.8042035 340.42976668 475.640625 345.11328125 C480.21049414 350.70456154 484.7588169 356.313385 489.31054688 361.91943359 C492.0395869 365.28025428 494.76982464 368.6401016 497.5 372 C500.79750415 376.05808325 504.09469763 380.1164172 507.390625 384.17578125 C512.08543759 389.95735602 516.78055907 395.73849273 521.5 401.5 C526.78950668 407.9574452 532.04902661 414.43918576 537.31054688 420.91943359 C540.0395869 424.28025428 542.76982464 427.6401016 545.5 431 C548.79750415 435.05808325 552.09469763 439.1164172 555.390625 443.17578125 C560.08543759 448.95735602 564.78055907 454.73849273 569.5 460.5 C574.78950668 466.9574452 580.04902661 473.43918576 585.31054688 479.91943359 C588.0395869 483.28025428 590.76982464 486.6401016 593.5 490 C596.79750415 494.05808325 600.09469763 498.1164172 603.390625 502.17578125 C608.08543759 507.95735602 612.78055907 513.73849273 617.5 519.5 C621.6464454 524.56199265 625.77669858 529.6370094 629.89770508 534.71972656 C632.80409553 538.30349521 635.71976508 541.87902251 638.65234375 545.44140625 C639.2443457 546.16303955 639.83634766 546.88467285 640.44628906 547.62817383 C641.58190905 549.01203156 642.72044843 550.39350027 643.86230469 551.7722168 C644.37567383 552.399104 644.88904297 553.02599121 645.41796875 553.671875 C645.86938232 554.2194043 646.3207959 554.76693359 646.78588867 555.33105469 C648.09961022 557.13692649 649.02303841 558.99590839 650 561 C624.09633088 561.3038698 598.19292937 561.5330173 572.28783607 561.67355824 C560.25915525 561.74055301 548.23158267 561.8318641 536.20361328 561.98071289 C525.71822659 562.11040987 515.23364253 562.19418487 504.74747598 562.22315043 C499.19613476 562.24007989 493.64708933 562.27977103 488.09648514 562.37449074 C482.86726071 562.46299987 477.64126786 562.48990168 472.41136551 562.47039986 C470.49644372 562.47396495 468.58140958 562.49967917 466.66713715 562.54967117 C452.59330413 562.89906431 452.59330413 562.89906431 448.26552534 559.72985244 C444.78041164 556.24977131 442.43175703 552.25139114 440 548 C438.79922692 546.39502675 437.57618733 544.80592078 436.3125 543.25 C435.76464844 542.54681641 435.21679688 541.84363281 434.65234375 541.11914062 C434.10707031 540.41982422 433.56179688 539.72050781 433 539 C428.18608491 532.81884984 423.39574901 526.62077831 418.625 520.40625 C415.43372025 516.25758632 412.215787 512.12967519 409 508 C404.98534375 502.84442648 400.97898977 497.68315772 397 492.5 C390.70570383 484.30301626 384.34986678 476.15396006 378 468 C370.85120171 458.82011989 363.71004717 449.63545618 356.625 440.40625 C353.43371958 436.25758546 350.21566914 432.12976798 347 428 C337.21114113 415.42256125 327.53909366 402.76796213 318 390 C314.2834548 393.57667522 311.02325245 397.34886046 307.875 401.4375 C306.89984245 402.69148625 305.92457917 403.94539028 304.94921875 405.19921875 C304.45728027 405.8339209 303.9653418 406.46862305 303.45849609 407.12255859 C301.65398417 409.44540706 299.8348876 411.75650547 298.01416016 414.06665039 C293.31810788 420.02529604 288.65472842 426.00904025 284 432 C278.46549557 439.12329278 272.9069184 446.22696692 267.32666016 453.31445312 C265.04913794 456.20808827 262.77475993 459.10419323 260.5 462 C259.5833477 463.16667796 258.66668105 464.33334464 257.75 465.5 C257.069375 466.36625 257.069375 466.36625 256.375 467.25 C208.25 528.5 208.25 528.5 206.8737793 530.25146484 C205.96106652 531.41315826 205.04846806 532.5749415 204.13598633 533.73681641 C201.7847749 536.73033662 199.43133961 539.72206754 197.07421875 542.7109375 C196.59082031 543.32453125 196.10742188 543.938125 195.609375 544.5703125 C194.69997325 545.72455319 193.78988329 546.87825219 192.87890625 548.03125 C192.24855469 548.83175781 192.24855469 548.83175781 191.60546875 549.6484375 C190.98278453 550.39950649 190.98278453 550.39950649 190.34752083 551.1657486 C188.93301522 552.95378231 188.93301522 552.95378231 188.09277153 555.04537201 C186.68971257 557.77601522 185.50906957 559.19224542 183 561 C176.76414928 562.22475088 170.56739261 562.01071818 164.23486328 561.90820312 C162.29311721 561.90594587 160.3513643 561.90721449 158.40962219 561.91174316 C153.14301758 561.91403831 147.87787094 561.86701019 142.61160517 561.8111515 C137.10636954 561.76113625 131.60110037 561.7564413 126.09567261 561.74694824 C115.67263091 561.72208457 105.2502606 561.656437 94.82751453 561.57615232 C82.96070703 561.4867288 71.09386744 561.44274604 59.22680688 561.40258884 C34.81749905 561.31897113 10.40878714 561.17825995 -14 561 C-12.30272225 556.37830242 -9.81978462 553.19216263 -6.5625 549.5625 C-2.39150564 544.81359678 1.63758718 540.00319495 5.5 535 C9.74890793 529.51323945 14.18220688 524.22139293 18.72387695 518.9753418 C22.28227047 514.85904239 25.7210233 510.66583865 29.09765625 506.3984375 C35.55354448 498.25898089 42.22901173 490.29030544 48.83520508 482.27270508 C53.56976372 476.52566053 58.28918786 470.76653087 63 465 C64.49985696 463.16654964 65.9998594 461.33321829 67.5 459.5 C68.2425 458.5925 68.985 457.685 69.75 456.75 C76.5 448.5 76.5 448.5 78.76953125 445.7265625 C80.20499935 443.97182216 81.63993796 442.21664845 83.07421875 440.4609375 C88.31205163 434.0516115 93.57177219 427.66056804 98.83544922 421.27246094 C103.56986763 415.52544938 108.28926029 409.76644221 113 404 C114.49985696 402.16654964 115.9998594 400.33321829 117.5 398.5 C118.2425 397.5925 118.985 396.685 119.75 395.75 C126.5 387.5 126.5 387.5 128.76953125 384.7265625 C130.20499935 382.97182216 131.63993796 381.21664845 133.07421875 379.4609375 C138.31205163 373.0516115 143.57177219 366.66056804 148.83544922 360.27246094 C153.56986763 354.52544938 158.28926029 348.76644221 163 343 C164.49985696 341.16654964 165.9998594 339.33321829 167.5 337.5 C168.2425 336.5925 168.985 335.685 169.75 334.75 C176.5 326.5 176.5 326.5 178.76953125 323.7265625 C180.20499935 321.97182216 181.63993796 320.21664845 183.07421875 318.4609375 C187.70323846 312.79659175 192.34820378 307.14564812 197 301.5 C205.0610779 291.71484551 213.10351531 281.91901755 221 272 C217.87049079 267.0920136 214.35302182 262.65283594 210.625 258.1875 C209.37362532 256.67844561 208.12232542 255.16932921 206.87109375 253.66015625 C206.23155762 252.89074707 205.59202148 252.12133789 204.93310547 251.32861328 C201.84032514 247.60305901 198.76416435 243.8638645 195.6875 240.125 C195.10154053 239.41351807 194.51558105 238.70203613 193.91186523 237.96899414 C189.26224496 232.32269751 184.62744868 226.6644852 180 221 C178.50014304 219.16654964 177.0001406 217.33321829 175.5 215.5 C173.30774854 212.8210008 171.11580532 210.14175792 168.92578125 207.4609375 C164.29676182 201.7965921 159.65186094 196.14559447 155 190.5 C149.65314796 184.01094999 144.31943682 177.51155167 139 171 C137.50014304 169.16654964 136.0001406 167.33321829 134.5 165.5 C132.30774854 162.8210008 130.11580532 160.14175792 127.92578125 157.4609375 C123.29676182 151.7965921 118.65186094 146.14559447 114 140.5 C108.65314796 134.01094999 103.31943682 127.51155167 98 121 C96.50014304 119.16654964 95.0001406 117.33321829 93.5 115.5 C91.30774854 112.8210008 89.11580532 110.14175792 86.92578125 107.4609375 C82.29676182 101.7965921 77.65186094 96.14559447 73 90.5 C66.96463381 83.175355 60.94905771 75.834968 54.9453125 68.484375 C50.30936627 62.812558 45.65832792 57.15344292 41 51.5 C35.65314796 45.01094999 30.31943682 38.51155167 25 32 C23.50014304 30.16654964 22.0001406 28.33321829 20.5 26.5 C19.76007813 25.59507812 19.02015625 24.69015625 18.2578125 23.7578125 C16.73403112 21.89658472 15.20793284 20.0372517 13.6796875 18.1796875 C0 1.53220339 0 1.53220339 0 0 Z " fill="#FFFFFF" transform="translate(5756,673)"/>
<path d="M0 0 C38.94 0 77.88 0 118 0 C118 227.37 118 454.74 118 689 C79.72 689 41.44 689 2 689 C1.505 655.34 1.505 655.34 1 621 C-2.465 626.445 -2.465 626.445 -6 632 C-8.53257724 635.45063649 -11.24734271 638.72302704 -14 642 C-14.5878125 642.7115625 -15.175625 643.423125 -15.78125 644.15625 C-19.81902695 648.92816822 -24.15672866 653.05422969 -29 657 C-30.42119141 658.16015625 -30.42119141 658.16015625 -31.87109375 659.34375 C-39.80630618 665.69390282 -48.13217637 671.05041115 -57 676 C-57.59022949 676.33741211 -58.18045898 676.67482422 -58.78857422 677.02246094 C-83.09349943 690.76731519 -112.23947613 697.9696875 -140.1171875 698.23828125 C-140.96376923 698.2480751 -141.81035095 698.25786896 -142.68258667 698.26795959 C-177.28402405 698.58550731 -209.31763839 694.7622906 -241 680 C-242.07918701 679.50064941 -242.07918701 679.50064941 -243.18017578 678.99121094 C-262.33346048 670.03404054 -278.75528146 657.524141 -294 643 C-294.98419922 642.07767578 -294.98419922 642.07767578 -295.98828125 641.13671875 C-339.34145408 599.37814538 -359.01888023 532.02957739 -360.12426758 473.38354492 C-360.22094669 466.58910403 -360.24659866 459.79506431 -360.25 453 C-360.25067474 451.79202759 -360.25134949 450.58405518 -360.25204468 449.33947754 C-360.23609685 431.37476907 -359.87971426 413.76844966 -357 396 C-356.82307617 394.89462891 -356.64615234 393.78925781 -356.46386719 392.65039062 C-346.58481211 332.96656564 -319.44366352 277.36255537 -269.51171875 241.47265625 C-243.06578238 222.92985153 -212.89393943 212.21943168 -181 208 C-180.31019043 207.90428711 -179.62038086 207.80857422 -178.90966797 207.70996094 C-170.06533081 206.64612387 -161.1447879 206.75619641 -152.25 206.75 C-150.94559464 206.74898788 -150.94559464 206.74898788 -149.61483765 206.74795532 C-136.20824696 206.76446761 -123.16551057 207.24823647 -110 210 C-108.74896484 210.25740967 -108.74896484 210.25740967 -107.47265625 210.52001953 C-79.68697455 216.43557848 -51.59017989 228.19448318 -30 247 C-29.15824219 247.7321875 -28.31648438 248.464375 -27.44921875 249.21875 C-24.93463923 251.44714824 -22.46161234 253.71334523 -20 256 C-19.33355469 256.60070312 -18.66710938 257.20140625 -17.98046875 257.8203125 C-11.1163744 264.27899191 -6.82647507 271.05480672 -1 279 C-0.67 186.93 -0.34 94.86 0 0 Z M-195 323 C-195.83917969 323.66773438 -196.67835938 324.33546875 -197.54296875 325.0234375 C-203.48828347 330.03755835 -208.27271519 335.84841311 -213 342 C-213.58394531 342.721875 -214.16789062 343.44375 -214.76953125 344.1875 C-245.02972396 383.87299863 -245.3799398 444.05261675 -239.609375 491.19091797 C-234.48521273 527.92001164 -220.35614464 562.6234665 -190.20507812 585.87011719 C-163.43412305 605.57268149 -129.81133817 611.13176707 -97.40283203 606.40234375 C-73.65497631 602.42586882 -54.38181595 592.62354881 -37 576 C-36.25234375 575.32710937 -35.5046875 574.65421875 -34.734375 573.9609375 C-15.33280319 555.8482813 -5.66491676 528.79881683 -0.6875 503.375 C-0.54022461 502.62645752 -0.39294922 501.87791504 -0.24121094 501.10668945 C2.63875345 484.99204095 3.38279134 468.71097111 3.3125 452.375 C3.31034485 451.46412628 3.3081897 450.55325256 3.30596924 449.61477661 C3.15567104 409.81398996 -3.07367233 368.64799998 -29 337 C-29.68578125 336.14921875 -30.3715625 335.2984375 -31.078125 334.421875 C-50.11405664 312.00177774 -77.84389435 300.20473983 -106.70703125 297.53125 C-139.00928141 295.04596944 -169.48684065 302.68212731 -195 323 Z " fill="#231F20" transform="translate(4227,549)"/>
<path d="M0 0 C43.23 0 86.46 0 131 0 C136.6244452 11.24889041 136.6244452 11.24889041 138.2980957 15.20361328 C138.68169754 16.1054837 139.06529938 17.00735413 139.46052551 17.93655396 C139.86155991 18.88819427 140.2625943 19.83983459 140.67578125 20.8203125 C141.11359421 21.851633 141.55140717 22.88295349 142.00248718 23.94552612 C142.94728127 26.17192542 143.89066303 28.39892448 144.83276367 30.62646484 C147.13311108 36.06516775 149.44212978 41.50018806 151.75045395 46.93550873 C152.55608623 48.83280595 153.36133437 50.73026588 154.16653442 52.62774658 C159.7433828 65.76654185 165.37048193 78.88369874 171 92 C179.33995752 111.43842402 187.64604213 130.89097141 195.92724609 150.35449219 C203.25757743 167.58139736 210.61913615 184.79468853 218 202 C226.33901539 221.43882993 234.6460408 240.89096828 242.92724609 260.35449219 C250.25757743 277.58139736 257.61913615 294.79468853 265 312 C273.33901539 331.43882993 281.6460408 350.89096828 289.92724609 370.35449219 C297.74954399 388.73756081 305.60975842 407.10413377 313.48608398 425.46411133 C324.70657839 451.6218311 335.85976005 477.8080156 347 504 C349.11529458 501.88470542 349.81929222 500.40310511 350.97338867 497.67285156 C351.55391998 496.30956223 351.55391998 496.30956223 352.1461792 494.91873169 C352.56586975 493.91945648 352.9855603 492.92018127 353.41796875 491.890625 C353.86271545 490.84260712 354.30746216 489.79458923 354.76568604 488.71481323 C356.2440627 485.22840427 357.71567475 481.73917917 359.1875 478.25 C360.22677564 475.79649019 361.26647809 473.34316658 362.30688477 470.89013672 C364.19731341 466.43174677 366.08619881 461.97270954 367.9729681 457.5127697 C372.6410918 446.47844494 377.33256748 435.45409514 382.02871704 424.43167114 C383.44688228 421.10297807 384.8644481 417.77403015 386.28198242 414.44506836 C398.17267017 386.52793916 410.13999029 358.64358468 422.10746765 330.75930786 C423.59289208 327.29804929 425.07788061 323.83660395 426.5625 320.375 C426.84674835 319.71226074 427.1309967 319.04952148 427.42385864 318.36669922 C433.78206525 303.53811675 440.09524547 288.69036132 446.4133606 273.84466553 C453.91568398 256.21834432 461.4476553 238.60494217 469 221 C476.85995042 202.6779333 484.69454754 184.34535012 492.5 166 C500.80138156 146.48905531 509.13878429 126.99384994 517.49816895 107.50769043 C525.10838164 89.76626946 532.68935273 72.01259786 540.25 54.25 C541.21693294 51.97891116 542.18389208 49.70783348 543.15087891 47.43676758 C548.1494756 35.697201 548.1494756 35.697201 553.14550781 23.95654297 C554.88591516 19.86568249 556.63005735 15.77642793 558.375 11.6875 C558.85098633 10.56698242 559.32697266 9.44646484 559.81738281 8.29199219 C560.23600586 7.31262695 560.65462891 6.33326172 561.0859375 5.32421875 C561.4370459 4.50010498 561.7881543 3.67599121 562.14990234 2.8269043 C563 1 563 1 564 0 C565.63223456 -0.09605864 567.2686439 -0.12187821 568.90370178 -0.12025452 C569.96525986 -0.12162918 571.02681793 -0.12300385 572.12054443 -0.12442017 C573.29514221 -0.12082489 574.46973999 -0.11722961 575.67993164 -0.11352539 C576.90902756 -0.11367142 578.13812347 -0.11381744 579.40446472 -0.1139679 C582.78448672 -0.11338892 586.16444829 -0.10835964 589.54445958 -0.10139394 C593.07321194 -0.09515988 596.60196503 -0.09455656 600.13072205 -0.09336853 C606.81723119 -0.09025537 613.50372406 -0.08204218 620.19022602 -0.07201904 C627.80074303 -0.06085744 635.4112608 -0.05534733 643.02178395 -0.05032361 C658.68119874 -0.03985956 674.34059727 -0.02226041 690 0 C686.90761841 9.4931427 686.90761841 9.4931427 685.09326172 13.54956055 C684.74725922 14.32869308 684.40125671 15.10782562 684.04476929 15.91056824 C683.6767923 16.72769791 683.30881531 17.54482758 682.9296875 18.38671875 C682.53649323 19.26890579 682.14329895 20.15109283 681.7381897 21.06001282 C680.45444733 23.93764189 679.16476363 26.81256531 677.875 29.6875 C676.9690262 31.71532737 676.06343247 33.74332457 675.15820312 35.77148438 C672.87113665 40.89297417 670.57924885 46.01228833 668.28552246 51.13079834 C666.38900188 55.36370765 664.4952754 59.5978653 662.6015625 63.83203125 C660.54533655 68.42891641 658.48868386 73.02560898 656.43041992 77.62158203 C650.99557118 89.75943998 645.58693281 101.90885006 640.1875 114.0625 C639.77200897 114.99771484 639.35651794 115.93292969 638.92843628 116.89648438 C635.95162264 123.59735954 632.97572963 130.2986434 630 137 C626.52145736 144.8336106 623.04250286 152.66703796 619.5625 160.5 C619.13899261 161.45327179 618.71548523 162.40654358 618.27914429 163.38870239 C612.87399918 175.55342706 607.44866936 187.70867126 601.99462891 199.8515625 C597.11583331 210.72264177 592.27529088 221.61062403 587.4375 232.5 C587.01491913 233.45116699 586.59233826 234.40233398 586.1569519 235.38232422 C583.10397243 242.25458877 580.05189388 249.12725329 577 256 C573.52143236 263.83359949 570.04249941 271.66703643 566.5625 279.5 C566.13935516 280.45245605 565.71621033 281.40491211 565.28024292 282.38623047 C559.87473156 294.55177913 554.44903882 306.7078487 548.99462891 318.8515625 C544.11583331 329.72264177 539.27529088 340.61062403 534.4375 351.5 C534.01491913 352.45116699 533.59233826 353.40233398 533.1569519 354.38232422 C530.10397243 361.25458877 527.05189388 368.12725329 524 375 C520.52143236 382.83359949 517.04249941 390.66703643 513.5625 398.5 C513.13935516 399.45245605 512.71621033 400.40491211 512.28024292 401.38623047 C506.87473156 413.55177913 501.44903882 425.7078487 495.99462891 437.8515625 C491.11583331 448.72264177 486.27529088 459.61062403 481.4375 470.5 C481.01491913 471.45116699 480.59233826 472.40233398 480.1569519 473.38232422 C477.10397243 480.25458877 474.05189388 487.12725329 471 494 C467.52143236 501.83359949 464.04249941 509.66703643 460.5625 517.5 C459.92778275 518.92868408 459.92778275 518.92868408 459.28024292 520.38623047 C453.87473156 532.55177913 448.44903882 544.7078487 442.99462891 556.8515625 C438.11583332 567.72264176 433.27528673 578.61062218 428.4375 589.5 C428.01890717 590.44219391 427.60031433 591.38438782 427.16903687 592.35513306 C424.11204334 599.23646766 421.05598265 606.11821642 418 613 C414.7189475 620.38841149 411.4375013 627.7766478 408.15530396 635.16455078 C406.83093883 638.14599011 405.50713248 641.12767711 404.18334961 644.109375 C403.37877077 645.92058503 402.57416608 647.73178359 401.76953125 649.54296875 C401.21632706 650.78961555 401.21632706 650.78961555 400.65194702 652.06144714 C398.1138434 657.77231319 398.1138434 657.77231319 397 660 C363.01 660 329.02 660 294 660 C284.77025253 641.54050506 284.77025253 641.54050506 280.62597656 632.08422852 C280.3217981 631.39160919 280.01761963 630.69898987 279.70422363 629.98538208 C279.23188293 628.90980545 279.23188293 628.90980545 278.75 627.8125 C278.06520569 626.26144876 277.37997014 624.71059226 276.69433594 623.15991211 C275.2283276 619.84359164 273.76404396 616.52651715 272.30078125 613.20898438 C268.71945493 605.09473092 265.11165188 596.99223105 261.50689697 588.8883667 C259.38657127 584.12126332 257.26747705 579.3536127 255.1484375 574.5859375 C254.7237619 573.63051056 254.2990863 572.67508362 253.86154175 571.69070435 C251.29938098 565.92576676 248.73918311 560.15996194 246.18057251 554.39344788 C244.07935487 549.6578478 241.97738172 544.92258338 239.875 540.1875 C239.46030457 539.25346344 239.04560913 538.31942688 238.61834717 537.35708618 C232.37972216 523.30992851 226.08393731 509.2893718 219.76019287 495.28036499 C213.70938528 481.86934083 207.77219385 468.41100112 201.87646484 454.93118286 C196.28400104 442.14912518 190.61382721 429.40450312 184.875 416.6875 C184.49986267 415.85616547 184.12472534 415.02483093 183.73822021 414.16830444 C183.17726654 412.92520004 183.17726654 412.92520004 182.60498047 411.65698242 C177.74658395 400.88943889 172.91727436 390.1096389 168.125 379.3125 C167.80347961 378.58814758 167.48195923 377.86379517 167.1506958 377.11749268 C165.82311497 374.12615821 164.49583562 371.13469026 163.16897583 368.14303589 C160.53463454 362.20352533 157.89694289 356.26550905 155.2578125 350.328125 C154.85050903 349.41179291 154.44320557 348.49546082 154.02355957 347.55136108 C152.76575033 344.72172118 151.50788546 341.89210602 150.25 339.0625 C140.84870741 317.9143398 140.84870741 317.9143398 136.18057251 307.39344788 C134.07935487 302.6578478 131.97738172 297.92258338 129.875 293.1875 C129.46030457 292.25346344 129.04560913 291.31942688 128.61834717 290.35708618 C122.37972216 276.30992851 116.08393731 262.2893718 109.76019287 248.28036499 C103.70802437 234.86632451 97.76977219 221.40484455 91.87243652 207.92211914 C86.36322625 195.33117252 80.7794721 182.77636613 75.125 170.25 C68.74857703 156.12311417 62.41451343 141.97831037 56.125 127.8125 C55.50469406 126.41553894 55.50469406 126.41553894 54.87185669 124.99035645 C52.76826567 120.25247889 50.66539962 115.51428005 48.56298828 110.77587891 C44.23244238 101.01594241 39.89809615 91.25769396 35.5625 81.5 C35.14122833 80.55186432 34.71995667 79.60372864 34.28591919 78.62686157 C29.22765086 67.24395398 24.15978866 55.86549106 19.0625 44.5 C18.56218262 43.38391357 18.06186523 42.26782715 17.54638672 41.11791992 C15.12575922 35.7224165 12.6984262 30.33003014 10.26057434 24.94229126 C9.03072876 22.22298354 7.80364803 19.50243272 6.57687378 16.78173828 C5.98918467 15.48048575 5.40011815 14.17985433 4.80960083 12.87988281 C3.99865268 11.09460368 3.19256047 9.30712114 2.38671875 7.51953125 C1.92483154 6.49964111 1.46294434 5.47975098 0.98706055 4.42895508 C0 2 0 2 0 0 Z " fill="#231F20" transform="translate(2130,578)"/>
<path d="M0 0 C1.00363586 0.00182281 2.00727173 0.00364563 3.0413208 0.00552368 C19.01639087 0.05420592 34.64993958 0.67197959 50.4375 3.3125 C51.41058105 3.4681543 52.38366211 3.62380859 53.38623047 3.78417969 C96.62627277 10.94677225 137.60318881 30.04748584 169.4375 60.3125 C170.01338867 60.85052246 170.58927734 61.38854492 171.18261719 61.94287109 C187.76432074 77.51640027 200.85693372 95.19520834 211.4375 115.3125 C212.07679443 116.5193042 212.07679443 116.5193042 212.72900391 117.75048828 C231.5273943 153.7611771 239.65004181 194.8896463 240.4375 235.3125 C240.45796387 236.05274414 240.47842773 236.79298828 240.49951172 237.55566406 C242.09545845 299.57336258 227.85540397 365.33250014 186.4375 413.3125 C185.79039063 414.06917969 185.14328125 414.82585937 184.4765625 415.60546875 C173.85220078 427.71092179 162.60147252 439.00178109 149.4375 448.3125 C148.90318359 448.70179688 148.36886719 449.09109375 147.81835938 449.4921875 C109.7759357 477.11017479 61.11694835 491.30073404 14.3046875 491.515625 C13.27762695 491.52263931 12.25056641 491.52965363 11.19238281 491.53688049 C7.8990434 491.55427949 4.60588367 491.56073197 1.3125 491.5625 C0.18845764 491.56317474 -0.93558472 491.56384949 -2.09368896 491.56454468 C-18.12121534 491.54923075 -33.76469069 491.27011992 -49.5625 488.3125 C-50.55169434 488.13557617 -51.54088867 487.95865234 -52.56005859 487.77636719 C-110.03167094 477.32041635 -161.73877627 448.17001931 -195.5234375 399.796875 C-226.55882525 354.45384436 -238.77188836 300.81043308 -238.8125 246.375 C-238.81317474 245.55190338 -238.81384949 244.72880676 -238.81454468 243.88076782 C-238.74734071 191.69217664 -228.01760344 136.21751839 -196.5625 93.3125 C-195.88058594 92.35988281 -195.19867188 91.40726563 -194.49609375 90.42578125 C-182.98017761 74.66607491 -170.02361174 60.29336149 -154.5625 48.3125 C-154.02028809 47.88855957 -153.47807617 47.46461914 -152.91943359 47.02783203 C-132.02293506 30.79345324 -108.70517494 19.32113115 -83.5625 11.3125 C-82.81387695 11.07402344 -82.06525391 10.83554687 -81.29394531 10.58984375 C-72.37482654 7.80882676 -63.38292292 5.76645992 -54.1875 4.125 C-52.89815552 3.8926062 -52.89815552 3.8926062 -51.58276367 3.65551758 C-34.44761707 0.77588494 -17.34944751 -0.06580365 0 0 Z M-73.5625 115.3125 C-74.51640625 116.116875 -75.4703125 116.92125 -76.453125 117.75 C-99.10276327 137.55296242 -110.12529701 164.93314977 -115.8125 193.8125 C-115.96356201 194.56869629 -116.11462402 195.32489258 -116.27026367 196.10400391 C-119.25540173 212.41198317 -119.94427864 228.89694764 -119.875 245.4375 C-119.87284485 246.37205017 -119.8706897 247.30660034 -119.86846924 248.26947021 C-119.70742599 291.99224587 -112.01482225 338.01039413 -80.0625 370.25 C-74.62053015 375.5894947 -69.16997686 380.44590243 -62.5625 384.3125 C-61.43457031 384.97636719 -60.30664062 385.64023438 -59.14453125 386.32421875 C-42.6638973 395.70516907 -24.5117691 400.48749781 -5.5625 401.3125 C-4.64597656 401.35375 -3.72945312 401.395 -2.78515625 401.4375 C29.7659504 402.15192758 57.78614978 391.57977809 81.4375 369.3125 C82.35982422 368.48685547 82.35982422 368.48685547 83.30078125 367.64453125 C111.01405142 341.84252109 118.45654509 298.15738155 120.4375 262.3125 C120.61550919 256.95761674 120.68297923 251.60726 120.6875 246.25 C120.68817474 245.51905121 120.68884949 244.78810242 120.68954468 244.03500366 C120.62499199 199.41823407 112.73881169 153.7297395 80.4375 120.9375 C58.73424313 99.53265929 30.1134104 90.60066924 0.05371094 90.28955078 C-26.67730734 90.5240334 -52.98055038 97.70482055 -73.5625 115.3125 Z " fill="#231F20" transform="translate(4684.5625,755.6875)"/>
<path d="M0 0 C1.34729187 0.00273422 1.34729187 0.00273422 2.72180176 0.00552368 C16.62726283 0.05293358 30.19817441 0.6022104 43.875 3.3125 C44.74882324 3.47878906 45.62264648 3.64507813 46.52294922 3.81640625 C81.46049423 10.66069223 114.75681468 28.48257483 135.24658203 58.30908203 C165.2242572 103.52929187 168.07033533 157.49097654 167.99106562 210.11277497 C167.98667838 213.77910667 167.98821331 217.44543704 167.9889679 221.11177063 C167.98948797 227.43838746 167.98639567 233.76499384 167.98073006 240.09160805 C167.9725443 249.23841963 167.96999265 258.38522625 167.96874207 267.5320411 C167.96656257 282.37821579 167.95993259 297.22438495 167.95043945 312.07055664 C167.94123667 326.47778292 167.93416991 340.88500769 167.92993164 355.29223633 C167.92953756 356.62810855 167.92953756 356.62810855 167.92913551 357.99096809 C167.92783031 362.45950613 167.92656664 366.92804418 167.92532361 371.39658225 C167.91498536 408.36855976 167.89656574 445.340527 167.875 482.3125 C128.935 482.3125 89.995 482.3125 49.875 482.3125 C49.85518066 473.45575439 49.83536133 464.59900879 49.81494141 455.47387695 C49.75000248 427.06886714 49.67546139 398.66388968 49.59494839 370.25891991 C49.58243095 365.83968705 49.56999796 361.42045395 49.55761719 357.0012207 C49.5539182 355.68165052 49.5539182 355.68165052 49.55014448 354.33542236 C49.51052429 340.12972775 49.47772968 325.92402529 49.44750018 311.71830795 C49.41628077 297.11955293 49.37762738 282.52083093 49.33220994 267.92211312 C49.30446176 258.92890957 49.2823702 249.93572991 49.26773749 240.94249531 C49.25711718 234.75822653 49.239214 228.57400428 49.21583296 222.38977072 C49.20259232 218.83281324 49.19232267 215.27592034 49.19078636 211.71893692 C49.30052487 182.74613692 49.30052487 182.74613692 44.5625 154.25 C44.23548096 152.94591187 44.23548096 152.94591187 43.90185547 151.61547852 C42.15549212 144.89053583 40.0179341 138.52611683 36.875 132.3125 C36.38515625 131.3225 35.8953125 130.3325 35.390625 129.3125 C26.32923691 112.39790891 11.91638453 103.16987454 -5.8125 97.2734375 C-10.55350475 95.89809886 -15.23067667 94.93699823 -20.125 94.3125 C-20.99382813 94.20164062 -21.86265625 94.09078125 -22.7578125 93.9765625 C-53.64458284 90.64475345 -87.15653836 96.97321191 -112.08984375 116.29296875 C-137.15454331 136.7112673 -149.91167439 165.76789507 -153.46985567 197.43462408 C-154.6455716 209.17909432 -154.43457552 220.99396901 -154.44384766 232.78369141 C-154.45207901 235.51538373 -154.46324866 238.24706228 -154.47428894 240.97874451 C-154.49639855 246.82412838 -154.51150896 252.66949523 -154.52165604 258.51491165 C-154.53633684 266.96605313 -154.56189891 275.41713519 -154.58998732 283.86824147 C-154.63528608 297.58467118 -154.67197018 311.30110953 -154.703125 325.01757812 C-154.73338027 338.32976799 -154.76776218 351.64193683 -154.80761719 364.95410156 C-154.81007874 365.77677031 -154.81254028 366.59943907 -154.81507643 367.44703718 C-154.82745238 371.5747537 -154.83990865 375.70246997 -154.85240483 379.83018613 C-154.9557189 413.99093239 -155.04339779 448.15169326 -155.125 482.3125 C-194.065 482.3125 -233.005 482.3125 -273.125 482.3125 C-273.13958252 470.61272705 -273.15416504 458.9129541 -273.16918945 446.85864258 C-273.21814244 409.24927858 -273.28160438 371.63995124 -273.35398628 334.03062533 C-273.3652519 328.17023806 -273.37639077 322.30985055 -273.38745117 316.44946289 C-273.38965486 315.28296464 -273.39185854 314.11646639 -273.394129 312.91461971 C-273.42931975 294.127435 -273.45428608 275.34025033 -273.47534702 256.55304507 C-273.49725543 237.2171596 -273.53044528 217.88131619 -273.57370156 198.5454666 C-273.59996209 186.6533486 -273.61784474 174.7612828 -273.62434604 162.86913731 C-273.62967961 154.66911283 -273.64615525 146.46915353 -273.67066566 138.26916424 C-273.68441441 133.5669642 -273.69395538 128.86488 -273.69000816 124.16265869 C-273.66632239 88.60955338 -275.49813364 53.14559634 -279.8972168 17.84985352 C-280.15175576 15.01445859 -280.125 12.15929723 -280.125 9.3125 C-242.505 9.3125 -204.885 9.3125 -166.125 9.3125 C-162.67718405 38.04429961 -162.67718405 38.04429961 -161.73828125 47.03515625 C-161.57817818 48.54691689 -161.57817818 48.54691689 -161.4148407 50.08921814 C-161.08742122 53.18430846 -160.7623892 56.27964318 -160.4375 59.375 C-160.21044841 61.52540773 -159.98323533 63.67579842 -159.75585938 65.82617188 C-159.21039253 70.98808823 -158.66705981 76.15022481 -158.125 81.3125 C-157.52244385 80.4356958 -156.9198877 79.5588916 -156.29907227 78.65551758 C-155.49242106 77.48514 -154.68569506 76.31481397 -153.87890625 75.14453125 C-153.48368774 74.56900513 -153.08846924 73.993479 -152.68127441 73.4005127 C-127.77761161 37.31509252 -90.54976765 14.54553833 -48.25 4.625 C-47.40163574 4.42245605 -46.55327148 4.21991211 -45.67919922 4.01123047 C-30.5503691 0.61623378 -15.44612939 -0.0653223 0 0 Z " fill="#231F20" transform="translate(3601.125,755.6875)"/>
<path d="M0 0 C38.61 0 77.22 0 117 0 C117.029729 13.17852905 117.029729 13.17852905 117.06005859 26.62329102 C117.125019 54.81124656 117.19956138 82.99916959 117.28005161 111.18708489 C117.29256881 115.57369766 117.30500185 119.96031067 117.31738281 124.34692383 C117.31984881 125.22013143 117.3223148 126.09333903 117.32485552 126.99300747 C117.36445884 141.08741995 117.39726083 155.18184032 117.42749982 169.27627564 C117.45873649 183.76429921 117.49739692 198.25228961 117.54279006 212.7402758 C117.57051665 221.66284173 117.5926173 230.58538372 117.60726251 239.50798088 C117.61789567 245.64647691 117.63581168 251.78492627 117.65916704 257.92338694 C117.67238734 261.45223849 117.68267403 264.98102534 117.68421364 268.50990295 C117.69540452 281.26179533 117.80399491 293.9536169 118.88320923 306.66636658 C118.95888449 307.55837283 119.03455975 308.45037908 119.1125282 309.36941582 C121.35365642 332.65194567 128.79175847 356.62005945 147.30078125 372.125 C171.03904209 388.61467468 200.50196119 390.86067598 228.2734375 385.97265625 C254.34477548 380.88774624 277.52384889 365.52950566 293 344 C295.95409755 339.46468568 298.56071041 334.82372068 301 330 C301.31066406 329.3920459 301.62132812 328.7840918 301.94140625 328.15771484 C310.54188653 310.97924508 314.14100159 292.32747312 314.15821838 273.21826172 C314.16562535 271.46228999 314.16562535 271.46228999 314.17318195 269.67084408 C314.18583949 266.43946842 314.19415793 263.20811586 314.20060861 259.97672296 C314.20864813 256.48533938 314.22233356 252.99397729 314.23532104 249.50260925 C314.25703363 243.45952023 314.27519708 237.41642898 314.29092598 231.37332153 C314.31367229 222.63608419 314.34180842 213.89887069 314.37124526 205.16165364 C314.41886292 190.98489552 314.46214282 176.80812764 314.50268555 162.63134766 C314.54207016 148.86278524 314.58350346 135.09423149 314.62768555 121.32568359 C314.63177196 120.05189567 314.63177196 120.05189567 314.63594092 118.75237465 C314.64962088 114.49207931 314.66334106 110.2317841 314.67708123 105.97148895 C314.79095446 70.64767634 314.89698316 35.32384627 315 0 C353.94 0 392.88 0 433 0 C433 156.09 433 312.18 433 473 C395.05 473 357.1 473 318 473 C317.67 451.55 317.34 430.1 317 408 C313.04 413.28 309.08 418.56 305 424 C281.12022143 451.08016127 252.87873299 468.65299343 217.9375 477.75 C217.18331787 477.94899902 216.42913574 478.14799805 215.65209961 478.35302734 C201.04792312 481.94586139 186.39023786 482.37374939 171.4375 482.3125 C170.05094711 482.30976578 170.05094711 482.30976578 168.63638306 482.30697632 C154.57751944 482.26034483 140.82210392 481.79087199 127 479 C126.1116748 478.82307617 125.22334961 478.64615234 124.30810547 478.46386719 C86.56749024 470.70261121 52.83485173 452.66555485 30.59375 420.42822266 C4.45198131 380.59886735 -0.5491979 332.48972096 -0.34819686 286.03457785 C-0.33496074 282.17682196 -0.33964492 278.31907599 -0.34190369 274.46130371 C-0.34345943 267.81338057 -0.33423106 261.16554732 -0.31719017 254.51764679 C-0.29256978 244.90649754 -0.28497167 235.29539073 -0.2812262 225.68421337 C-0.27469734 210.08209432 -0.25483423 194.48002293 -0.22631836 178.87792969 C-0.1986846 163.74251541 -0.17749694 148.60711418 -0.16479492 133.47167969 C-0.16400675 132.53514534 -0.16321858 131.598611 -0.16240653 130.63369682 C-0.15849077 125.93430815 -0.1546998 121.23491939 -0.15097082 116.53553057 C-0.11998622 77.69031134 -0.06474418 38.8451805 0 0 Z " fill="#231F20" transform="translate(800,765)"/>
<path d="M0 0 C0.89511795 -0.00701431 1.7902359 -0.01402863 2.71247864 -0.02125549 C5.58831879 -0.03866672 8.46395281 -0.04510859 11.33984375 -0.046875 C12.32366028 -0.04754974 13.30747681 -0.04822449 14.32110596 -0.04891968 C55.96291915 -0.00356007 100.15456208 7.5487709 134.27734375 33.203125 C135.31503906 33.95980469 136.35273438 34.71648438 137.421875 35.49609375 C184.0854534 70.01588078 208.48773396 122.95372264 217.2734375 179.3671875 C221.40001705 207.74034942 220.27734375 235.0078798 220.27734375 264.203125 C112.69734375 264.203125 5.11734375 264.203125 -105.72265625 264.203125 C-103.7550953 283.88472189 -103.7550953 283.88472189 -100.03515625 303.140625 C-99.78169434 304.15874268 -99.52823242 305.17686035 -99.26708984 306.22583008 C-94.17083826 325.74719451 -85.29648025 344.17415069 -71.72265625 359.203125 C-70.96339844 360.04488281 -70.20414063 360.88664062 -69.421875 361.75390625 C-43.84756289 388.66762586 -5.93759508 399.2619458 30.27734375 400.203125 C31.44910156 400.24308594 32.62085937 400.28304688 33.828125 400.32421875 C83.84597331 401.20719219 137.44794427 388.59950952 176.65625 356.13671875 C177.19121094 355.82863281 177.72617188 355.52054688 178.27734375 355.203125 C181.27734375 356.203125 181.27734375 356.203125 182.90869141 359.18603516 C183.51396404 360.53318232 184.10726766 361.88574268 184.69140625 363.2421875 C185.01878281 363.97921906 185.34615936 364.71625061 185.68345642 365.47561646 C186.76685657 367.92199364 187.83472358 370.37482486 188.90234375 372.828125 C189.6501385 374.52672921 190.39876643 376.22496684 191.14819336 377.92285156 C192.72275199 381.49616527 194.29014707 385.07250427 195.85205078 388.65136719 C197.87990393 393.29773221 199.92008892 397.93855041 201.96459961 402.5776062 C203.54644522 406.16850222 205.12407114 409.761238 206.70013428 413.35467529 C207.45986609 415.08680523 208.22032344 416.81861712 208.98150635 418.55010986 C210.04364024 420.96923036 211.10073697 423.39048472 212.15625 425.8125 C212.47416 426.53470734 212.79207001 427.25691467 213.11961365 428.00100708 C215.27734375 432.97377043 215.27734375 432.97377043 215.27734375 435.203125 C174.20259496 473.94098309 103.61390283 491.16336336 48.8125 491.40625 C47.74925003 491.41326431 46.68600006 491.42027863 45.5905304 491.42750549 C42.17359134 491.44492734 38.75682561 491.45135876 35.33984375 491.453125 C33.58900482 491.45413712 33.58900482 491.45413712 31.80279541 491.45516968 C14.44388155 491.43921287 -2.55814077 491.03259241 -19.72265625 488.203125 C-20.7993457 488.03151855 -21.87603516 487.85991211 -22.98535156 487.68310547 C-70.69122447 479.87630936 -115.08926187 461.2165252 -150.24316406 427.61523438 C-151.22430465 426.6787794 -152.21060872 425.74770269 -153.20214844 424.82226562 C-196.66572897 384.19513498 -215.98201793 323.26571939 -218.72265625 265.203125 C-218.90325102 259.05825385 -218.91840511 252.91270909 -218.91015625 246.765625 C-218.909552 245.92997009 -218.90894775 245.09431519 -218.9083252 244.2333374 C-218.76982498 173.44452838 -196.45481209 108.43524685 -145.8425293 58.02026367 C-139.48309798 51.79652703 -133.03049828 46.28207521 -125.72265625 41.203125 C-124.63914174 40.4169163 -123.55581356 39.63045075 -122.47265625 38.84375 C-87.32745253 13.8729477 -43.08589926 0.22777997 0 0 Z M-71.28515625 116.890625 C-91.89007672 140.43392321 -101.32757613 171.64740396 -104.72265625 202.203125 C-30.47265625 202.203125 43.77734375 202.203125 120.27734375 202.203125 C119.52177668 187.96698508 119.52177668 187.96698508 117.65234375 173.953125 C117.4812207 172.99204834 117.31009766 172.03097168 117.13378906 171.04077148 C111.71394118 142.5539204 98.64552555 114.40312379 74.20849609 97.47021484 C28.67800353 67.64780596 -34.88657325 78.34351453 -71.28515625 116.890625 Z " fill="#231F20" transform="translate(3009.72265625,755.796875)"/>
<path d="M0 0 C0 49.5 0 99 0 150 C41.58 150 83.16 150 126 150 C126 179.37 126 208.74 126 239 C84.42 239 42.84 239 0 239 C0.11977659 278.77738046 0.11977659 278.77738046 0.2578125 318.5546875 C0.27780643 323.92936148 0.29770163 329.3040358 0.31738281 334.67871094 C0.31985425 335.35225026 0.32232569 336.02578959 0.32487202 336.7197392 C0.36448808 347.5643386 0.39727573 358.40894829 0.42749982 369.25357747 C0.45871891 380.40012688 0.49751635 391.54663469 0.54279006 402.69313622 C0.56795398 408.94676879 0.58976474 415.20037117 0.60334396 421.45404053 C0.61625649 427.35059792 0.63840836 433.24705122 0.66738319 439.14355087 C0.6763876 441.2976455 0.68213232 443.45175685 0.68421364 445.60586929 C0.70132646 460.63860914 0.97139965 475.62880569 5.1875 490.1875 C5.40253174 490.93451172 5.61756348 491.68152344 5.83911133 492.45117188 C10.57908586 508.06048483 19.23283838 519.38668069 33.52978516 527.36865234 C57.62802145 539.93681947 87.92916044 536.50260875 113 528.8125 C115.37781883 528.0507202 117.75477084 527.28825777 120.125 526.50317383 C122 526 122 526 125 526 C125 557.02 125 588.04 125 620 C99.65597129 628.06400914 99.65597129 628.06400914 91.1875 629.375 C90.31287109 629.52582031 89.43824219 629.67664062 88.53710938 629.83203125 C79.86247553 631.29397551 71.32185846 632.15602413 62.5234375 632.203125 C61.6436322 632.21013931 60.7638269 632.21715363 59.85736084 632.22438049 C57.02985467 632.24180367 54.2025579 632.24823371 51.375 632.25 C50.40947205 632.25067474 49.44394409 632.25134949 48.44915771 632.25204468 C34.10498962 632.23610175 20.10431861 631.85146481 6 629 C4.68563965 628.74259033 4.68563965 628.74259033 3.34472656 628.47998047 C-33.69071915 621.0182117 -68.06247917 603.15598928 -89.59765625 571.2109375 C-113.19876739 535.10079466 -118.18605324 493.09700332 -118.11352539 450.83837891 C-118.11324288 448.5210724 -118.11340251 446.2037658 -118.1139679 443.88645935 C-118.11425336 437.63334765 -118.10839732 431.38025536 -118.10139394 425.12714815 C-118.09511849 418.57820517 -118.09455329 412.02926169 -118.09336853 405.48031616 C-118.09078576 394.50054592 -118.08438433 383.52078243 -118.07543945 372.54101562 C-118.06624139 361.23860713 -118.0591723 349.93620055 -118.05493164 338.63378906 C-118.05466892 337.93552323 -118.05440619 337.2372574 -118.05413551 336.517832 C-118.05283034 333.01436415 -118.05156667 329.51089628 -118.05032361 326.00742841 C-118.03997973 297.00494689 -118.02155701 268.00247561 -118 239 C-148.03 239 -178.06 239 -209 239 C-209 209.63 -209 180.26 -209 150 C-178.97 150 -148.94 150 -118 150 C-118 110.07 -118 70.14 -118 29 C-63.1875 15.0625 -63.1875 15.0625 -45.86791992 10.66040039 C-40.75323539 9.3592711 -40.75323539 9.3592711 -35.6386261 8.05784607 C-33.35719513 7.47748159 -31.07565213 6.8975574 -28.79402161 6.31797791 C-25.34182876 5.44096192 -21.88999189 4.56255774 -18.43823242 3.68383789 C-17.41850688 3.42512185 -16.39878134 3.16640581 -15.34815502 2.89984989 C-14.42040421 2.66336955 -13.49265341 2.42688921 -12.53678894 2.1832428 C-11.72837649 1.97768296 -10.91996405 1.77212313 -10.08705425 1.56033421 C-6.27881837 0.53789561 -4.15854789 0 0 0 Z " fill="#231F20" transform="translate(1753,615)"/>
<path d="M0 0 C38.94 0 77.88 0 118 0 C118 227.37 118 454.74 118 689 C79.06 689 40.12 689 0 689 C0 461.63 0 234.26 0 0 Z " fill="#231F20" transform="translate(1359,549)"/>
<path d="M0 0 C0.8155838 -0.00644531 1.6311676 -0.01289062 2.47146606 -0.01953125 C11.36512226 -0.0625396 20.03235195 0.34841311 28.8203125 1.77734375 C29.53798798 1.89332413 30.25566345 2.0093045 30.99508667 2.12879944 C34.60694894 2.77863627 37.94965126 3.67690313 41.37789917 4.99586487 C42.08388685 5.26587594 42.78987453 5.53588701 43.51725578 5.81408024 C44.04781137 6.01980876 44.57836697 6.22553728 45.125 6.4375 C45.14816338 19.25913962 45.16593552 32.08077426 45.17681217 44.90243053 C45.18203223 50.85594102 45.18911402 56.8094372 45.20043945 62.76293945 C45.21129941 68.50765944 45.21728345 74.25236565 45.21987724 79.99709511 C45.22172587 82.18955006 45.22533573 84.38200426 45.23073006 86.57445335 C45.23798167 89.64364632 45.23898919 92.71278228 45.23852539 95.78198242 C45.24212067 96.68972916 45.24571594 97.59747589 45.24942017 98.5327301 C45.24270866 102.63323744 45.16431712 106.43855985 44.125 110.4375 C42.70753696 110.02355062 41.29109807 109.60609503 39.875 109.1875 C38.94945313 108.91421875 38.02390625 108.6409375 37.0703125 108.359375 C35.19507248 107.77242985 33.33270026 107.14126924 31.4921875 106.453125 C-1.70336429 94.15847619 -44.84705689 97.6464885 -76.6875 112.25 C-102.60543777 124.63132912 -119.99677897 146.96900498 -129.875 173.4375 C-138.23648084 197.69153937 -139.01992666 222.38423836 -139.08032227 247.78051758 C-139.08991346 250.34398044 -139.09992425 252.90744177 -139.11032104 255.47090149 C-139.13168016 260.96823923 -139.15014983 266.4655743 -139.16592598 271.96293068 C-139.18874011 279.9109619 -139.21686618 287.85896753 -139.24624526 295.80697688 C-139.29378067 308.70537231 -139.33708242 321.60377828 -139.37768555 334.50219727 C-139.41711232 347.02401549 -139.45856638 359.54582435 -139.50268555 372.06762695 C-139.50543505 372.84869377 -139.50818456 373.62976059 -139.51101738 374.4344961 C-139.53253939 380.54390351 -139.55417812 386.6533105 -139.57585371 392.76271737 C-139.68187629 422.65429259 -139.77772758 452.54589255 -139.875 482.4375 C-178.815 482.4375 -217.755 482.4375 -257.875 482.4375 C-257.90005615 471.51897949 -257.9251123 460.60045898 -257.95092773 449.35107422 C-258.03206947 414.27306931 -258.11770719 379.19507664 -258.20611694 344.11708932 C-258.21988379 338.65325495 -258.23361129 333.18942047 -258.24731445 327.72558594 C-258.25140691 326.0942042 -258.25140691 326.0942042 -258.25558204 324.42986526 C-258.2994583 306.90215612 -258.34015942 289.37444101 -258.37965261 271.84672152 C-258.42035612 253.81379111 -258.46455177 235.7808716 -258.51187855 217.74795735 C-258.54089083 206.65274251 -258.56729405 195.55752814 -258.59017897 184.46229894 C-258.60621126 176.81693628 -258.6256857 169.17158681 -258.64766841 161.52623896 C-258.66018799 157.13885507 -258.67138211 152.75148065 -258.67841911 148.36408424 C-258.70792383 130.62344521 -258.86896518 112.89507489 -259.33314514 95.15994263 C-259.35297317 94.38923635 -259.3728012 93.61853008 -259.39323007 92.82446907 C-260.05926317 67.4889923 -261.70665683 42.30464248 -264.63134766 17.12768555 C-264.86268609 14.57345892 -264.875 12.00218149 -264.875 9.4375 C-227.255 9.4375 -189.635 9.4375 -150.875 9.4375 C-148.62539507 24.05993204 -148.62539507 24.05993204 -148.11303711 29.34179688 C-147.93791847 31.11798401 -147.93791847 31.11798401 -147.75926208 32.93005371 C-147.64147903 34.15969849 -147.52369598 35.38934326 -147.40234375 36.65625 C-147.20682652 38.64467138 -147.01130664 40.63309251 -146.81562901 42.62149811 C-146.54647265 45.36493087 -146.2804686 48.10866517 -146.0145874 50.85241699 C-145.54585041 55.68871813 -145.07506781 60.52481497 -144.5997467 65.36047363 C-144.34793019 67.92557793 -144.09851472 70.49091936 -143.85179138 73.05651855 C-143.73819778 74.21542603 -143.62460419 75.3743335 -143.50756836 76.56835938 C-143.40923203 77.58393921 -143.31089569 78.59951904 -143.20957947 79.64587402 C-142.89346745 82.28341341 -142.43526526 84.84197749 -141.875 87.4375 C-141.63491211 86.94572266 -141.39482422 86.45394531 -141.14746094 85.94726562 C-133.10110924 69.64261694 -123.45669336 55.59846101 -110.875 42.4375 C-110.20597656 41.7053125 -109.53695312 40.973125 -108.84765625 40.21875 C-80.71475489 10.46178916 -39.60212688 0.17313022 0 0 Z " fill="#231F20" transform="translate(5281.875,755.5625)"/>
<path d="M0 0 C38.94 0 77.88 0 118 0 C118 156.09 118 312.18 118 473 C79.06 473 40.12 473 0 473 C0 316.91 0 160.82 0 0 Z " fill="#231F20" transform="translate(1957,765)"/>
<path d="M0 0 C2.5652673 -0.00135199 5.13053435 -0.00329693 7.69580078 -0.00579834 C13.03746245 -0.00872451 18.37905444 -0.00473181 23.72070312 0.00488281 C29.83341772 0.01576056 35.94599873 0.01223248 42.0587101 0.00123 C48.02008765 -0.00905692 53.98142495 -0.00781952 59.94281006 -0.00200653 C62.44301371 -0.00068883 64.94322086 -0.00225036 67.44342041 -0.00696564 C86.50470865 -0.03504067 105.45900173 0.51480503 124.1875 4.390625 C125.73352905 4.70713013 125.73352905 4.70713013 127.31079102 5.0300293 C158.76314764 11.81096522 189.11307162 25.59766878 213.875 46.265625 C214.93425895 47.12318311 215.99417083 47.97993526 217.0546875 48.8359375 C229.64584733 59.11578634 240.91949964 70.48324722 250.60009766 83.55078125 C251.83370539 85.21008051 253.09230975 86.84752104 254.35546875 88.484375 C280.62779715 123.15070189 294.10669802 167.76341312 293.98852539 210.98681641 C293.98824278 212.44640094 293.9884027 213.90598562 293.9889679 215.36557007 C293.98925297 219.29874943 293.98340325 223.23189784 293.97639394 227.16507006 C293.970112 231.28634513 293.96955279 235.40762103 293.96836853 239.52890015 C293.96526942 247.32008671 293.95707529 255.11125912 293.94701904 262.90243948 C293.93581365 271.777954 293.93033633 280.65346923 293.92532361 289.52898908 C293.9148914 307.77454239 293.89731963 326.02008255 293.875 344.265625 C292.14030574 344.75480084 290.40438473 345.23962755 288.66796875 345.72265625 C287.70141357 345.99311768 286.7348584 346.2635791 285.73901367 346.54223633 C278.72861099 348.31291429 271.72664486 348.31133143 264.54296875 348.28515625 C263.80381226 348.28374634 263.06465576 348.28233643 262.30310059 348.28088379 C260.49373027 348.2772285 258.68436406 348.27162466 256.875 348.265625 C256.87261165 347.53345953 256.87022329 346.80129406 256.86776257 346.04694176 C256.80830913 328.13033007 256.73256933 310.21385258 256.63928509 292.29738426 C256.59455329 283.6326762 256.55508833 274.96800717 256.52856445 266.30322266 C256.50539923 258.74020082 256.47179999 251.17730491 256.42629844 243.61438334 C256.40261241 239.61966773 256.38372428 235.6250749 256.37738609 231.63029099 C256.33964532 210.5716695 256.12516569 189.4735288 250.1875 169.078125 C249.93403809 168.182146 249.68057617 167.28616699 249.41943359 166.36303711 C241.60841521 139.78823761 227.54096878 115.65548061 208.875 95.265625 C208.14506836 94.46777588 208.14506836 94.46777588 207.40039062 93.65380859 C184.63165161 69.12513148 154.08900152 51.77271874 121.75 43.515625 C120.9755957 43.31686768 120.20119141 43.11811035 119.40332031 42.91333008 C107.848826 40.11118504 96.34013826 38.96548633 84.4699707 38.9909668 C83.21097458 38.98585587 81.95197845 38.98074493 80.65483093 38.97547913 C77.24537164 38.96225562 73.83602431 38.96149182 70.42654443 38.96404243 C67.55706998 38.9651241 64.68761711 38.96019837 61.81814736 38.955437 C55.0341028 38.9443982 48.25011362 38.94387174 41.46606445 38.94995117 C34.52238397 38.95597912 27.57890672 38.94369698 20.63526088 38.9223811 C14.62537663 38.9046262 8.61555623 38.89878557 2.60564679 38.90201885 C-0.96235211 38.90381074 -4.5302062 38.90141034 -8.09818077 38.88730431 C-27.03880395 38.81875682 -45.22539502 39.45062557 -63.5 44.890625 C-64.35811279 45.14223389 -65.21622559 45.39384277 -66.1003418 45.65307617 C-95.35349844 54.58304315 -120.81343372 70.4076083 -142.125 92.265625 C-142.74375 92.83925781 -143.3625 93.41289063 -144 94.00390625 C-174.24226548 122.68005442 -191.36841623 166.87520642 -192.61222458 208.10500336 C-192.71405696 213.91928098 -192.73235917 219.73183143 -192.734375 225.546875 C-192.74940279 228.06849199 -192.76613931 230.5900993 -192.78448486 233.11169434 C-192.82765474 239.66101605 -192.84804412 246.21020517 -192.86322021 252.75964355 C-192.88084182 259.47785986 -192.92492301 266.19594977 -192.96484375 272.9140625 C-193.03959866 286.03123006 -193.08816071 299.14829612 -193.125 312.265625 C-205.665 309.625625 -218.205 306.985625 -231.125 304.265625 C-231.17055551 292.16327941 -231.20708885 280.06099266 -231.22862434 267.95858002 C-231.23897091 262.33628603 -231.25295873 256.71405478 -231.27587891 251.09179688 C-231.29793863 245.64524233 -231.30963679 240.19874733 -231.31475449 234.75215149 C-231.31839184 232.6954098 -231.32549003 230.6386706 -231.33646011 228.58195496 C-231.43325838 209.64502327 -231.0733976 190.300106 -226.8125 171.765625 C-226.59376221 170.77336914 -226.37502441 169.78111328 -226.1496582 168.75878906 C-224.26411317 160.4269651 -222.0479474 152.29702635 -219.125 144.265625 C-218.84817383 143.50362793 -218.57134766 142.74163086 -218.28613281 141.95654297 C-211.90712799 124.69185263 -203.91275257 108.22379079 -193.125 93.265625 C-192.44050781 92.30785156 -191.75601563 91.35007812 -191.05078125 90.36328125 C-179.2179029 74.19663776 -165.90957575 59.65077908 -150.125 47.265625 C-149.17496094 46.48703125 -148.22492188 45.7084375 -147.24609375 44.90625 C-121.94947065 24.61725983 -91.52480716 11.19749997 -59.9375 4.390625 C-58.6239856 4.10384888 -58.6239856 4.10384888 -57.28393555 3.8112793 C-38.39103565 0.05045356 -19.18286066 -0.03617808 0 0 Z " fill="#00026F" transform="translate(6055.125,-0.265625)"/>
<path d="M0 0 C43.23 0 86.46 0 131 0 C131 37.95 131 75.9 131 115 C87.77 115 44.54 115 0 115 C0 77.05 0 39.1 0 0 Z " fill="#231F20" transform="translate(1951,562)"/>
</svg>
