<?xml version="1.0" standalone="no"?>
<!DOCTYPE svg PUBLIC "-//W3C//DTD SVG 1.1//EN" "http://www.w3.org/Graphics/SVG/1.1/DTD/svg11.dtd" >
<svg xmlns="http://www.w3.org/2000/svg">
<metadata>Generated by IcoMoon</metadata>
<defs>
<font id="adminfonts" horiz-adv-x="1024">
<font-face units-per-em="1024" ascent="960" descent="-64" />
<missing-glyph horiz-adv-x="1024" />
<glyph unicode="&#x20;" horiz-adv-x="512" d="" />
<glyph unicode="&#x8907;" glyph-name="cart" d="M728.131 159.484q34.099 0 59.174-26.075t25.072-60.177-25.072-59.174-59.174-25.072-60.177 25.072-26.075 59.174 26.075 60.177 60.177 26.075zM42.123 843.486h140.411l40.117-84.246h633.855q18.054 0 30.087-13.039t12.036-31.090q0-2.006-6.018-20.060l-152.447-276.81q-24.070-44.129-74.216-44.129h-318.933l-38.111-70.205-2.006-6.018q0-10.030 10.030-10.030h495.45v-86.252h-513.502q-34.099 0-59.174 26.075t-25.072 60.177q0 20.060 10.030 40.117l58.171 106.312-154.453 324.951h-86.252v84.246zM298.875 159.484q34.099 0 60.177-26.075t26.075-60.177-26.075-59.174-60.177-25.072-59.174 25.072-25.072 59.174 25.072 60.177 59.174 26.075z" />
<glyph unicode="&#xe520;" glyph-name="person" d="M513.502 320.814q108.318 0 225.66-47.138t117.343-123.36v-86.252h-686.008v86.252q0 76.222 117.343 123.36t225.66 47.138zM513.502 407.066q-70.205 0-120.352 50.147t-50.147 120.352 50.147 121.355 120.352 51.15 120.352-51.15 50.147-121.355-50.147-120.352-120.352-50.147z" />
<glyph unicode="&#xe700;" glyph-name="tools" d="M889.056 706.048c30.688-74.016 16.064-162.368-44.128-222.56-66.272-66.272-166.432-76.64-244.288-32.704l-56.288-61.472 40.16-40.32 24 24c12.256 12.288 32.16 12.288 44.416 0l194.624-196.608c12.288-12.256 12.288-32.16 0-44.416l-88.832-88.832c-12.256-12.288-32.16-12.288-44.416 0l-194.624 196.608c-12.288 12.256-12.288 32.16 0 44.416l21.92 21.92-38.272 38.368-269.152-294.048c-24.544-24.544-64.32-24.544-88.832 0l-22.208 22.208c-24.544 24.544-24.544 64.32 0 88.832l306.624 256.8-203.648 204.192-64.32 0.032-74.432 119.68 59.904 60 122.4-74.912 0.8-62.976 206.016-206.816 59.936 50.176c-58.592 79.872-52.48 192.384 19.712 264.576 59.904 59.904 147.776 74.784 221.6 44.672l-131.968-130.144 111.072-111.072 132.224 130.4zM196.8 130.112c-12.256 12.256-32.128 12.256-44.416 0-12.288-12.288-12.288-32.16 0-44.448 12.288-12.256 32.16-12.256 44.416 0 12.288 12.32 12.288 32.192 0 44.448z" />
<glyph unicode="&#xe702;" glyph-name="supervised-user-circle" d="M512 84.667q106 0 193 61t125 157q-60 48-164 48-58 0-123-25t-65-65v-174q12-2 34-2zM410 260.667q0 70 80 114-50 10-80 10-54 0-122-19t-98-53q28-76 86-132t134-80v160zM410 650.667q-42 0-72-30t-30-72 30-71 72-29 71 29 29 71-29 72-71 30zM666 582.667q-34 0-58-24t-24-58 24-58 58-24 58 24 24 58-24 58-58 24zM512 852.667q176 0 301-125t125-301-125-301-301-125q-178 0-303 125t-125 301 125 301 303 125z" />
<glyph unicode="&#xe704;" glyph-name="vpn-key" d="M298 340.667q34 0 60 26t26 60-26 60-60 26-59-26-25-60 25-60 59-26zM540 512.667h442v-172h-86v-170h-170v170h-186q-26-70-97-120t-145-50q-106 0-181 75t-75 181 75 181 181 75q74 0 145-50t97-120z" />
<glyph unicode="&#xe800;" glyph-name="user-circle" d="M872.841 174.576c-14.902 107.171-58.457 202.306-155.885 215.487-50.433-55.019-123.217-89.978-203.452-89.978s-153.018 34.959-203.452 89.978c-97.428-13.182-140.984-108.318-155.885-215.487 79.663-112.329 210.904-186.26 359.338-186.26s279.676 73.93 359.338 186.26zM733.576 575.177c0 121.499-98.574 220.073-220.073 220.073s-220.073-98.574-220.073-220.073 98.574-220.073 220.073-220.073 220.073 98.574 220.073 220.073zM1027.006 428.462c0-282.541-229.242-513.502-513.502-513.502-283.687 0-513.502 230.389-513.502 513.502 0 283.687 229.815 513.502 513.502 513.502s513.502-229.815 513.502-513.502z" />
<glyph unicode="&#xe802;" glyph-name="error" d="M555.627 374.113v256.751h-84.246v-256.751h84.246zM555.627 201.608v86.252h-84.246v-86.252h84.246zM513.502 843.486q176.516 0 301.884-125.366t125.366-301.884-125.366-301.884-301.884-125.366-301.884 125.366-125.366 301.884 125.366 301.884 301.884 125.366z" />
<glyph unicode="&#xe803;" glyph-name="security" d="M513.502 887.615l385.127-172.504v-256.751q0-178.522-110.324-325.954t-274.804-187.549q-164.481 40.117-274.804 187.549t-110.324 325.954v256.751zM513.502 416.236v-383.121q118.346 38.111 200.588 143.42t98.288 239.702h-298.875zM513.502 416.236v377.104l-298.875-132.387v-244.717h298.875z" />
<glyph unicode="&#xe804;" glyph-name="storefront" d="M214.628 117.361h599.756v256.751h-10.030q-60.177 0-96.282 40.117-40.117-40.117-96.282-40.117-54.159 0-98.288 40.117-40.117-40.117-94.276-40.117-60.177 0-100.294 40.117-36.105-40.117-94.276-40.117h-10.030v-256.751zM172.504 528.565q-6.018-28.081 12.036-50.147 14.042-20.060 40.117-20.060 42.123 0 50.147 50.147l26.075 206.605h-84.246zM363.063 516.529q0-22.066 15.045-40.117t37.108-18.054q24.070 0 40.117 17.051t16.048 39.114v200.588h-84.246l-24.070-192.564v-6.018zM555.627 715.111v-200.588q0-22.066 16.048-39.114t36.105-17.051q26.075 0 43.126 19.057t13.039 45.132l-24.070 192.564h-84.246zM808.366 717.117l-82.24-2.006 26.075-206.605q2.006-20.060 16.048-35.102t34.099-15.045q24.070 0 40.117 20.060 18.054 22.066 12.036 50.147zM936.742 548.624q16.048-70.205-26.075-122.357l-12.036-12.036v-296.869q0-34.099-26.075-60.177t-60.177-26.075h-597.75q-34.099 0-60.177 26.075t-26.075 60.177v296.869l-12.036 12.036q-42.123 52.153-26.075 122.357l44.129 188.552q6.018 28.081 30.087 46.135t52.153 18.054h593.738q28.081 0 51.15-18.054t31.090-46.135z" />
<glyph unicode="&#xe805;" glyph-name="editor-list-ul" d="M916.090 428.462c0-23.621-19.513-43.134-43.134-43.134h-487.827c-23.621 0-43.134 19.513-43.134 43.134s19.513 43.134 43.134 43.134h487.827c23.621 0 43.134-19.513 43.134-43.134zM872.955 214.844h-487.827c-23.621 0-43.134-19.513-43.134-43.134s19.513-43.134 43.134-43.134h487.827c23.621 0 43.134 19.513 43.134 43.134s-19.513 43.134-43.134 43.134zM385.127 642.080h487.827c23.621 0 43.134 19.513 43.134 43.134s-19.513 43.134-43.134 43.134h-487.827c-23.621 0-43.134-19.513-43.134-43.134s19.513-43.134 43.134-43.134zM193.077 749.915c-35.945 0-64.701-28.756-64.701-64.701s28.756-63.674 64.701-63.674c34.918 0 63.674 27.729 63.674 63.674s-28.756 64.701-63.674 64.701zM193.077 236.411c-35.945 0-64.701-28.756-64.701-64.701s28.756-63.674 64.701-63.674c34.918 0 63.674 27.729 63.674 63.674s-28.756 64.701-63.674 64.701zM193.077 495.217c-35.945 0-64.701-28.756-64.701-63.674 0-35.945 28.756-64.701 64.701-64.701 34.918 0 63.674 28.756 63.674 64.701 0 34.918-28.756 63.674-63.674 63.674z" />
<glyph unicode="&#xe806;" glyph-name="search" d="M407.192 329.984q80.234 0 136.399 56.165t56.165 136.399-56.165 136.399-136.399 56.165-136.399-56.165-56.165-136.399 56.165-136.399 136.399-56.165zM663.943 329.984l212.622-212.622-64.189-64.189-212.622 212.622v34.099l-12.036 12.036q-76.222-66.195-180.528-66.195-116.341 0-197.579 80.234t-81.237 196.576 81.237 197.579 197.579 81.237 196.576-81.237 80.234-197.579q0-42.123-20.060-95.279t-46.135-85.249l12.036-12.036h34.099z" />
<glyph unicode="&#xe807;" glyph-name="info" d="M555.627 544.612v86.252h-84.246v-86.252h84.246zM555.627 201.608v256.751h-84.246v-256.751h84.246zM513.502 843.486q176.516 0 301.884-125.366t125.366-301.884-125.366-301.884-301.884-125.366-301.884 125.366-125.366 301.884 125.366 301.884 301.884 125.366z" />
<glyph unicode="&#xe809;" glyph-name="check" d="M385.127 237.714l453.327 453.327 60.177-60.177-513.502-513.502-238.699 238.699 60.177 60.177z" />
<glyph unicode="&#xe80a;" glyph-name="smile-o" horiz-adv-x="881" d="M649.902 325.876c-28.655-92.27-112.901-154.165-209.757-154.165s-181.102 61.894-209.757 154.165c-6.304 19.486 4.583 39.546 24.070 45.849 18.911 6.304 39.546-4.583 45.849-24.070 18.911-61.323 75.651-102.586 139.838-102.586s120.925 41.263 139.838 102.586c6.304 19.486 26.935 30.376 46.421 24.070 18.911-6.304 29.801-26.364 23.498-45.849zM366.787 575.177c0-40.691-32.667-73.358-73.358-73.358s-73.358 32.667-73.358 73.358 32.667 73.358 73.358 73.358 73.358-32.667 73.358-73.358zM660.218 575.177c0-40.691-32.667-73.358-73.358-73.358s-73.358 32.667-73.358 73.358 32.667 73.358 73.358 73.358 73.358-32.667 73.358-73.358zM806.932 428.462c0 202.306-164.481 366.787-366.787 366.787s-366.787-164.481-366.787-366.787 164.481-366.787 366.787-366.787 366.787 164.481 366.787 366.787zM880.291 428.462c0-242.997-197.148-440.145-440.145-440.145s-440.145 197.148-440.145 440.145 197.148 440.145 440.145 440.145 440.145-197.148 440.145-440.145z" />
<glyph unicode="&#xe810;" glyph-name="close" d="M812.378 654.934l-238.699-238.699 238.699-238.699-60.177-60.177-238.699 238.699-238.699-238.699-60.177 60.177 238.699 238.699-238.699 238.699 60.177 60.177 238.699-238.699 238.699 238.699z" />
<glyph unicode="&#xe820;" glyph-name="captcha" d="M106.808 321.654c-11.297 0-21.567-9.243-21.567-21.567s-9.243-21.567-20.54-21.567-21.567 10.27-21.567 21.567v85.241c0 12.324 9.243 21.567 21.567 21.567s20.54-9.243 20.54-21.567 10.27-20.54 21.567-20.54 21.567 9.243 21.567 20.54c0 35.945-28.756 64.701-63.674 64.701s-64.701-28.756-64.701-64.701v-85.241c0-34.918 28.756-63.674 64.701-63.674s63.674 28.756 63.674 63.674c0 12.324-9.243 21.567-21.567 21.567zM535.071 428.462c11.297 0 21.567-9.243 21.567-21.567s9.243-21.567 21.567-21.567 20.54 10.27 20.54 21.567c0 35.945-28.756 64.701-63.674 64.701s-64.701-28.756-64.701-64.701v-85.241c0-35.945 28.756-64.701 64.701-64.701s63.674 28.756 63.674 64.701c0 11.297-9.243 21.567-20.54 21.567s-21.567-10.27-21.567-21.567-10.27-21.567-21.567-21.567-21.567 9.243-21.567 21.567v85.241c0 12.324 9.243 21.567 21.567 21.567zM1025.979 265.167l-64.701 170.482c-6.162 17.459-33.891 17.459-40.053 0l-63.674-170.482c-4.108-11.297 1.027-23.621 12.324-27.729s23.621 1.027 27.729 12.324l10.27 28.756h66.755l11.297-28.756c3.081-8.216 11.297-13.351 19.513-13.351 3.081 0 5.135 0 8.216 1.027 10.27 4.108 16.432 16.432 12.324 27.729zM924.306 321.654l17.459 46.215 17.459-46.215h-34.918zM234.157 350.41c-6.162 16.432-33.891 16.432-40.053 0l-64.701-171.509c-4.108-10.27 2.054-22.594 13.351-26.702 10.27-4.108 22.594 1.027 26.702 12.324l11.297 28.756h66.755l10.27-28.756c4.108-9.243 11.297-14.378 20.54-14.378 2.054 0 5.135 1.027 7.189 2.054 11.297 4.108 16.432 16.432 12.324 26.702l-63.674 171.509zM197.185 236.411l16.432 45.188 17.459-45.188h-33.891zM363.56 535.27h-42.107c-12.324 0-21.567-9.243-21.567-21.567v-170.482c0-12.324 9.243-21.567 21.567-21.567s20.54 9.243 20.54 21.567v63.674h21.567c35.945 0 64.701 28.756 64.701 64.701s-28.756 63.674-64.701 63.674zM363.56 450.029h-21.567v43.134h21.567c12.324 0 21.567-10.27 21.567-21.567s-9.243-21.567-21.567-21.567zM791.822 364.788c-12.324 0-21.567-10.27-21.567-21.567v-64.701h-85.241v64.701c0 11.297-10.27 21.567-21.567 21.567s-21.567-10.27-21.567-21.567v-171.509c0-11.297 9.243-21.567 21.567-21.567s21.567 10.27 21.567 21.567v64.701h85.241v-64.701c0-11.297 9.243-21.567 21.567-21.567s21.567 10.27 21.567 21.567v171.509c0 11.297-10.27 21.567-21.567 21.567zM470.368 513.703c0-11.297 10.27-20.54 21.567-20.54s21.567 9.243 21.567 20.54v149.942h43.134c11.297 0 21.567 10.27 21.567 21.567s-10.27 21.567-21.567 21.567h-128.375c-12.324 0-21.567-9.243-21.567-21.567s9.243-21.567 21.567-21.567h42.107v-149.942z" />
<glyph unicode="&#xe822;" glyph-name="checkbox" d="M235.184 214.844h-170.482c-35.945 0-64.701-28.756-64.701-64.701v-171.509c0-34.918 28.756-63.674 64.701-63.674h170.482c35.945 0 64.701 28.756 64.701 63.674v171.509c0 35.945-28.756 64.701-64.701 64.701zM256.751-21.367c0-11.297-9.243-20.54-21.567-20.54h-170.482c-12.324 0-21.567 9.243-21.567 20.54v171.509c0 12.324 9.243 21.567 21.567 21.567h170.482c12.324 0 21.567-9.243 21.567-21.567v-171.509zM406.694 728.348h598.745c12.324 0 21.567 9.243 21.567 21.567s-9.243 20.54-21.567 20.54h-598.745c-12.324 0-21.567-9.243-21.567-20.54s9.243-21.567 21.567-21.567zM1005.439 428.462h-598.745c-12.324 0-21.567-9.243-21.567-21.567s9.243-21.567 21.567-21.567h598.745c12.324 0 21.567 10.27 21.567 21.567s-9.243 21.567-21.567 21.567zM1005.439 86.469h-598.745c-12.324 0-21.567-10.27-21.567-21.567s9.243-21.567 21.567-21.567h598.745c12.324 0 21.567 9.243 21.567 21.567s-9.243 21.567-21.567 21.567zM302.967 932.721l-30.81-45.188c-10.27 7.189-23.621 11.297-36.972 11.297h-170.482c-35.945 0-64.701-28.756-64.701-63.674v-171.509c0-34.918 28.756-63.674 64.701-63.674h170.482c35.945 0 64.701 28.756 64.701 63.674v171.509c0 5.135-1.027 10.27-2.054 14.378l41.080 58.539c6.162 10.27 4.108 23.621-6.162 29.783-9.243 7.189-22.594 5.135-29.783-5.135zM256.751 663.647c0-11.297-9.243-21.567-21.567-21.567h-170.482c-12.324 0-21.567 10.27-21.567 21.567v171.509c0 11.297 9.243 21.567 21.567 21.567h170.482c5.135 0 8.216-2.054 12.324-4.108l-79.079-112.97-46.215 46.215c-8.216 8.216-21.567 8.216-30.81 0s-8.216-21.567 0-29.783l64.701-64.701c4.108-4.108 9.243-6.162 15.405-6.162 0 0 1.027 0 2.054 0 6.162 1.027 11.297 4.108 15.405 9.243l67.782 97.565v-128.375zM302.967 590.729l-30.81-45.188c-10.27 7.189-23.621 11.297-36.972 11.297h-170.482c-35.945 0-64.701-28.756-64.701-63.674v-171.509c0-35.945 28.756-64.701 64.701-64.701h170.482c35.945 0 64.701 28.756 64.701 64.701v171.509c0 5.135-1.027 9.243-2.054 14.378l41.080 58.539c6.162 9.243 4.108 22.594-6.162 29.783-9.243 7.189-22.594 4.108-29.783-5.135zM256.751 321.654c0-12.324-9.243-21.567-21.567-21.567h-170.482c-12.324 0-21.567 9.243-21.567 21.567v171.509c0 11.297 9.243 20.54 21.567 20.54h170.482c5.135 0 8.216-1.027 12.324-3.081l-79.079-112.97-46.215 46.215c-8.216 8.216-21.567 8.216-30.81 0s-8.216-22.594 0-30.81l64.701-63.674c4.108-4.108 9.243-6.162 15.405-6.162 0 0 1.027 0 2.054 0 6.162 0 11.297 4.108 15.405 9.243l67.782 96.538v-127.348z" />
<glyph unicode="&#xe828;" glyph-name="divider" d="M43.134 535.27h940.738c12.324 0 21.567 10.27 21.567 21.567s-9.243 21.567-21.567 21.567h-940.738c-12.324 0-21.567-9.243-21.567-21.567s9.243-21.567 21.567-21.567zM385.127 706.781h256.751c8.216 0 15.405 5.135 19.513 12.324s2.054 15.405-2.054 21.567l-128.375 171.509c-8.216 11.297-26.702 11.297-34.918 0l-128.375-171.509c-4.108-6.162-5.135-14.378-2.054-21.567 4.108-7.189 11.297-12.324 19.513-12.324zM513.502 863.912l85.241-113.997h-170.482l85.241 113.997zM641.879 150.143h-256.751c-8.216 0-15.405-4.108-19.513-11.297-3.081-7.189-2.054-16.432 2.054-22.594l128.375-171.509c4.108-5.135 11.297-8.216 17.459-8.216s13.351 3.081 17.459 8.216l128.375 171.509c4.108 6.162 5.135 15.405 2.054 22.594-4.108 7.189-11.297 11.297-19.513 11.297zM513.502-5.962l-85.241 113.997h170.482l-85.241-113.997zM983.872 321.654h-940.738c-12.324 0-21.567-9.243-21.567-21.567s9.243-21.567 21.567-21.567h940.738c12.324 0 21.567 10.27 21.567 21.567s-9.243 21.567-21.567 21.567z" />
<glyph unicode="&#xe84e;" glyph-name="radio" d="M149.942 920.397c-83.187 0-149.942-66.755-149.942-149.942s66.755-148.915 149.942-148.915 149.942 66.755 149.942 148.915-67.782 149.942-149.942 149.942zM149.942 663.647c-59.566 0-106.808 48.269-106.808 106.808s47.242 107.835 106.808 107.835 106.808-48.269 106.808-107.835-48.269-106.808-106.808-106.808zM149.942 578.405c-83.187 0-149.942-67.782-149.942-149.942s66.755-149.942 149.942-149.942 149.942 67.782 149.942 149.942-67.782 149.942-149.942 149.942zM149.942 321.654c-59.566 0-106.808 48.269-106.808 106.808s47.242 106.808 106.808 106.808 106.808-48.269 106.808-106.808-48.269-106.808-106.808-106.808zM149.942 236.411c-83.187 0-149.942-67.782-149.942-149.942s66.755-149.942 149.942-149.942 149.942 66.755 149.942 149.942-67.782 149.942-149.942 149.942zM149.942-21.367c-59.566 0-106.808 48.269-106.808 107.835s47.242 106.808 106.808 106.808 106.808-48.269 106.808-106.808-48.269-107.835-106.808-107.835zM406.694 749.915h598.745c12.324 0 21.567 9.243 21.567 20.54s-9.243 21.567-21.567 21.567h-598.745c-12.324 0-21.567-9.243-21.567-21.567s9.243-20.54 21.567-20.54zM1005.439 450.029h-598.745c-12.324 0-21.567-9.243-21.567-21.567s9.243-21.567 21.567-21.567h598.745c12.324 0 21.567 10.27 21.567 21.567s-9.243 21.567-21.567 21.567zM1005.439 108.036h-598.745c-12.324 0-21.567-10.27-21.567-21.567s9.243-21.567 21.567-21.567h598.745c12.324 0 21.567 9.243 21.567 21.567s-9.243 21.567-21.567 21.567zM149.942 493.163c-35.945 0-64.701-28.756-64.701-64.701s28.756-63.674 64.701-63.674 63.674 28.756 63.674 63.674-28.756 64.701-63.674 64.701zM149.942 406.895c-12.324 0-21.567 10.27-21.567 21.567s9.243 21.567 21.567 21.567 21.567-9.243 21.567-21.567-10.27-21.567-21.567-21.567z" />
<glyph unicode="&#xe869;" glyph-name="toggle" d="M235.184 920.397h-170.482c-35.945 0-64.701-28.756-64.701-63.674v-171.509c0-34.918 28.756-63.674 64.701-63.674h170.482c35.945 0 64.701 28.756 64.701 63.674v171.509c0 34.918-28.756 63.674-64.701 63.674zM256.751 685.214c0-11.297-9.243-21.567-21.567-21.567h-170.482c-12.324 0-21.567 10.27-21.567 21.567v171.509c0 11.297 9.243 21.567 21.567 21.567h170.482c12.324 0 21.567-10.27 21.567-21.567v-171.509zM193.077 792.022h-21.567v21.567c0 12.324-10.27 21.567-21.567 21.567s-21.567-9.243-21.567-21.567v-21.567h-21.567c-11.297 0-21.567-9.243-21.567-21.567s10.27-20.54 21.567-20.54h21.567v-21.567c0-12.324 9.243-21.567 21.567-21.567s21.567 9.243 21.567 21.567v21.567h21.567c11.297 0 20.54 9.243 20.54 20.54s-9.243 21.567-20.54 21.567zM235.184 578.405h-170.482c-35.945 0-64.701-28.756-64.701-64.701v-170.482c0-35.945 28.756-64.701 64.701-64.701h170.482c35.945 0 64.701 28.756 64.701 64.701v170.482c0 35.945-28.756 64.701-64.701 64.701zM256.751 343.221c0-12.324-9.243-21.567-21.567-21.567h-170.482c-12.324 0-21.567 9.243-21.567 21.567v170.482c0 12.324 9.243 21.567 21.567 21.567h170.482c12.324 0 21.567-9.243 21.567-21.567v-170.482zM193.077 450.029h-21.567v21.567c0 11.297-10.27 21.567-21.567 21.567s-21.567-10.27-21.567-21.567v-21.567h-21.567c-11.297 0-21.567-9.243-21.567-21.567s10.27-21.567 21.567-21.567h21.567v-21.567c0-11.297 9.243-20.54 21.567-20.54s21.567 9.243 21.567 20.54v21.567h21.567c11.297 0 20.54 10.27 20.54 21.567s-9.243 21.567-20.54 21.567zM235.184 236.411h-170.482c-35.945 0-64.701-28.756-64.701-64.701v-171.509c0-34.918 28.756-63.674 64.701-63.674h170.482c35.945 0 64.701 28.756 64.701 63.674v171.509c0 35.945-28.756 64.701-64.701 64.701zM256.751 0.2c0-11.297-9.243-21.567-21.567-21.567h-170.482c-12.324 0-21.567 10.27-21.567 21.567v171.509c0 12.324 9.243 21.567 21.567 21.567h170.482c12.324 0 21.567-9.243 21.567-21.567v-171.509zM193.077 108.036h-21.567v20.54c0 12.324-10.27 21.567-21.567 21.567s-21.567-9.243-21.567-21.567v-20.54h-21.567c-11.297 0-21.567-10.27-21.567-21.567s10.27-21.567 21.567-21.567h21.567v-21.567c0-12.324 9.243-21.567 21.567-21.567s21.567 9.243 21.567 21.567v21.567h21.567c11.297 0 20.54 9.243 20.54 21.567s-9.243 21.567-20.54 21.567zM406.694 749.915h598.745c12.324 0 21.567 9.243 21.567 20.54s-9.243 21.567-21.567 21.567h-598.745c-12.324 0-21.567-9.243-21.567-21.567s9.243-20.54 21.567-20.54zM1005.439 450.029h-598.745c-12.324 0-21.567-9.243-21.567-21.567s9.243-21.567 21.567-21.567h598.745c12.324 0 21.567 10.27 21.567 21.567s-9.243 21.567-21.567 21.567zM1005.439 108.036h-598.745c-12.324 0-21.567-10.27-21.567-21.567s9.243-21.567 21.567-21.567h598.745c12.324 0 21.567 9.243 21.567 21.567s-9.243 21.567-21.567 21.567z" />
<glyph unicode="&#xe86d;" glyph-name="text" d="M1005.439 728.348h-983.872c-12.324 0-21.567 9.243-21.567 21.567s9.243 20.54 21.567 20.54h983.872c12.324 0 21.567-9.243 21.567-20.54s-9.243-21.567-21.567-21.567zM706.58 599.972h-685.013c-12.324 0-21.567 9.243-21.567 21.567s9.243 20.54 21.567 20.54h685.013c11.297 0 20.54-9.243 20.54-20.54s-9.243-21.567-20.54-21.567zM1005.439 471.596h-983.872c-12.324 0-21.567 9.243-21.567 21.567s9.243 20.54 21.567 20.54h983.872c12.324 0 21.567-9.243 21.567-20.54s-9.243-21.567-21.567-21.567zM706.58 343.221h-685.013c-12.324 0-21.567 9.243-21.567 21.567s9.243 20.54 21.567 20.54h685.013c11.297 0 20.54-9.243 20.54-20.54s-9.243-21.567-20.54-21.567zM1005.439 214.844h-983.872c-12.324 0-21.567 9.243-21.567 21.567s9.243 20.54 21.567 20.54h983.872c12.324 0 21.567-9.243 21.567-20.54s-9.243-21.567-21.567-21.567zM706.58 86.469h-685.013c-12.324 0-21.567 9.243-21.567 21.567s9.243 20.54 21.567 20.54h685.013c11.297 0 20.54-9.243 20.54-20.54s-9.243-21.567-20.54-21.567z" />
<glyph unicode="&#xe898;" glyph-name="section" d="M59.566 873.155c-16.432-16.432-20.54-37.999-20.54-63.674v-762.038c0-25.675 8.216-47.242 25.675-63.674s37.999-25.675 63.674-25.675h770.254c25.675 0 47.242 8.216 64.701 25.675 16.432 16.432 25.675 37.999 25.675 63.674v762.038c0 25.675-9.243 47.242-25.675 63.674-21.567 17.459-43.134 25.675-64.701 25.675h-770.254c-29.783 5.135-51.35-8.216-68.809-25.675M128.375 714.997h752.795v-282.427h-752.795v282.427M886.307 339.113v-283.454h-757.93v283.454h757.93z" />
<glyph unicode="&#xe8f0;" glyph-name="book" d="M748.19 315.943q52.153 0 108.318-10.030v-64.189q-40.117 10.030-108.318 10.030-120.352 0-192.564-42.123v72.211q76.222 34.099 192.564 34.099zM555.627 396.177q84.246 34.099 192.564 34.099 52.153 0 108.318-10.030v-64.189q-40.117 10.030-108.318 10.030-120.352 0-192.564-42.123v72.211zM748.19 480.424q-120.352 0-192.564-42.123v70.205q80.234 36.105 192.564 36.105 52.153 0 108.318-10.030v-66.195q-48.141 12.036-108.318 12.036zM898.631 137.42v493.444q-66.195 20.060-150.441 20.060-130.381 0-234.687-64.189v-491.438q104.306 64.189 234.687 64.189 78.228 0 150.441-22.066zM748.19 737.175q152.447 0 236.693-64.189v-623.826q0-8.024-7.021-15.045t-15.045-7.021q-6.018 0-10.030 2.006-82.24 44.129-204.599 44.129-130.381 0-234.687-64.189-86.252 64.189-234.687 64.189-108.318 0-204.599-46.135-2.006 0-5.015-1.003t-5.015-1.003q-8.024 0-15.045 6.018t-7.021 14.042v627.838q86.252 64.189 236.693 64.189 148.435 0 234.687-64.189 86.252 64.189 234.687 64.189z" />
<glyph unicode="&#xe8f7;" glyph-name="plus-circle" d="M513.502-47.042c-260.859 0-474.476 214.644-474.476 475.503s213.617 475.503 474.476 475.503 475.503-214.644 475.503-475.503-214.644-475.503-475.503-475.503zM513.502 47.443c209.509 0 381.019 171.509 381.019 381.019s-171.509 381.019-381.019 381.019-381.019-171.509-381.019-381.019 171.509-381.019 381.019-381.019zM466.26 475.704v179.726c0 25.675 21.567 47.242 47.242 47.242s47.242-21.567 47.242-47.242v-179.726h179.726c25.675 0 47.242-21.567 47.242-47.242s-21.567-47.242-47.242-47.242h-179.726v-179.726c0-25.675-21.567-47.242-47.242-47.242s-47.242 21.567-47.242 47.242v179.726h-179.726c-25.675 0-47.242 21.567-47.242 47.242s21.567 47.242 47.242 47.242h179.726z" />
<glyph unicode="&#xe900;" glyph-name="arrow-down-up" d="M243.503 271.535c-16.662-16.661-16.662-43.678 0-60.339l208.733-208.529c33.331-33.297 87.339-33.284 120.653 0.026l208.653 208.657c16.666 16.661 16.666 43.678 0 60.339-16.661 16.661-43.678 16.661-60.339 0l-178.586-178.586c-16.661-16.666-43.678-16.666-60.339 0l-178.435 178.432c-16.662 16.661-43.677 16.661-60.34 0zM781.542 623.499c16.666 16.662 16.666 43.677 0 60.34l-208.734 208.531c-33.331 33.297-87.334 33.283-120.649-0.030l-208.657-208.655c-16.663-16.662-16.663-43.677 0-60.34s43.677-16.663 60.34 0l178.589 178.587c16.661 16.663 43.678 16.663 60.339 0l178.432-178.433c16.661-16.663 43.678-16.663 60.339 0z" />
<glyph unicode="&#xe901;" glyph-name="clickatell" d="M606.424 839.878c-202.664 108.273-453.914 27.762-559.41-181.843-105.497-208.218-27.762-466.405 176.29-574.678 101.332-54.137 213.769-61.078 315.101-27.765 0 0 20.824 2.779 72.181 33.317 0 0-43.030 26.375-93.001 109.659 0 0 0 0 0 1.39-72.181-29.151-156.858-29.151-230.427 11.103-136.035 72.185-188.784 244.308-117.99 383.121s237.368 194.336 373.403 120.766c81.898-43.032 133.259-123.542 145.752-210.994l140.2-74.957c12.493 165.184-69.405 328.982-222.098 410.881zM756.359 83.365c204.054-108.273 453.914-24.986 559.411 184.62 105.494 209.605 24.986 466.406-179.068 573.291-101.332 54.136-213.771 59.689-315.103 26.374 0 0-20.82-2.776-72.181-33.315 0 0 43.034-26.374 93.005-108.273 0 0 0 0 0-1.388 72.181 30.539 155.469 29.15 230.426-9.717 136.035-72.182 188.785-242.919 119.38-383.119-70.795-140.2-237.371-194.337-373.405-123.542-81.898 43.030-133.259 122.152-147.138 209.605l-140.2 73.571c-11.107-163.8 72.181-327.596 224.874-408.108z" />
<glyph unicode="&#xe902;" glyph-name="plivo" d="M432.269 543.968c21.35 0 38.657 18.026 38.657 40.262s-17.307 40.262-38.657 40.262c-21.351 0-38.659-18.026-38.659-40.262s17.307-40.262 38.659-40.262zM356.72 289.568v329.26c0 1.711-1.39 3.155-3.154 3.155h-65.607c-1.711 0-3.154-1.39-3.154-3.155v-329.206c0-1.711 1.39-3.155 3.154-3.155h65.607c1.71 0 3.154 1.39 3.154 3.155v-0.054zM401.474 286.467h65.605c1.711 0 3.155 1.39 3.155 3.155v228.632c0 1.711-1.39 3.155-3.155 3.155h-65.605c-1.711 0-3.155-1.39-3.155-3.155v-228.632c0-1.711 1.39-3.155 3.155-3.155zM672.935 518.2l-47.373-133.886-47.321 134.956c-0.427 1.283-1.604 2.085-2.94 2.085h-72.556c-2.246 0-3.744-2.246-2.888-4.331l92.233-228.633c0.482-1.175 1.605-1.977 2.888-1.977h53.736c1.231 0 2.353 0.748 2.888 1.871l100.628 228.632c0.908 2.085-0.588 4.384-2.888 4.384h-72.985c-1.336 0-2.513-0.855-2.94-2.085l-0.481-1.016zM648.714 283.686h-53.737c-2.352 0-4.49 1.444-5.453 3.69l-92.233 228.631c-0.75 1.818-0.535 3.903 0.535 5.507s2.94 2.62 4.865 2.62h72.556c2.513 0 4.759-1.604 5.561-3.957l44.7-127.523 45.342 127.79c0.694 2.085 2.94 3.636 5.453 3.636h72.985c2.031 0 3.85-1.016 4.972-2.674 1.069-1.657 1.283-3.743 0.481-5.561l-100.628-228.632c-1.015-2.192-3.155-3.528-5.399-3.528zM502.744 518.574l-0.321-0.535 92.233-228.632 54.059-0.267 101.001 228.846-0.373 0.535-73.039-0.16-0.427-0.374-0.429-0.909-49.94-141.104-49.886 142.334-72.878 0.267zM467.081 283.74h-65.607c-3.261 0-5.934 2.673-5.934 5.882v228.631c0 3.262 2.673 5.935 5.934 5.935h65.607c3.261 0 5.88-2.674 5.88-5.935v-228.631c0-3.263-2.673-5.882-5.88-5.882zM401.474 518.681c0 0-0.427-0.16-0.427-0.428v-228.631c0 0 0.16-0.429 0.427-0.429h65.607c0 0 0.373 0.161 0.373 0.429v228.631c0 0-0.16 0.428-0.373 0.428h-65.607zM353.566 283.74h-65.605c-3.263 0-5.936 2.673-5.936 5.882v329.206c0 3.262 2.673 5.935 5.936 5.935h65.605c3.261 0 5.882-2.673 5.882-5.935v-329.26c0-3.209-2.675-5.828-5.882-5.828zM287.961 619.255c0 0-0.429-0.16-0.429-0.428v-329.206c0 0 0.161-0.429 0.429-0.429h65.605c0 0 0.375 0.161 0.375 0.429v329.206c0 0-0.161 0.428-0.375 0.428h-65.605zM87.342 481.734c-8.127-3.155-16.361-5.24-23.473-10.587-10.854-8.181-15.078-19.409-19.142-31.921-0.428-0.588-1.551-0.588-1.925 0-3.048 8.128-5.186 16.256-10.533 23.259-9.090 11.923-17.698 13.367-30.637 18.607-1.016 0.428-2.192 0.695-1.337 2.139 0.374 0.642 11.817 4.384 13.635 5.186 11.175 4.759 19.356 13.046 24.114 24.221 1.818 4.331 2.994 9.036 4.919 13.26l0.962 0.321 1.016-0.856c3.796-12.030 7.967-22.778 18.126-30.798 7.111-5.614 15.452-7.913 23.793-11.014 0.642-0.374 0.588-1.176 0.428-1.818h0.053zM53.549 624.61l26.895-11.549 161.047-72.824c0 0 0.535-0.267 0.75-0.428l1.657-1.016c1.871-1.551 5.613-6.096 5.399-11.763v-82.77c-0.106-3.528-1.765-10.96-7.111-14.383-0.213-0.213-0.535-0.373-0.802-0.481l-117.578-54.27v-85.605c0-3.048-2.46-5.507-5.507-5.507h-66.515c-3.048 0-5.507 2.459-5.507 5.507v127.844c0 0.321 0 0.642 0.053 0.909 0.16 1.979 1.711 6.576 6.47 9.357 0.16 0.108 0.374 0.215 0.588 0.321l122.656 56.57-129.233 58.334c-1.657 0.749-2.46 2.513-2.085 4.171v2.727l0.749 62.772c-1.016 10.373 4.973 12.298 8.127 11.977v0.107h-0.053zM883.54 530.186c-72.451 0-131.159-56.516-131.159-126.239 0-69.724 58.708-126.294 131.159-126.294s131.159 56.518 131.159 126.294c0 69.776-58.708 126.239-131.159 126.239zM883.54 349.623c-28.231 0-51.117 24.328-51.117 54.324s22.886 54.324 51.117 54.324c28.231 0 51.117-24.328 51.117-54.324s-22.886-54.324-51.117-54.324z" />
<glyph unicode="&#xe903;" glyph-name="twilio" d="M512 960c-282.336 0.32-511.68-228.32-512-510.848v-1.152c0-283.328 228.672-512 512-512s512 228.672 512 512c0 283.328-228.672 512-512 512zM512 72.512c-206.848-0.672-374.848 166.496-375.488 373.344v2.176c-0.672 206.848 166.496 374.848 373.344 375.488h2.176c206.848 0.672 374.848-166.496 375.488-373.344v-2.176c0.672-206.848-166.496-374.848-373.344-375.488zM744.16 574.336c0-58.016-47.84-105.824-105.824-105.824-58.336 0.32-105.504 47.488-105.824 105.824 0 58.016 47.84 105.824 105.824 105.824s105.824-47.84 105.824-105.824zM744.16 321.664c0-58.016-47.84-105.824-105.824-105.824-58.336 0.32-105.664 47.68-105.824 105.824 0 58.016 47.84 105.824 105.824 105.824s105.824-47.84 105.824-105.824zM491.488 321.664c0-58.016-47.68-105.824-105.664-105.824-58.336 0.32-105.664 47.488-105.824 105.824 0 58.016 47.68 105.824 105.824 105.824 57.824 0 105.664-47.84 105.664-105.824zM491.488 574.336c0-58.016-47.68-105.824-105.664-105.824-58.336 0.32-105.664 47.488-105.824 105.824 0 58.016 47.68 105.824 105.824 105.824 57.824 0 105.664-47.84 105.664-105.824z" />
<glyph unicode="&#xe904;" glyph-name="vonage" d="M395.904 464.341l-193.707 429.653h-202.197l290.005-652.629c0.577-1.251 1.821-2.104 3.264-2.104s2.687 0.853 3.255 2.081l0.009 0.022zM818.219 893.995s-262.315-591.701-295.125-664.107c-78.421-173.056-136.533-216.32-195.755-225.664-0.577-0.046-1.027-0.525-1.027-1.109 0-0.614 0.498-1.113 1.113-1.113 0.030 0 0.060 0.001 0.089 0.004h185.169c81.536 0 137.344 54.827 215.893 227.883 27.477 60.501 295.424 664.107 295.424 664.107z" />
<glyph unicode="&#xe905;" glyph-name="save" d="M775.322 917.333c22.63 0 44.335-8.99 60.339-24.994l120.678-120.679c16.004-16.003 24.994-37.708 24.994-60.34v-604.654c0-70.694-57.306-128-128-128h-682.667c-70.692 0-128 57.306-128 128v682.667c0 70.692 57.308 128 128 128h604.655zM170.667 832c-23.564 0-42.667-19.103-42.667-42.667v-682.667c0-23.565 19.103-42.667 42.667-42.667h42.667v256c0 70.694 57.308 128 128 128h341.333c70.694 0 128-57.306 128-128v-256h42.667c23.565 0 42.667 19.102 42.667 42.667v561.987c0 22.632-8.99 44.337-24.994 60.34l-78.012 78.013c-16.004 16.003-37.709 24.994-60.339 24.994h-7.322v-85.333c0-70.692-57.306-128-128-128h-170.667c-70.692 0-128 57.308-128 128v85.333h-128zM725.333 64v256c0 23.565-19.102 42.667-42.667 42.667h-341.333c-23.564 0-42.667-19.102-42.667-42.667v-256h426.667zM384 832h256v-85.333c0-23.564-19.102-42.667-42.667-42.667h-170.667c-23.564 0-42.667 19.103-42.667 42.667v85.333z" />
<glyph unicode="&#xe906;" glyph-name="permanently-rejected" d="M512 62.4c-108 0-209.6 42.4-285.6 118.4s-118.4 177.6-118.4 285.6c0 108 42.4 209.6 118.4 285.6s177.6 118.4 285.6 118.4c108 0 209.6-42.4 285.6-118.4 157.6-157.6 157.6-413.6 0-571.2-76-76-177.6-118.4-285.6-118.4zM512 822.4c-95.2 0-184.8-36.8-252-104s-104-156.8-104-252 36.8-184.8 104-252c67.2-67.2 156.8-104 252-104s184.8 36.8 252 104c139.2 139.2 139.2 364.8 0 504-67.2 67.2-156.8 104-252 104zM707.872 630.608l-359.776-359.768-31.68 31.68 359.776 359.768zM328 619.2l32 31.2 348-348-32-32z" />
<glyph unicode="&#xe907;" glyph-name="download" d="M648.576 180.056c-25.162 0-45.548-20.386-45.548-45.514s20.386-45.516 45.548-45.516c25.128 0 45.514 20.386 45.514 45.516 0 25.128-20.386 45.514-45.514 45.514zM801.184 180.056c-25.16 0-45.546-20.386-45.546-45.514s20.388-45.516 45.546-45.516c25.128 0 45.516 20.386 45.516 45.516 0 25.128-20.388 45.514-45.516 45.514zM951.47 313.73l-165.93 136.22c-30.772 25.226-69.352 39.048-109.19 39.048h-53.288l-46.256-51.418c-16.516-18.322-40.128-28.838-64.806-28.838-24.676 0-48.288 10.516-64.804 28.838l-46.256 51.418h-53.32c-39.804 0-78.384-13.822-109.158-39.048l-165.928-136.22c-35.552-25.708-58.776-67.434-58.776-114.69v-121.416c0.032-78.24 63.386-141.608 141.608-141.624h713.234c78.224 0.016 141.64 63.386 141.64 141.624v121.416c0.002 47.256-23.222 88.982-58.77 114.69zM929.308 77.624c0-16.888-6.742-31.806-17.772-42.918-11.096-11.032-26.032-17.758-42.936-17.774h-713.234c-16.87 0.016-31.806 6.742-42.902 17.774-11.064 11.112-17.772 26.030-17.772 42.918v121.416c0 16.886 6.708 31.82 17.772 42.9 11.096 11.048 26.032 17.774 42.902 17.79h713.234c16.904-0.016 31.838-6.742 42.936-17.79 11.032-11.080 17.772-26.016 17.772-42.9v-121.416zM484.034 470.726c7.128-7.92 17.322-12.436 27.966-12.436 10.678 0 20.84 4.516 27.968 12.436l143.060 158.978c9.968 11.032 12.452 26.902 6.42 40.482-6.032 13.564-19.516 22.306-34.354 22.306h-67.224v229.88c-0.002 20.772-16.872 37.628-37.646 37.628h-76.448c-20.774 0-37.612-16.856-37.612-37.628v-229.88h-67.224c-14.838 0-28.32-8.742-34.384-22.306-6.032-13.58-3.516-29.45 6.42-40.482l143.058-158.978z" />
<glyph unicode="&#xe908;" glyph-name="publish" d="M510.31 540.518l-254.31-246.118h153.6v-307.2h204.8v307.2h153.6l-257.69 246.118zM921.6 908.8h-819.2c-56.32 0-102.4-46.080-102.4-102.4v-614.4c0-56.32 46.080-102.4 102.4-102.4h204.8v102.4h-204.8v460.8h819.2v-460.8h-204.8v-102.4h204.8c56.32 0 102.4 46.080 102.4 102.4v614.4c0 56.32-46.080 102.4-102.4 102.4zM128 742.4c-21.208 0-38.4 17.192-38.4 38.4s17.192 38.4 38.4 38.4v0c21.208 0 38.4-17.192 38.4-38.4s-17.192-38.4-38.4-38.4v0zM230.4 742.4c-21.208 0-38.4 17.192-38.4 38.4s17.192 38.4 38.4 38.4v0c21.208 0 38.4-17.192 38.4-38.4s-17.192-38.4-38.4-38.4v0zM921.6 755.2h-614.4v51.2h615.373l-0.973-51.2z" />
<glyph unicode="&#xe909;" glyph-name="withdraw" d="M981.333 789.333v-426.667c0-70.694-57.306-128-128-128h-42.667c-23.565 0-42.667 19.102-42.667 42.667s19.102 42.667 42.667 42.667h42.667c23.565 0 42.667 19.102 42.667 42.667v256h-768v-256c0-23.565 19.103-42.667 42.667-42.667h42.667c23.564 0 42.667-19.102 42.667-42.667s-19.103-42.667-42.667-42.667h-42.667c-70.692 0-128 57.306-128 128v426.667c0 70.692 57.308 128 128 128h682.667c70.694 0 128-57.308 128-128zM896 704v85.333c0 23.564-19.102 42.667-42.667 42.667h-682.667c-23.564 0-42.667-19.102-42.667-42.667v-85.333h768zM554.667 21.333c0-23.565-19.102-42.667-42.667-42.667s-42.667 19.102-42.667 42.667v238.639l-55.162-55.155c-16.664-16.67-43.677-16.67-60.341 0-16.661 16.653-16.661 43.674 0 60.331l127.979 127.714c16.666 16.636 43.657 16.619 60.309-0.030l127.962-127.966c16.666-16.666 16.666-43.678 0-60.343-16.661-16.657-43.678-16.657-60.339 0l-55.074 55.074v-238.263z" />
<glyph unicode="&#xe90a;" glyph-name="pdf" d="M695.492 267.592c-16.796 1.010-57.178-1.382-97.62-9.066-23.394 23.678-43.652 53.506-58.68 78.106 48.156 138.464 17.658 177.82-23.394 177.82-32.238 0-48.334-34.022-44.752-71.61 1.812-18.922 17.836-58.68 37.56-96.446-12.1-31.824-33.694-85.612-55.128-124.538-25.090-7.624-46.61-16.096-62.054-23.244-76.93-35.776-83.112-83.546-67.104-103.788 30.394-38.452 95.152-5.276 160.132 110.936 44.486 12.65 103.016 29.504 108.292 29.504 0.608 0 1.442-0.194 2.408-0.506 32.43-28.596 70.732-61.34 102.256-65.65 45.616-6.272 71.582 26.812 69.782 47.384-1.784 20.584-13.808 47.622-71.698 51.098zM407.522 142.24c-18.802-22.356-49.212-43.8-59.944-36.668-10.746 7.148-12.53 27.72 11.638 50.994 24.152 23.246 64.58 35.314 70.658 37.574 7.18 2.674 8.964 0 8.964-3.582s-12.53-25.936-31.316-48.318zM489.846 442.858c-1.798 22.384 2.66 43.844 21.462 46.52 18.772 2.704 27.736-18.772 20.584-53.656-7.164-34.928-10.76-58.16-14.328-60.88-3.58-2.676-7.134 6.288-7.134 6.288-7.176 14.33-18.8 39.374-20.584 61.728zM497.010 232.606c9.824 16.128 34.884 81.404 34.884 81.404 5.366-9.852 47.398-59.912 47.398-59.912s-64.416-14.344-82.282-21.492zM691.998 204.010c-26.828 3.536-72.442 35.79-72.442 35.79-6.256 2.674 49.984 10.314 71.58 8.932 27.75-1.8 37.588-13.436 37.588-25.060 0-11.636-9.838-23.246-36.726-19.662zM922.672 744.68l-215.306 215.32h-427.474c-94.706 0-171.754-77.064-171.754-171.802v-13.14h-25.432v-205.466h25.432v-461.808c0-94.722 77.050-171.786 171.756-171.786h489.616c94.736 0 171.786 77.064 171.786 171.786v618.258l-18.624 18.638zM769.508-0.386h-489.616c-59.75 0-108.172 48.424-108.172 108.172v461.808h314.62v205.466h-314.62v13.14c0 59.764 48.422 108.204 108.172 108.204h385.888v-121.788c0-49.776 40.382-90.13 90.158-90.13h121.772v-576.698c0-59.752-48.438-108.174-108.202-108.174zM176.18 627.828v95.108c0 1.678 1.366 3.048 3.048 3.048h30.216c4.98 0 9.572-0.818 13.674-2.424 4.058-1.59 7.624-3.82 10.598-6.644 3.002-2.838 5.306-6.288 6.866-10.242 1.56-3.878 2.364-8.116 2.364-12.588 0-4.564-0.804-8.828-2.38-12.664-1.56-3.836-3.864-7.238-6.836-10.108-2.958-2.854-6.54-5.098-10.642-6.658-4.072-1.56-8.664-2.348-13.644-2.348h-12.752v-34.482c0-1.68-1.366-3.046-3.046-3.046h-14.416c-1.684 0-3.050 1.368-3.050 3.048zM269.37 627.828v95.108c0 1.678 1.368 3.048 3.048 3.048h33.396c6.346 0 11.936-1.056 16.648-3.136 4.772-2.124 9.036-5.5 12.694-10.018 1.888-2.378 3.388-5.008 4.472-7.832 1.056-2.75 1.858-5.724 2.378-8.814 0.506-3.062 0.802-6.362 0.906-9.914 0.090-3.388 0.134-7.030 0.134-10.894 0-3.848-0.044-7.492-0.134-10.88-0.104-3.538-0.4-6.852-0.906-9.928-0.52-3.092-1.322-6.050-2.378-8.798-1.1-2.854-2.6-5.486-4.46-7.818-3.684-4.564-7.952-7.938-12.708-10.032-4.668-2.080-10.27-3.136-16.648-3.136h-33.396c-1.68-0.004-3.046 1.364-3.046 3.044zM428.538 684.038c1.68 0 3.046-1.368 3.046-3.048v-12.96c0-1.68-1.366-3.048-3.046-3.048h-36.488v-37.158c0-1.68-1.368-3.046-3.048-3.046h-14.418c-1.68 0-3.046 1.366-3.046 3.046v95.108c0 1.678 1.366 3.048 3.046 3.048h55.306c1.678 0 3.048-1.368 3.048-3.048v-12.96c0-1.68-1.368-3.048-3.048-3.048h-37.84v-22.888h36.488zM218.836 684.588c2.424 2.184 3.596 5.29 3.596 9.498 0 4.192-1.174 7.298-3.596 9.482-2.526 2.26-5.856 3.36-10.196 3.36h-11.95v-25.696h11.95c4.338-0.002 7.67 1.096 10.196 3.356zM312.278 645.038c2.26 0.848 4.206 2.214 5.946 4.176 1.888 2.11 3.076 5.142 3.538 9.022 0.52 4.416 0.772 10.182 0.772 17.138 0 6.97-0.252 12.738-0.772 17.138-0.462 3.892-1.65 6.924-3.524 9.020-1.738 1.964-3.746 3.358-5.944 4.178-2.364 0.906-5.068 1.352-8.084 1.352h-14.328v-63.36h14.328c3-0.002 5.72 0.444 8.068 1.336z" />
<glyph unicode="&#xe90b;" glyph-name="moon" d="M868.272 280.8c-2.533 2.535-6.032 4.103-9.899 4.103-2.711 0-5.241-0.771-7.385-2.105l0.059 0.034c-53.539-33.312-118.522-53.061-188.118-53.061-198.823 0-360 161.177-360 360 0 69.602 19.752 134.59 53.956 189.665l-0.886-1.532c1.304 2.087 2.077 4.622 2.077 7.338 0 7.732-6.268 14-14 14-2.714 0-5.247-0.772-7.393-2.109l0.059 0.034c-111.879-69.394-185.275-191.539-185.275-330.827 0-214.286 173.714-388 388-388 139.288 0 261.434 73.396 329.871 183.623l0.956 1.653c1.293 2.080 2.059 4.603 2.059 7.306 0 3.856-1.56 7.348-4.083 9.879v0zM539.664 106.496c-0.012 0-0.026 0-0.040 0-198.823 0-360 161.177-360 360 0 108.949 48.397 206.595 124.866 272.61l0.462 0.39c-18.971-44.186-30.003-95.614-30.003-149.619 0-214.322 173.742-388.064 388.064-388.064 54.004 0 105.432 11.031 152.153 30.964l-2.534-0.961c-65.929-76.903-163.182-125.322-271.744-125.322-0.431 0-0.861 0.001-1.291 0.002h0.067zM774.2 436.608c-1.878 5.661-7.125 9.672-13.308 9.672-0.001 0-0.003 0-0.004 0h-70.008l-21.6 66.584c-1.883 5.658-7.13 9.665-13.312 9.665s-11.429-4.007-13.283-9.566l-0.029-0.099-21.6-66.584h-70.088c-7.731-0.001-13.997-6.269-13.997-14 0-4.64 2.258-8.753 5.734-11.301l0.039-0.027 56.632-41.144-21.6-66.592c-0.423-1.276-0.667-2.744-0.667-4.269 0-7.728 6.264-13.992 13.992-13.992 3.075 0 5.918 0.992 8.227 2.673l-0.040-0.028 56.64 41.152 56.64-41.152c2.277-1.67 5.135-2.673 8.227-2.673 7.732 0 14 6.268 14 14 0 1.544-0.25 3.030-0.712 4.419l0.028-0.099-21.6 66.592 56.632 41.144c3.496 2.576 5.739 6.678 5.739 11.303 0 1.544-0.25 3.030-0.712 4.42l0.028-0.099zM687.8 396.48c-3.516-2.571-5.774-6.682-5.774-11.321 0-1.547 0.251-3.035 0.715-4.426l-0.029 0.099 11.456-35.288-30.008 21.808c-2.278 1.669-5.136 2.671-8.228 2.671s-5.95-1.002-8.267-2.699l0.039 0.028-30.016-21.808 11.464 35.256c0.433 1.29 0.682 2.775 0.682 4.318 0 4.64-2.256 8.753-5.731 11.302l-0.039 0.027-30.008 21.8h37.144c6.185 0.005 11.432 4.018 13.283 9.581l0.029 0.099 11.416 35.272 11.472-35.28c1.878-5.661 7.125-9.672 13.308-9.672 0.001 0 0.003 0 0.004 0h37.096zM677.528 646.72l-19.6-60.32c-0.435-1.293-0.687-2.783-0.687-4.331 0-7.732 6.268-14 14-14 3.094 0 5.953 1.003 8.27 2.702l-0.039-0.027 51.32 37.256 51.328-37.288c2.276-1.667 5.131-2.667 8.22-2.667 7.732 0 14 6.268 14 14 0 1.545-0.25 3.032-0.713 4.422l0.028-0.099-19.6 60.328 51.312 37.28c3.516 2.575 5.773 6.688 5.773 11.328 0 7.731-6.267 13.999-13.997 14h-63.432l-19.608 60.336c-1.875 5.667-7.124 9.683-13.312 9.683s-11.437-4.016-13.284-9.584l-0.028-0.099-19.608-60.328h-63.424c-7.725-0.009-13.983-6.274-13.983-14 0-4.631 2.248-8.736 5.713-11.285l0.039-0.027zM708.048 681.328c0.001 0 0.002 0 0.004 0 6.183 0 11.43 4.011 13.28 9.573l0.028 0.099 9.432 29 9.432-29.024c1.883-5.659 7.129-9.668 13.312-9.672h30.52l-24.688-17.936c-3.515-2.576-5.772-6.69-5.772-11.331 0-1.546 0.25-3.033 0.713-4.424l-0.029 0.099 9.432-29.024-24.696 17.944c-2.278 1.669-5.136 2.671-8.228 2.671s-5.95-1.002-8.267-2.699l0.039 0.028-24.688-17.912 9.432 29.016c0.435 1.292 0.686 2.781 0.686 4.328 0 4.64-2.258 8.753-5.734 11.301l-0.039 0.027-24.688 17.936zM429.664 544l-21.832-67.2c-0.435-1.293-0.687-2.783-0.687-4.331 0-7.732 6.268-14 14-14 3.094 0 5.953 1.003 8.27 2.702l-0.039-0.027 57.144 41.52 57.152-41.52c2.279-1.675 5.14-2.68 8.236-2.68 7.728 0 13.992 6.264 13.992 13.992 0 1.553-0.253 3.047-0.72 4.443l0.029-0.099-21.824 67.2 57.136 41.512c3.516 2.575 5.773 6.688 5.773 11.328 0 7.731-6.267 13.999-13.997 14h-70.632l-21.832 67.2c-1.879 5.664-7.129 9.677-13.316 9.677s-11.437-4.013-13.288-9.579l-0.028-0.099-21.824-67.2h-70.632c-0.002 0-0.004 0-0.005 0-7.732 0-14-6.268-14-14 0-4.64 2.258-8.753 5.734-11.301l0.039-0.027zM461.552 582.84c6.186 0.002 11.434 4.016 13.284 9.581l0.028 0.099 11.656 35.872 11.656-35.88c1.884-5.662 7.134-9.672 13.32-9.672h37.712l-30.52-22.168c-3.512-2.575-5.767-6.686-5.767-11.324 0-1.549 0.251-3.039 0.716-4.431l-0.029 0.099 11.656-35.864-30.52 22.168c-2.277 1.67-5.136 2.673-8.228 2.673s-5.951-1.003-8.267-2.7l0.039 0.027-30.512-22.168 11.656 35.872c0.435 1.292 0.686 2.781 0.686 4.327 0 4.638-2.258 8.749-5.735 11.293l-0.039 0.027-30.512 22.168z" />
<glyph unicode="&#xe90c;" glyph-name="light" d="M556 768v-79.008c0-27.008-12-40-36.992-40s-36.992 12.992-36.992 40v79.008c0 26.016 12 39.008 36.992 39.008s36.992-12.992 36.992-39.008zM631.008 664l46.016 64.992c15.008 20 34.016 24 52.992 10.016s20.992-32 6.016-54.016l-46.016-64c-15.008-22.016-32.992-24-52.992-10.016-19.008 14.016-20.992 31.008-6.016 52.992zM360.992 728l47.008-64c15.008-22.016 12.992-39.008-7.008-52.992-19.008-15.008-36.992-12-52 10.016l-47.008 64c-15.008 22.016-12.992 39.008 7.008 52.992 19.008 15.008 36.992 12 52-10.016zM519.008 604c86.016 0 156-70.016 156-156 0-84.992-70.016-154.016-156-154.016s-156 68.992-156 154.016c0 86.016 70.016 156 156 156zM227.008 581.984l76-24c24.992-8 34.016-23.008 26.016-47.008-7.008-24-24-31.008-50.016-23.008l-74.016 24c-24.992 8-34.016 24-27.008 48 8 23.008 24 30.016 48.992 22.016zM736 557.984l75.008 24c26.016 8 42.016 0.992 48.992-22.016 8-24-0.992-40-27.008-47.008l-74.016-24.992c-24.992-8-40.992-0.992-48.992 23.008-7.008 24 0.992 39.008 26.016 47.008zM519.008 361.984c48 0 87.008 39.008 87.008 86.016 0 48-39.008 87.008-87.008 87.008s-86.016-39.008-86.016-87.008c0-47.008 38.016-86.016 86.016-86.016zM204.992 384.992l75.008 24c24.992 8 42.016 2.016 48.992-22.016 8-24-0.992-39.008-26.016-47.008l-76-24.992c-24.992-8-40.992-0.992-48.992 23.008-7.008 24 2.016 39.008 27.008 47.008zM759.008 408.992l75.008-24c24.992-8 34.016-23.008 26.016-47.008-7.008-24-23.008-31.008-48.992-23.008l-75.008 24.992c-26.016 8-32.992 23.008-26.016 47.008 8 24 24 30.016 48.992 22.016zM302.016 212.992l47.008 63.008c15.008 22.016 32.992 24.992 52 10.016 20-14.016 22.016-31.008 7.008-52.992l-47.008-63.008c-15.008-22.016-32.992-26.016-52.992-12-19.008 14.016-20.992 32.992-6.016 55.008zM690.016 276l46.016-63.008c15.008-22.016 12.992-40.992-6.016-55.008s-38.016-8.992-52.992 11.008l-46.016 64c-15.008 22.016-12.992 39.008 6.016 52.992 20 14.016 38.016 12 52.992-10.016zM556 208.992v-79.008c0-27.008-12-40-36.992-40s-36.992 12.992-36.992 40v79.008c0 27.008 12 40 36.992 40s36.992-12.992 36.992-40z" />
<glyph unicode="&#xe90d;" glyph-name="gemini" d="M879.616 497.707c-73.745 31.857-136.728 75.030-189.879 128.055l0.012-0.012c-73.8 73.943-128.482 166.993-155.985 271.087l-0.943 4.198c-2.44 9.37-10.825 16.175-20.8 16.175s-18.36-6.805-20.767-16.025l-0.033-0.149c-28.506-108.282-83.194-201.321-156.983-275.298l0.012 0.012c-53.143-53.006-116.125-96.177-185.966-126.532l-3.901-1.51c-27.733-11.947-56.235-21.547-85.419-28.928-9.435-2.376-16.308-10.785-16.308-20.8s6.873-18.424 16.16-20.768l0.148-0.032c29.184-7.339 57.6-16.939 85.419-28.885 73.745-31.857 136.728-75.030 189.879-128.055l-0.012 0.012c73.82-73.952 128.518-167.017 156.028-271.13l0.943-4.198c2.376-9.435 10.785-16.308 20.8-16.308s18.424 6.873 20.768 16.16l0.032 0.148c7.339 29.227 16.939 57.643 28.885 85.461 31.855 73.745 75.028 136.729 128.054 189.878l-0.011-0.011c73.956 73.802 167.020 128.485 271.129 155.985l4.199 0.943c9.37 2.44 16.175 10.825 16.175 20.8s-6.805 18.36-16.025 20.767l-0.149 0.033c-33.307 8.453-61.763 18.351-89.089 30.348l3.628-1.42z" />
<glyph unicode="&#xe90e;" glyph-name="openrouter" d="M716.97 876.5l308.054-175.146v-3.712l-311.21-173.268 0.724 90.324-35.028 1.28c-45.184 1.196-68.736-0.084-96.768-4.692-45.398-7.468-86.956-24.62-134.272-57.686l-92.416-64.214c-12.118-8.32-21.12-14.336-29.014-19.412l-21.974-13.74-16.938-9.984 16.426-9.812 22.614-14.422c20.31-13.398 49.92-33.962 115.242-79.616 47.36-33.066 88.876-50.218 134.272-57.686l12.8-1.92c29.612-3.882 58.668-4.010 120.534-1.408l0.938 92.118 308.054-175.146v-3.712l-311.21-173.312 0.596 79.444-27.092-0.938c-59.136-1.792-91.18-0.086-133.888 6.912-72.278 11.946-139.094 39.51-208.256 87.85l-92.076 64c-7.3 5.199-17.801 12.205-28.448 19.002l-3.764 2.246-19.926 11.948c-10.76 6.2-21.57 12.314-32.426 18.346-38.444 21.376-138.498 47.574-162.518 47.574v180.394l5.974-0.17c24.064 0.298 124.16 26.538 162.516 47.956l43.35 24.748 18.688 11.69c18.262 11.946 45.738 30.976 114.602 79.062 69.164 48.34 135.936 75.946 208.256 87.85 49.152 8.106 84.224 9.088 162.732 5.888l0.852 81.366z" />
<glyph unicode="&#xe90f;" glyph-name="chatgpt" d="M919.467 533.163c7.682 22.029 12.119 47.421 12.119 73.851 0 43.622-12.087 84.42-33.094 119.229l0.581-1.037c-51.925 89.173-156.245 135.083-258.133 113.493-43.82 48.379-106.875 78.642-176.999 78.642-0.639 0-1.277-0.003-1.915-0.008l0.098 0.001c-104.149 0.213-196.565-65.963-228.608-163.755-68.070-13.966-124.421-55.566-157.818-112.299l-0.604-1.109c-20.344-33.99-32.375-74.984-32.375-118.788 0-61.239 23.513-116.986 62.004-158.706l-0.146 0.16c-7.697-22.050-12.143-47.467-12.143-73.924 0-43.609 12.080-84.397 33.076-119.2l-0.581 1.038c51.925-89.173 156.245-135.040 258.133-113.493 43.79-48.353 106.805-78.599 176.885-78.599 0.664 0 1.327 0.003 1.99 0.008l-0.102-0.001c104.235-0.256 196.693 65.963 228.736 163.84 68.117 13.963 124.504 55.6 157.903 112.383l0.604 1.111c20.289 33.958 32.285 74.902 32.285 118.647 0 61.242-23.511 116.993-62 158.719l0.147-0.161v-0.043zM561.877 40.021c-0.128 0-0.28-0.001-0.431-0.001-43.31 0-83.030 15.368-114.006 40.948l0.303-0.243c1.451 0.768 3.968 2.133 5.632 3.157l189.44 107.947c9.334 5.282 15.531 15.144 15.531 26.453 0 0.045 0 0.090 0 0.135v-0.007 263.509l80.085-45.611c0.853-0.427 1.408-1.237 1.536-2.133v-218.24c-0.128-97.024-79.787-175.701-178.091-175.915zM178.859 201.387c-15.012 25.119-23.887 55.407-23.887 87.768 0 10.644 0.96 21.064 2.799 31.178l-0.16-1.058c1.365-0.853 3.84-2.347 5.589-3.328l189.44-107.947c9.6-5.547 21.504-5.547 31.147 0l231.253 131.755v-91.221c0.001-0.034 0.002-0.075 0.002-0.116 0-0.943-0.45-1.781-1.147-2.311l-0.007-0.005-191.488-109.056c-85.291-48.469-194.219-19.627-243.499 64.427h-0.043zM128.981 609.451c21.070 35.495 53.2 62.532 91.572 76.66l1.228 0.396-0.085-6.443v-215.893c0-0.043 0-0.095 0-0.146 0-11.316 6.196-21.185 15.381-26.4l0.15-0.078 231.253-131.712-80.043-45.653c-0.436-0.284-0.97-0.452-1.543-0.452-0.414 0-0.808 0.088-1.163 0.246l0.018-0.007-191.531 109.184c-85.12 48.64-114.304 156.075-65.28 240.213h0.043zM786.773 458.411l-231.253 131.755 80.043 45.568c0.445 0.3 0.993 0.478 1.583 0.478 0.399 0 0.779-0.082 1.124-0.229l-0.019 0.007 191.531-109.099c85.248-48.64 114.475-156.245 65.237-240.341-21.089-35.475-53.192-62.513-91.527-76.7l-1.23-0.399v222.336c0 0.045 0 0.099 0 0.152 0 11.292-6.178 21.141-15.339 26.351l-0.15 0.078zM866.432 576.725c-0.711 0.486-2.55 1.588-4.404 2.668l-1.228 0.66-189.44 107.947c-4.463 2.612-9.828 4.154-15.552 4.154s-11.089-1.542-15.7-4.234l0.148 0.080-231.253-131.755v91.221c-0.001 0.034-0.002 0.075-0.002 0.116 0 0.943 0.45 1.781 1.147 2.311l0.007 0.005 191.445 109.013c85.333 48.512 194.347 19.627 243.499-64.555 20.779-35.541 28.331-77.184 21.291-117.632h0.043zM365.483 414.165l-80.085 45.568c-0.835 0.415-1.423 1.216-1.535 2.163l-0.001 0.013v218.24c0.043 97.152 79.915 175.872 178.389 175.787 41.643 0 81.92-14.421 113.963-40.704-1.451-0.768-3.925-2.133-5.589-3.115l-189.44-107.947c-9.358-5.276-15.574-15.15-15.574-26.477 0-0.037 0-0.074 0-0.11v0.006l-0.128-263.381v-0.085zM409.003 506.667l102.997 58.667 102.997-58.667v-117.333l-102.997-58.667-103.040 58.667v117.333z" />
<glyph unicode="&#xe910;" glyph-name="ai" d="M768 704v-512h-512v512h512zM471.499 576h-49.863l-94.668-256h44.985l17.873 50.046h113.324l17.489-50.046h47.695l-96.836 256zM648.188 576h-44.805v-256h44.805v256zM446.189 533.049l44.629-127.715h-88.548l43.919 127.715zM810.667 320h85.333v-85.333h-85.333v85.333zM298.667 149.333h85.333v-85.333h-85.333v85.333zM469.333 149.333h85.333v-85.333h-85.333v85.333zM298.667 832h85.333v-85.333h-85.333v85.333zM640 149.333h85.333v-85.333h-85.333v85.333zM469.333 832h85.333v-85.333h-85.333v85.333zM640 832h85.333v-85.333h-85.333v85.333zM810.667 490.667h85.333v-85.333h-85.333v85.333zM128 320h85.333v-85.333h-85.333v85.333zM810.667 661.333h85.333v-85.333h-85.333v85.333zM128 490.667h85.333v-85.333h-85.333v85.333zM128 661.333h85.333v-85.333h-85.333v85.333z" />
<glyph unicode="&#xe911;" glyph-name="plus" d="M544 480v266.667c0 8.487-3.371 16.626-9.374 22.627-5.999 6.001-14.14 9.373-22.626 9.373s-16.627-3.372-22.626-9.373c-6.003-6.001-9.374-14.141-9.374-22.627v-266.667h-266.667c-8.487 0-16.626-3.371-22.627-9.374-6.001-5.999-9.373-14.14-9.373-22.626s3.372-16.627 9.373-22.626c6.001-6.003 14.141-9.374 22.627-9.374h266.667v-266.667c0.111-8.452 3.516-16.529 9.493-22.507s14.054-9.382 22.507-9.493c8.486 0 16.627 3.371 22.626 9.374 6.003 5.999 9.374 14.14 9.374 22.626v266.667h266.667c8.486 0 16.627 3.371 22.626 9.374 6.003 5.999 9.374 14.14 9.374 22.626-0.111 8.452-3.516 16.529-9.493 22.507s-14.054 9.382-22.507 9.493h-266.667z" />
<glyph unicode="&#xe912;" glyph-name="thumb-up" d="M968.384 459.616c-33.248 31.648-79.136 39.36-119.648 46.048-6.368 1.088-12.672 2.144-18.848 3.264-4.576 1.216-10.4 2.528-16.32 3.936-54.016 12.544-92.192 24.8-92.32 69.024-0.128 29.12 9.504 56.064 19.616 84.672 11.616 32.736 23.648 66.656 21.76 106.112-3.68 70.336-33.504 131.52-79.936 163.776-18.496 14.784-42.816 23.552-66.016 23.552-34.464 0-60.192-18.752-70.656-51.392-7.36-22.016-6.112-43.424-4.8-66.080 0.256-5.568 0.672-11.296 0.8-17.248 1.312-31.2-2.432-56.992-11.552-81.344-17.28-48.672-51.936-94.016-80.224-128.192l-15.456-19.424c-21.632-27.296-43.968-55.52-69.376-78.176-12.48-9.856-25.792-13.44-42.912-17.12-4.832-0.32-299.040-3.232-299.040-3.232v-432.384c0 0 230.752 0.288 243.712 1.056 11.392 0.672 22.368 1.312 32.416 1.312h4.672c9.504-2.016 19.104-3.040 29.12-4.16 8.896-0.928 18.112-1.952 27.776-3.776 10.848-2.080 22.080-12.672 32.96-22.976 6.272-5.952 12.448-11.648 18.56-16 6.24-4.384 12.256-8.768 18.432-13.248 18.848-13.696 38.4-27.968 60.544-37.888 27.328-11.744 57.504-15.616 86.752-19.36 14.208-1.888 28.32-3.584 41.824-6.304 8.832-0.992 16.448-1.888 24.128-2.752 22.848-2.56 46.528-5.312 70.272-5.312 16 0 30.112 1.28 43.168 3.872 46.752 13.28 76.512 51.2 76.544 94.72 23.744 9.472 44.992 29.312 58.432 54.72 12 22.72 16.032 47.040 11.68 68.576 45.12 29.504 68.448 84.864 55.872 132.384 19.936 13.728 33.696 36.672 38.432 64.64 6.624 38.688-5.312 79.808-30.368 104.704zM937.92 372.992c-1.536-13.312-7.616-29.76-27.872-33.44-10.912-3.136-18.208-9.504-21.728-18.4-4.256-10.784-2.688-24.288 4.32-35.84 7.328-8.672 8.48-26.88 4.128-42.72-5.952-18.816-19.68-32.16-40.928-39.328-9.056-1.12-17.184-7.424-21.632-16.992-5.056-10.944-3.936-22.752 3.008-30.944 6.016-8.64 4.864-28.064-3.392-44.064-6.592-12.64-15.968-20.224-25.088-20.224-1.28 0-2.56 0.16-3.872 0.48l-1.44 0.288h-1.504c-11.168 0-25.728-4.864-32.896-16.032-4.736-7.328-5.408-16.192-1.824-24.448 4.448-11.936 3.968-25.568-1.568-34.688-4-6.688-10.368-10.56-19.008-11.68-15.296-4.064-30.496-4.064-45.248-4.064-43.872 3.936-90.432 8.192-135.392 16.288l-21.44 4.832c-11.136 2.496-22.144 4.896-31.936 7.36-16.096 7.936-34.112 21.536-51.488 34.72-5.792 4.352-11.424 8.672-16.992 12.672-4.064 3.232-8.48 7.392-12.96 11.616-11.456 10.752-24.288 22.88-40.288 27.296-15.040 9.28-31.072 9.28-44.064 9.28-41.92 3.872-61.696 19.040-71.904 55.744-10.048 36.992-10.4 79.264-9.824 115.872l0.128 8.192c0.32 34.496 0.864 77.664 18.56 108.992 8.8 14.944 26.336 18.112 46.656 22.016 28.096 4.576 50.208 13.824 70.88 29.696 2.912 1.056 5.952 3.232 8.192 7.328 8.416 5.76 15.296 14.176 21.568 21.76 33.28 36.096 63.872 73.792 87.936 108.416 5.6 8.32 11.232 16.32 16.768 24.256 25.568 36.544 52.064 74.336 63.328 120.896 8 34.272 7.232 63.936 5.44 99.104l-0.256 5.248c-1.376 21.408-1.696 44.448 10.368 46.144 0.832 0.128 1.856 0.256 2.816 0.256 19.584 0 44.32-24.704 59.008-47.584 15.328-29.056 23.328-59.488 22.496-87.040-0.8-28.608-10.112-55.68-20-84.384-11.648-33.888-23.712-68.992-20.928-107.168 4-52 45.28-96.96 102.72-111.872 16.768-4.352 34.592-7.264 51.776-10.048 32.064-5.216 65.184-10.624 92.256-25.792 17.632-8.864 36.448-27.52 33.12-52z" />
<glyph unicode="&#xe913;" glyph-name="coding" d="M91.429 246.857v585.143h841.143v-585.143h-841.143zM82.286 923.429c-45.445 0-82.286-36.841-82.286-82.286v-603.429c0-45.444 36.841-82.286 82.286-82.286h302.554l-40.229-100.571h-52.040c-25.247 0-45.714-20.465-45.714-45.714s20.467-45.714 45.714-45.714h438.857c25.249 0 45.714 20.465 45.714 45.714s-20.465 45.714-45.714 45.714h-52.040l-40.229 100.571h302.554c45.444 0 82.286 36.842 82.286 82.286v603.429c0 45.445-36.842 82.286-82.286 82.286h-859.429zM358.893 605.291c19.169 16.431 21.389 45.291 4.959 64.459s-45.291 21.389-64.459 4.959l-128-109.714c-10.217-8.757-16.056-21.571-15.963-35.027s6.11-26.187 16.447-34.801l109.714-91.429c19.396-16.163 48.222-13.542 64.385 5.853s13.542 48.222-5.853 64.385l-68.163 56.801 86.932 74.514zM678.024 669.266c16.163 19.395 44.989 22.016 64.383 5.853l109.714-91.429c10.335-8.615 16.355-21.346 16.45-34.801s-5.749-26.269-15.967-35.027l-127.997-109.714c-19.169-16.43-48.029-14.21-64.459 4.959s-14.211 48.029 4.958 64.459l86.933 74.514-68.163 56.801c-19.395 16.163-22.016 44.989-5.853 64.385zM610.226 689.544c7.984 23.951-4.961 49.84-28.913 57.825s-49.84-4.961-57.825-28.913l-109.714-329.143c-7.984-23.951 4.961-49.84 28.913-57.825s49.84 4.961 57.825 28.913l109.714 329.143z" />
<glyph unicode="&#xe914;" glyph-name="twitter" d="M806.4 912h157.056l-343.040-393.088 403.584-534.912h-315.968l-247.488 324.48-283.2-324.48h-157.12l366.912 420.48-387.136 507.52h324.032l223.68-296.512 258.752 296.512zM751.36 78.208h87.040l-561.728 744.512h-93.312z" />
<glyph unicode="&#xe915;" glyph-name="instagram" d="M755.81 955.52l8.059-0.128c141.857-4.384 255.522-120.692 255.651-263.587v-487.615l-0.128-8.059c-4.384-141.857-120.692-255.522-263.587-255.651l-495.674 0.128c-141.857 4.384-255.522 120.692-255.651 263.587v487.615l0.128 8.059c4.384 141.857 120.692 255.522 263.587 255.651zM755.81 891.337l-494.934-0.132c-106.807-3.849-192.213-91.649-192.213-199.396v-487.619l0.132-7.315c3.849-106.807 91.649-192.213 199.396-192.213l494.934 0.132c106.807 3.849 192.213 91.649 192.213 199.396v487.619l-0.132 7.315c-3.849 106.807-91.649 192.213-199.396 192.213zM511.996 736.091l8.491-0.13c155.122-4.628 279.461-131.755 279.604-287.965 0-159.104-128.983-288.087-288.091-288.087s-288.091 128.983-288.091 288.091c0 156.267 124.418 283.475 279.597 287.969zM512 671.909c-123.661 0-223.909-100.247-223.909-223.909s100.247-223.909 223.909-223.909 223.909 100.247 223.909 223.909-100.247 223.909-223.909 223.909zM792.381 797.044c24.456 0 44.282-19.826 44.282-44.282s-19.826-44.282-44.282-44.282c-24.456 0-44.282 19.826-44.282 44.282s19.826 44.282 44.282 44.282z" />
<glyph unicode="&#xe916;" glyph-name="wallet-open" d="M1016 400.216h-336c-4.424 0-8-3.584-8-8v-128c0-4.416 3.576-8 8-8h336c4.424 0 8 3.584 8 8v128c0 4.416-3.576 8-8 8zM744.104 296.512c-17.672 0-32 14.336-32 32 0 17.672 14.328 32 32 32s32-14.328 32-32c0-17.664-14.328-32-32-32zM888 208.216v-151.712c0-22.056-17.448-40.288-39.504-40.288h-808c-0.056 0-0.16 0-0.2 0-14.512 0-24.296 3.944-40.296 10.216v-17.92c0-39.704 32.408-72.296 72.104-72.296h840c39.696 0 71.896 32.592 71.896 72.296v199.704h-96zM920 725.096v51.416c0 35.64-21.264 66.312-51.816 80.112l-19.832 84.76c-1.456 6.192-5.296 11.56-10.704 14.92-5.416 3.36-11.936 4.256-18.144 2.824l-403.16-94.912h-328.216c-48.528 0-88.128-39.176-88.128-87.704v-100.28c0-1.216 0.44-2.592 0.44-3.864 0-22.056 18.008-40.152 40.056-40.152 0.032 0 0.048 0 0.080 0h807.92c22.056 0 39.504-17.656 39.504-39.712v-144.288h96v192.296c0 40.192-24 74.112-64 84.584zM88.128 816.216h123.992l-163.84-38.504c0.8 21.344 18.296 38.504 39.848 38.504zM88.128 728.216c-6.936 0-13.376 2.088-19.072 5.208l738.072 173.4 41.808-178.608h-760.808zM680.104 448.216h159.896v136h-799.504c-0.056 0-0.16 0-0.2 0-14.512 0-24.296 3.944-40.296 10.216v-485.968c0-1.296 0.456-2.752 0.456-4.104 0-22.048 17.992-40.144 40.040-40.144 0.032 0 0.048 0 0.080 0h799.424v144h-159.896c-30.888 0-56.104 25.424-56.104 56.296v128c0 30.872 25.216 55.704 56.104 55.704z" />
<glyph unicode="&#xe917;" glyph-name="wallet-in" d="M940 320h-264c-4.424 0-8-3.584-8-8v-112c0-4.416 3.576-8 8-8h264c4.424 0 8 3.584 8 8v112c0 4.416-3.576 8-8 8zM742.8 224.376c-17.672 0-32 14.336-32 32 0 17.672 14.328 32 32 32s32-14.328 32-32c0-17.664-14.328-32-32-32zM812 144v-88.016c0-22.048-13.688-39.984-35.736-39.984h-655.784c-0.048 0-2.144 0.016-2.192 0.016-14.504 0.024-26.288 19.136-42.288 25.408v-17.92c0-39.704 36.392-87.504 76.096-87.504h687.768c39.704 0 68.144 32.296 68.144 72v136h-96.008zM678.8 368h87.664l0.336 96h-575.376c-70.984 0-73.080 0.328-73.136 0.328-14.504 0.016-26.288 3.944-42.288 10.216v-351.096c0-1.296 2.448-2.608 2.448-3.952 0-22.064 19.96-55.504 42.024-55.504 0.024 0 0.072 0 0.096 0h643.432v80l-85.2 0.008c-30.88 0-58.8 25.752-58.8 56.624v111.504c0 30.872 27.912 55.872 58.8 55.872zM695.6 763.456c-1.32 2.792-4.128 4.544-7.224 4.544h-68.376v184c0 4.424-3.576 8-8 8h-204.296c-4.424 0-11.704-3.576-11.704-8v-184h-60.168c-3.096 0-5.912-1.744-7.232-4.544s-0.912-6.072 1.040-8.472l176.288-215.056c1.512-1.848 3.776-2.928 6.184-2.928 2.384 0 4.664 1.072 6.184 2.92l176.264 215.048c1.952 2.4 2.36 5.696 1.040 8.488zM449.608 608l56.312-68.384c1.512-1.848 3.784-2.776 6.184-2.776 2.392 0 4.664 0.84 6.184 2.696l56.304 68.464h-124.984zM338.144 744l39.344-48h269.232l39.344 48zM844 605.208v51.416c0 48.528-35.608 87.376-84.144 87.376h-17.752c-2.064-8-5.512-14.080-10.424-20.064l-22.896-27.936h51.080c22.056 0 36.136-17.32 36.136-39.376v-48.624h-159.344l-78.688-96h218.296c22.048 0 35.736-17.328 35.736-39.384v-104.616h96v152.624c0 40.2-24 74.112-64 84.584zM387.544 608h-219.44c-22.040 0-44.104 18.568-44.104 40.624v8c0 22.056 22.064 39.376 44.112 39.376h147.312l-22.888 27.92c-4.912 5.984-8.368 12.080-10.432 20.080h-113.992c-48.52 0-92.112-38.848-92.112-87.376v-100.28c0-1.216 2.432-2.76 2.432-4.032 0-22.056 20.008-40.312 42.056-40.312 0.032 0 0.056 0 0.080 0h345.672l-78.696 96z" />
<glyph unicode="&#xe918;" glyph-name="wallet" d="M1016 448h-336c-4.424 0-8-3.576-8-8v-128c0-4.424 3.576-8 8-8h336c4.424 0 8 3.576 8 8v128c0 4.424-3.576 8-8 8zM744.104 344c-17.672 0-32 14.336-32 32 0 17.672 14.328 32 32 32s32-14.328 32-32c0-17.664-14.328-32-32-32zM888 256v-152.008c0-22.056-17.448-39.992-39.504-39.992h-808c-0.056 0-0.16 0.016-0.2 0.016-14.512 0.016-24.296 3.632-40.296 9.904v-17.92c0-39.704 32.408-72 72.104-72h840c39.696 0 71.896 32.296 71.896 72v200h-96zM920 772.584v51.416c0 48.52-39.376 88-87.896 88h-743.976c-48.528 0-88.128-39.48-88.128-88v-100.28c0-1.224 0.44-2.448 0.44-3.72 0-22.056 18.008-40 40.056-40 0.032 0 0.048 0 0.080 0h807.92c22.056 0 39.504-17.952 39.504-40.008v-143.992h96v192c0 40.192-24 74.112-64 84.584zM872 776h-783.872c-22.056 0-40.128 17.944-40.128 40v8c0 22.056 18.072 40 40.128 40h743.976c22.056 0 39.896-17.944 39.896-40v-48zM680.104 496h159.896v136h-799.504c-0.056 0-0.16 0.016-0.2 0.016-14.512 0.016-24.296 3.632-40.296 9.904v-485.968c0-1.296 0.456-2.6 0.456-3.952 0-22.056 17.992-40 40.040-40 0.032 0 0.048 0 0.080 0h799.424v144h-159.896c-30.888 0-56.104 25.128-56.104 56v128c0 30.872 25.216 56 56.104 56z" />
<glyph unicode="&#xe919;" glyph-name="mapbox" d="M512 960c-282.795 0-512-229.205-512-512s229.205-512 512-512 512 229.205 512 512-229.205 512-512 512zM755.029 322.432c-175.061-175.061-487.808-119.211-487.808-119.211s-56.448 312.149 119.211 487.808c97.323 97.323 258.603 93.312 360.533-8.064s105.429-263.168 8.064-360.533zM570.752 659.925l-50.091-103.083-103.083-50.091 103.083-50.091 50.091-103.083 50.091 103.083 103.083 50.091-103.083 50.091-50.091 103.083z" />
<glyph unicode="&#xe91a;" glyph-name="google" d="M1014.863 550.202h-492.044c0-51.171 0-153.514-0.314-204.685h285.126c-10.926-51.171-49.665-122.811-104.4-158.887-0.052 0.051-0.105-0.307-0.209-0.255-72.772-48.050-168.807-58.95-240.115-44.621-111.771 22.208-200.226 103.263-236.141 206.22 0.209 0.154 0.366 1.586 0.523 1.689-22.48 63.862-22.48 149.369 0 200.54h-0.052c28.962 94.052 120.083 179.867 232.012 203.354 90.023 19.087 191.6-1.586 266.306-71.486 9.933 9.722 137.492 134.273 147.059 144.405-255.223 231.14-663.883 149.829-816.798-148.653h-0.052c0 0 0.052 0-0.261-0.563v0c-75.647-146.606-72.51-319.359 0.523-458.955-0.209-0.153-0.366-0.255-0.523-0.409 66.184-128.44 186.634-226.945 331.759-264.453 154.169-40.425 350.37-12.793 481.798 106.078 0.052-0.051 0.105-0.102 0.157-0.154 111.353 100.296 180.674 271.156 145.648 490.834z" />
<glyph unicode="&#xe91b;" glyph-name="close-delete" d="M851.52 896h-507.84c-6.847-0.083-13.461-0.895-19.825-2.361l0.625 0.121c-8.858 1.323-19.165 2.133-29.64 2.239l-0.12 0.001c-0.146 0-0.318 0.001-0.491 0.001-116.996 0-211.84-94.844-211.84-211.84 0-102.794 73.215-188.487 170.343-207.777l1.348-0.223v-386.56c0.181-49.412 40.188-89.419 89.583-89.6h507.857c49.485 0 89.6 40.115 89.6 89.6v716.8c0 49.485-40.115 89.6-89.6 89.6v0zM142.72 684.16c0 84.124 68.196 152.32 152.32 152.32s152.32-68.196 152.32-152.32c0-84.124-68.196-152.32-152.32-152.32-0.112 0-0.225 0-0.337 0h0.017c0 0 0 0 0 0-83.947 0-152 68.053-152 152 0 0.112 0 0.225 0 0.337v-0.017zM881.28 89.6c0-16.436-13.324-29.76-29.76-29.76v0h-507.84c-16.436 0-29.76 13.324-29.76 29.76v0 384c52.412 4.97 98.541 28.531 132.406 63.922l0.074 0.078c1.153-0.147 2.487-0.231 3.84-0.231s2.687 0.084 3.996 0.247l-0.156-0.016h288c15.376 0 27.84 12.464 27.84 27.84s-12.464 27.84-27.84 27.84h-256c13.724 27.238 21.76 59.365 21.76 93.369 0 59.691-24.763 113.599-64.577 152.010l-0.063 0.061h409.6c16.436 0 29.76-13.324 29.76-29.76v0zM333.44 603.2c5.428-5.355 12.888-8.662 21.12-8.662s15.692 3.307 21.123 8.665l-0.003-0.003c5.355 5.428 8.662 12.888 8.662 21.12s-3.307 15.692-8.665 21.123l-38.717 38.717 38.72 38.4c5.355 5.428 8.662 12.888 8.662 21.12s-3.307 15.692-8.665 21.123l0.003-0.003c-5.356 5.511-12.839 8.93-21.12 8.93s-15.764-3.419-21.113-8.923l-0.007-0.007-38.72-38.4-38.72 38.4c-5.356 5.511-12.839 8.93-21.12 8.93s-15.764-3.419-21.113-8.923l-0.007-0.007c-5.355-5.428-8.662-12.888-8.662-21.12s3.307-15.692 8.665-21.123l-0.003 0.003 38.72-38.4-38.72-38.72c-5.355-5.428-8.662-12.888-8.662-21.12s3.307-15.692 8.665-21.123l-0.003 0.003c5.527-5.188 12.925-8.439 21.081-8.639l0.039-0.001c0.045 0 0.099 0 0.153 0 8.18 0 15.589 3.3 20.969 8.642l38.718 38.718zM741.12 475.84h-288c-15.376 0-27.84-12.464-27.84-27.84s12.464-27.84 27.84-27.84h288c15.376 0 27.84 12.464 27.84 27.84s-12.464 27.84-27.84 27.84v0zM741.12 360.96h-288c-15.376 0-27.84-12.464-27.84-27.84s12.464-27.84 27.84-27.84h288c15.376 0 27.84 12.464 27.84 27.84s-12.464 27.84-27.84 27.84v0z" />
<glyph unicode="&#xe91c;" glyph-name="rejecte" d="M512.006 960c-282.315 0-511.994-229.692-511.994-512.025 0.028-282.305 229.707-511.975 511.994-511.975 282.308 0 511.981 229.673 511.981 511.981 0 282.327-229.673 512.019-511.981 512.019zM512.006 866.719c98.672 0 189.463-34.334 261.109-91.655l-588.176-588.17c-57.309 71.64-91.636 162.424-91.645 261.084 0 230.895 187.833 418.741 418.713 418.741zM512.006 29.281c-98.669 0-189.466 34.334-261.115 91.655l588.182 588.167c57.309-71.649 91.636-162.446 91.636-261.121-0.003-230.873-187.83-418.7-418.704-418.7z" />
<glyph unicode="&#xe91d;" glyph-name="active" d="M910.222-7.111h-910.222v910.222h697.837v-91.022h-606.815v-728.178h758.519v333.748h91.022v-424.77zM169.908 463.929l68.532 68.532 205.634-205.634 518.827 518.827 68.684-68.38-587.511-587.511z" />
<glyph unicode="&#xe91e;" glyph-name="recycle" d="M363.919 960h296.164l119.309-209.814 112.013 64.669 32-55.426-70.278-262.277-262.276 70.277-32 55.426 109.688 63.329-82.916 145.816h-147.243l-35.465-62.366-110.854 64.001 71.859 126.365zM842.554 380.183l34.496-60.669-70.298-127.514h-166.753v128.003h-64l-192-191.997 192-192h64v127.994h242.356l141.389 256.485-70.342 123.699-110.848-64.001zM217.245 192h70.754v-128h-146.351l-141.398 256.485 117.804 207.16-113.461 65.507 32 55.425 262.277 70.277 70.276-262.277-32-55.425-108.239 62.492-81.961-144.131 70.298-127.514z" />
<glyph unicode="&#xe91f;" glyph-name="resources" d="M512-21.333l-512 256 209.067 106.667-209.067 106.667 209.067 106.667-209.067 106.667 512 256 512-256-209.067-106.667 209.067-106.667-209.067-106.667 209.067-106.667-512-256zM187.733 234.667l328.533-166.4 324.267 166.4-119.467 59.733-209.067-102.4-209.067 106.667-115.2-64zM187.733 448l328.533-166.4 324.267 166.4-119.467 59.733-209.067-106.667-209.067 106.667-115.2-59.733zM187.733 661.333l328.533-166.4 324.267 166.4-328.533 162.133-324.267-162.133z" />
<glyph unicode="&#xe920;" glyph-name="coupon" d="M919.36 513.44h32.64c8.837 0 16 7.163 16 16v0 130.4c-0.063 17.824-14.496 32.257-32.314 32.32h-847.366c-17.824-0.063-32.257-14.496-32.32-32.314v-130.406c0-8.837 7.163-16 16-16v0h32.64c36.142 0 65.44-29.298 65.44-65.44s-29.298-65.44-65.44-65.44v0h-32.64c-8.837 0-16-7.163-16-16v0-130.4c0.063-17.824 14.496-32.257 32.314-32.32h847.366c17.824 0.063 32.257 14.496 32.32 32.314v130.406c0 8.837-7.163 16-16 16v0h-32.64c-36.142 0-65.44 29.298-65.44 65.44s29.298 65.44 65.44 65.44v0zM919.36 350.56h16.64l-0.32-114.72-847.68 0.32v114.4h16.64c53.815 0 97.44 43.625 97.44 97.44s-43.625 97.44-97.44 97.44v0h-16.64l0.32 114.72 847.68-0.32v-114.4h-16.64c-53.815 0-97.44-43.625-97.44-97.44s43.625-97.44 97.44-97.44v0zM512 626.976c-8.837 0-16-7.163-16-16v0-32.608c0-8.837 7.163-16 16-16s16 7.163 16 16v0 32.608c0 8.837-7.163 16-16 16v0zM512 333.632c-8.837 0-16-7.163-16-16v0-32.608c0-8.837 7.163-16 16-16s16 7.163 16 16v0 32.608c0 8.837-7.163 16-16 16v0zM512 431.408c-8.837 0-16-7.163-16-16v0-32.592c0-8.837 7.163-16 16-16s16 7.163 16 16v0 32.592c0 8.837-7.163 16-16 16v0zM512 529.184c-8.837 0-16-7.163-16-16v0-32.592c0-8.837 7.163-16 16-16s16 7.163 16 16v0 32.592c0 8.837-7.163 16-16 16v0zM267.552 529.776h65.248c8.837 0 16 7.163 16 16s-7.163 16-16 16v0h-65.248c-8.837 0-16-7.163-16-16s7.163-16 16-16v0zM267.552 432h97.776c8.837 0 16 7.163 16 16s-7.163 16-16 16v0h-97.776c-8.837 0-16-7.163-16-16s7.163-16 16-16v0zM397.936 366.224h-130.384c-8.837 0-16-7.163-16-16s7.163-16 16-16v0h130.384c8.837 0 16 7.163 16 16s-7.163 16-16 16v0zM626.080 561.76c-26.785-0.046-48.48-21.769-48.48-48.56 0-26.819 21.741-48.56 48.56-48.56 26.791 0 48.514 21.695 48.56 48.476v0.004c-0.045 26.845-21.795 48.595-48.636 48.64h-0.004zM626.080 496.64c-9.111 0.046-16.48 7.442-16.48 16.56 0 9.146 7.414 16.56 16.56 16.56s16.56-7.414 16.56-16.56c0-0.028 0-0.056 0-0.084v0.004c-0.063-9.115-7.467-16.48-16.592-16.48-0.017 0-0.034 0-0.051 0h0.003zM756.48 431.36c-0.024 0-0.052 0-0.080 0-26.819 0-48.56-21.741-48.56-48.56s21.741-48.56 48.56-48.56c26.819 0 48.56 21.741 48.56 48.56 0 0.028 0 0.056 0 0.084v-0.004c-0.064 26.749-21.731 48.416-48.474 48.48h-0.006zM756.48 366.24c-9.146 0-16.56 7.414-16.56 16.56s7.414 16.56 16.56 16.56v0c9.146 0 16.56-7.414 16.56-16.56s-7.414-16.56-16.56-16.56v0zM784 540.8c-2.895 2.894-6.895 4.685-11.312 4.685s-8.417-1.79-11.312-4.685l-162.976-162.976c-2.89-2.897-4.676-6.896-4.676-11.312 0-8.848 7.173-16.020 16.020-16.020 4.432 0 8.443 1.8 11.344 4.708v0l162.912 162.976c2.894 2.895 4.685 6.895 4.685 11.312s-1.79 8.417-4.685 11.312v0z" />
<glyph unicode="&#xe921;" glyph-name="wallet1" d="M853.333 320c23.565 0 42.667 19.102 42.667 42.667s-19.102 42.667-42.667 42.667c-23.565 0-42.667-19.102-42.667-42.667s19.102-42.667 42.667-42.667zM715.733 917.956c73.254 22.384 149.636-24.153 163.341-99.516l14.204-78.129c51.132-16.78 88.055-64.9 88.055-121.644v-117.926c26.185-23.437 42.667-57.498 42.667-95.407v-85.333c0-37.909-16.482-71.97-42.667-95.407v-117.926c0-70.694-57.306-128-128-128h-682.667c-70.692 0-128 57.306-128 128v512c0 63.441 46.154 116.103 106.717 126.239l566.35 173.051zM896 277.333c23.565 0 42.667 19.102 42.667 42.667v85.333c0 23.565-19.102 42.667-42.667 42.667h-128c-23.565 0-42.667-19.102-42.667-42.667v-85.333c0-23.565 19.102-42.667 42.667-42.667h128zM896 192v-85.333c0-23.565-19.102-42.667-42.667-42.667h-682.667c-23.564 0-42.667 19.102-42.667 42.667v512c0 23.564 19.103 42.667 42.667 42.667h682.667c23.467 0 42.505-18.942 42.667-42.369v-85.631h-128c-70.694 0-128-57.306-128-128v-85.333c0-70.694 57.306-128 128-128h128zM797.67 806.099l10.487-59.433h-381.491l316.723 92.885c24.461 7.337 49.843-8.306 54.281-33.452z" />
<glyph unicode="&#xe922;" glyph-name="sales" d="M136.948 51.189c5.657 0 10.24 4.583 10.24 10.24v287.816c0 5.657-4.583 10.24-10.24 10.24h-81.92c-0.001 0-0.001 0-0.002 0-5.654 0-10.238-4.584-10.238-10.238 0-0.001 0-0.001 0-0.002v0-287.816c0-5.657 4.583-10.24 10.24-10.24h81.92zM136.948 10.229h-81.92c-28.278 0-51.2 22.922-51.2 51.2v287.816c0 28.278 22.922 51.2 51.2 51.2h81.92c28.278 0 51.2-22.922 51.2-51.2v-287.816c0-28.278-22.922-51.2-51.2-51.2zM415.362 51.189c5.657 0 10.24 4.583 10.24 10.24v347.249c0 5.657-4.583 10.24-10.24 10.24h-81.92c-0.001 0-0.001 0-0.002 0-5.654 0-10.238-4.584-10.238-10.238 0-0.001 0-0.001 0-0.002v0-347.249c0-5.657 4.583-10.24 10.24-10.24h81.92zM415.362 10.229h-81.92c-28.278 0-51.2 22.922-51.2 51.2v347.249c0 28.278 22.922 51.2 51.2 51.2h81.92c28.278 0 51.2-22.922 51.2-51.2v-347.249c0-28.278-22.922-51.2-51.2-51.2zM693.776 50.571c5.657 0 10.24 4.583 10.24 10.24v406.692c0 5.651-4.588 10.24-10.24 10.24h-81.92c-5.652 0-10.24-4.589-10.24-10.24v-406.692c0-5.657 4.583-10.24 10.24-10.24h81.92zM693.776 9.611h-81.92c-28.278 0-51.2 22.922-51.2 51.2v406.692c0 28.271 22.924 51.2 51.2 51.2h81.92c28.276 0 51.2-22.929 51.2-51.2v-406.692c0-28.278-22.922-51.2-51.2-51.2zM972.19 50.569c5.657 0 10.24 4.583 10.24 10.24v457.892c0 5.657-4.583 10.24-10.24 10.24h-81.92c-0.001 0-0.001 0-0.002 0-5.654 0-10.238-4.584-10.238-10.238 0-0.001 0-0.001 0-0.002v0-457.892c0-5.657 4.583-10.24 10.24-10.24h81.92zM972.19 9.609h-81.92c-28.278 0-51.2 22.922-51.2 51.2v457.892c0 28.278 22.922 51.2 51.2 51.2h81.92c28.278 0 51.2-22.922 51.2-51.2v-457.892c0-28.278-22.922-51.2-51.2-51.2zM965.985 851.511c-288.606-162.599-610.717-258.522-946.74-278.847-11.29-0.683-19.889-10.389-19.206-21.679s10.389-19.889 21.679-19.206c342.256 20.702 670.39 118.419 964.372 284.046 9.854 5.552 13.342 18.041 7.79 27.896s-18.041 13.342-27.896 7.79zM901.21 847.36l102.39-0.154c11.311-0.017 20.494 9.138 20.511 20.449s-9.138 20.494-20.449 20.511l-102.39 0.154c-11.311 0.017-20.494-9.138-20.511-20.449s9.138-20.494 20.449-20.511zM983.151 867.749l-0.307-101.827c-0.034-11.311 9.107-20.508 20.418-20.542s20.508 9.107 20.542 20.418l0.307 101.827c0.034 11.311-9.107 20.508-20.418 20.542s-20.508-9.107-20.542-20.418z" />
<glyph unicode="&#xe923;" glyph-name="question" d="M512 896c247.424 0 448-200.576 448-448s-200.576-448-448-448v0c-247.424 0-448 200.576-448 448s200.576 448 448 448v0zM535.744 704.512c-52.096 0-92.928-14.784-123.2-44.352-30.976-29.568-45.76-70.4-45.76-122.496h80.256c0 29.568 5.632 52.8 17.6 68.992 13.376 19.712 35.2 28.864 66.176 28.864 23.936 0 42.944-6.336 56.32-19.712 12.672-13.376 19.712-31.68 19.712-54.912 0-17.6-6.336-34.496-19.008-49.984l-8.448-9.856c-45.76-40.832-73.216-70.4-82.368-89.408-9.856-19.008-14.080-42.24-14.080-68.992v-9.856h80.96v9.856c0 16.896 3.52 31.68 10.56 45.76 6.336 12.672 15.488 24.64 28.16 35.2 33.792 29.568 54.208 48.576 60.544 55.616 16.896 22.528 26.048 51.392 26.048 86.592 0 42.944-14.080 76.736-42.24 101.376-28.16 25.344-65.472 37.312-111.232 37.312zM523.072 298.304c-0.437 0.013-0.952 0.020-1.468 0.020-14.436 0-27.555-5.636-37.278-14.828l0.026 0.024c-9.572-9.031-15.531-21.802-15.531-35.965 0-0.721 0.015-1.439 0.046-2.153l-0.003 0.102c0-15.488 4.928-28.16 15.488-38.016 9.864-9.582 23.342-15.49 38.201-15.49 0.183 0 0.365 0.001 0.547 0.003h-0.028c15.488 0 28.16 4.928 38.72 14.784 9.988 9.418 16.206 22.739 16.206 37.513 0 0.424-0.005 0.847-0.015 1.269l0.001-0.063c0.006 0.296 0.010 0.645 0.010 0.995 0 14.488-5.928 27.59-15.491 37.015l-0.006 0.006c-9.933 9.177-23.264 14.805-37.908 14.805-0.533 0-1.064-0.007-1.594-0.022l0.078 0.002z" />
<glyph unicode="&#xe924;" glyph-name="facilitator" d="M728 600h-64v-224h-80v-368h-96v368h-80v224h-64v-288h80v-368h224v368h80zM424 840c0-61.6 50.4-112 112-112s112 50.4 112 112-50.4 112-112 112-112-50.4-112-112zM584 840c0-26.4-21.6-48-48-48s-48 21.6-48 48 21.6 48 48 48 48-21.6 48-48zM152 760c0-61.6 50.4-112 112-112s112 50.4 112 112-50.4 112-112 112-112-50.4-112-112zM312 760c0-26.4-21.6-48-48-48s-48 21.6-48 48 21.6 48 48 48 48-21.6 48-48zM904 296h-80v-288h-128v-64h192v288h80v320h-64zM696 760c0-61.6 50.4-112 112-112s112 50.4 112 112-50.4 112-112 112-112-50.4-112-112zM808 808c26.4 0 48-21.6 48-48s-21.6-48-48-48-48 21.6-48 48 21.6 48 48 48zM248 296h-80v256h-64v-320h80v-288h192v64h-128z" />
<glyph unicode="&#xe925;" glyph-name="edit" d="M901.175 844.499c-49.988 49.987-131.029 49.987-181.018 0l-408.995-408.992c-5.468-5.47-9.347-12.322-11.223-19.823l-42.667-170.667c-3.635-14.541 0.625-29.922 11.223-40.516 10.598-10.598 25.978-14.861 40.518-11.226l170.665 42.667c7.505 1.877 14.353 5.756 19.823 11.226l408.994 408.992c49.988 49.987 49.988 131.032 0 181.019l-7.322 7.32zM780.497 784.16c16.661 16.662 43.678 16.662 60.339 0l7.322-7.32c16.661-16.663 16.661-43.678 0-60.34l-43.371-43.372-66.364 68.957 42.074 42.074zM678.071 681.734l66.364-68.957-296.913-296.916-90.216-22.554 22.553 90.214 298.212 298.212zM170.667 618.669c0 23.564 19.103 42.667 42.667 42.667h213.333c23.565 0 42.667 19.102 42.667 42.667s-19.102 42.667-42.667 42.667h-213.333c-70.692 0-128-57.308-128-128v-469.332c0-70.694 57.308-128 128-128h469.333c70.694 0 128 57.306 128 128v213.333c0 23.561-19.102 42.667-42.667 42.667s-42.667-19.106-42.667-42.667v-213.333c0-23.565-19.102-42.667-42.667-42.667h-469.333c-23.564 0-42.667 19.102-42.667 42.667v469.332z" />
<glyph unicode="&#xe926;" glyph-name="direct-transaction" d="M668.6 640c0 4.4-3.6 8-8 8h-54.5c-3 0-5.8-1.7-7.1-4.4l-84.7-168.8h-3.3l-84.7 168.8c-1.34 2.618-4.012 4.382-7.098 4.4h-55.702c-1.3 0-2.6-0.3-3.8-1-3.9-2.1-5.3-7-3.2-10.8l103.9-191.6h-57c-4.4 0-8-3.6-8-8v-27.1c0-4.4 3.6-8 8-8h76v-39h-76c-4.4 0-8-3.6-8-8v-27.1c0-4.4 3.6-8 8-8h76v-63.4c0-4.4 3.6-8 8-8h49.9c4.4 0 8 3.6 8 8v63.5h76.3c4.4 0 8 3.6 8 8v27.1c0 4.4-3.6 8-8 8h-76.3v39h76.3c4.4 0 8 3.6 8 8v27.1c0 4.4-3.6 8-8 8h-57.6l103.7 191.6c0.5 1.1 0.9 2.4 0.9 3.7zM157.9 455.8c2.016 94.872 41.188 180.22 103.494 242.394l0.006 0.006c32.5 32.5 70.3 58.1 112.4 75.9 43.6 18.4 89.9 27.8 137.6 27.8 47.8 0 94.1-9.3 137.6-27.8 42.1-17.8 79.9-43.4 112.4-75.9 10-10 19.3-20.5 27.9-31.4l-50-39.1c-1.897-1.477-3.105-3.761-3.105-6.328 0-3.746 2.574-6.89 6.050-7.761l0.055-0.012 156.8-38.3c5-1.2 9.9 2.6 9.9 7.7l0.8 161.5c0 6.7-7.7 10.5-12.9 6.3l-47.8-37.4c-78.4 100.3-200.5 164.6-337.6 164.6-234.5 0-425.2-188.1-429.5-421.8-0.002-0.060-0.003-0.13-0.003-0.2 0-4.418 3.582-8 8-8 0.001 0 0.002 0 0.003 0h60c4.3 0 7.8 3.5 7.9 7.8zM934 448h-60c-4.3 0-7.9-3.5-8-7.8-2.016-94.872-41.188-180.22-103.494-242.394l-0.006-0.006c-31.394-31.521-68.698-57.128-110.114-75.021l-2.286-0.879c-43.6-18.4-89.9-27.8-137.6-27.8s-94.1 9.3-137.6 27.8c-43.702 18.772-81.006 44.379-112.388 75.888l-0.012 0.012c-10 10-19.3 20.5-27.9 31.4l49.9 39.1c1.897 1.477 3.105 3.761 3.105 6.328 0 3.746-2.574 6.89-6.050 7.761l-0.055 0.012-156.8 38.3c-5 1.2-9.9-2.6-9.9-7.7l-0.8-161.7c0-6.7 7.7-10.5 12.9-6.3l47.8 37.4c78.6-100.1 200.7-164.4 337.8-164.4 234.5 0 425.2 188.1 429.5 421.8 0.002 0.060 0.003 0.13 0.003 0.2 0 4.418-3.582 8-8 8-0.001 0-0.002 0-0.003 0v0z" />
<glyph unicode="&#xe927;" glyph-name="geo-location" d="M511.457 960c-282.536-0.309-511.457-229.421-511.457-512v0c0-282.77 229.23-512 512-512v0c0.006 0 0.013 0 0.021 0 68.243 0 133.368 13.351 192.905 37.585l-3.424-1.233c26.681-51.037 9.724-22.193-7.151 6.705l-44.008 81.584c-27.75-35.43-58.675-59.699-90.962-71.045-7.209-0.727-14.479-1.26-21.78-1.659v212.972h30.679c-8.676 14.645-16.369 31.583-22.185 49.371l-0.517 1.829h-7.977v31.846c-3.094 15.622-4.864 33.583-4.864 51.958s1.77 36.336 5.149 53.722l-0.286-1.764v34.529h8.919c4.715 14.324 9.82 26.392 15.766 37.955l-0.682-1.46c2.458 5.007 5.14 9.882 7.916 14.705h-31.918v170.291h196.557c3.379-12.995 6.451-26.348 9.185-40.008 14.911 3.879 32.271 6.532 50.103 7.391l0.596 0.023c-3.042 16.075-5.486 27.070-8.158 37.975l1.113-5.371h142.234c10.188-21.095 19.562-46.099 26.716-72.023l0.758-3.22c24.17-15.615 44.928-33.807 62.735-54.602l0.323-0.386c-33.668 253.099-248.149 446.326-507.761 446.331v0c-0.080 0-0.176 0-0.271 0s-0.19 0-0.286 0h0.014zM537.6 901.816c53.944-9.175 105.492-53.617 146.104-127.355 13.087-23.767 24.781-50.452 34.898-79.36h-181.002zM486.4 899.799v-204.698h-171.52c10.117 28.908 21.811 55.593 34.898 79.36 38.216 69.407 86.149 112.814 136.622 125.327zM368.435 885.944c-23.798-24.084-45.158-53.453-63.519-86.784-17.203-31.232-32-66.222-44.155-104.059h-137.779c56.678 89.149 143.104 157.389 245.453 190.843zM669.594 881.203c96.236-34.949 177.357-101.048 231.424-186.102h-128.358c-12.124 37.837-26.9 72.827-44.104 104.059-17.162 31.181-36.997 58.87-58.952 82.043zM94.792 643.891h151.634c-12.749-52.859-20.562-110.182-22.559-170.301h-171.93c3.461 62.461 18.896 120.522 44.035 173.053l-1.19-2.762zM299.325 643.891h187.075v-170.291h-211.282c2.171 60.774 10.68 118.313 24.197 170.291zM51.937 422.4h171.643c1.321-59.965 8.397-117.289 20.419-170.291h-149.217c-23.948 49.769-39.383 107.83-42.791 169.101l-0.053 1.19zM274.78 422.4h211.62v-170.291h-189.645c-12.749 52.224-20.541 109.722-21.975 170.291zM122.982 200.909h134.513c12.718-41.83 28.672-80.282 47.421-114.33 14.725-26.726 31.416-50.883 49.705-71.864-96.328 34.918-177.521 101.069-231.639 186.184zM311.337 200.909h175.063v-212.972c-3.154 0.174-6.267 0.492-9.4 0.717-47.002 15.36-91.382 57.549-127.222 122.624-14.623 26.563-27.566 56.699-38.441 89.62zM808.96 550.4c-118.19 0-215.040-96.563-215.040-214.426 0-45.67 14.582-88.115 39.27-123.003l149.535-258.499c20.941-27.361 34.867-22.17 52.285 1.434l164.925 280.678c3.328 6.042 5.939 12.452 8.223 19.005 10.019 23.751 15.841 51.364 15.841 80.337 0 0.016 0 0.033 0 0.049v-0.003c0 117.862-96.829 214.426-215.040 214.426zM808.96 449.925c63.652 0 114.278-50.493 114.278-113.961s-50.627-113.94-114.278-113.94c-63.642 0-114.278 50.483-114.278 113.94 0 63.468 50.637 113.961 114.278 113.961z" />
<glyph unicode="&#xe928;" glyph-name="product-addon" d="M938.667 608.427l-77.227-309.333c-9.658-37.319-43.030-64.437-82.735-64.437-0.463 0-0.926 0.004-1.388 0.011l0.070-0.001h-359.253c-0.65-0.018-1.414-0.028-2.182-0.028-40.329 0-74.124 27.977-83.036 65.582l-0.116 0.58-110.933 488.533h-93.867c-23.564 0-42.667 19.103-42.667 42.667s19.103 42.667 42.667 42.667v0h93.867c0.65 0.018 1.414 0.028 2.182 0.028 40.329 0 74.124-27.977 83.036-65.582l0.116-0.58 110.933-488.533h359.253l75.947 308.907c4.783 19.443 22.067 33.638 42.667 33.638 24.233 0 43.878-19.645 43.878-43.878 0-3.634-0.442-7.165-1.274-10.541l0.063 0.301zM704 149.333c-35.346 0-64-28.654-64-64s28.654-64 64-64c35.346 0 64 28.654 64 64v0c0 35.346-28.654 64-64 64v0zM490.667 149.333c-35.346 0-64-28.654-64-64s28.654-64 64-64c35.346 0 64 28.654 64 64v0c0 35.346-28.654 64-64 64v0zM469.333 576h85.333v-85.333c0-23.564 19.103-42.667 42.667-42.667s42.667 19.103 42.667 42.667v0 85.333h85.333c23.564 0 42.667 19.103 42.667 42.667s-19.103 42.667-42.667 42.667v0h-85.333v85.333c0 23.564-19.103 42.667-42.667 42.667s-42.667-19.103-42.667-42.667v0-85.333h-85.333c-23.564 0-42.667-19.103-42.667-42.667s19.103-42.667 42.667-42.667v0z" />
<glyph unicode="&#xe929;" glyph-name="advertise-product" d="M513.012 566.544c60.744 0 109.728 48.988 109.728 109.728s-48.596 109.728-109.728 109.728c-60.744 0-109.728-48.988-109.728-109.728 0.388-61.136 49.376-109.728 109.728-109.728zM258.284 248.72h-197.12c-63.876 0-67.404 97.58 1.176 97.58h170.86l97.972 144.216c29 39.58 61.92 58.392 108.552 58.392h146.176c46.636 0 79.552-17.244 108.552-58.392l98.364-144.216h172.040c68.972 0 64.66-97.58 2.352-97.58h-197.12c-15.676 0-34.488 5.488-45.46 22.336l-75.244 107.376-0.392-268.836h-269.616l-0.392 268.836-75.244-107.376c-10.972-16.456-29.78-22.336-45.456-22.336zM996.732 583.304h-193.388c-10.712 0-19.348-7.996-19.348-17.828v-130.948c0-9.832 8.636-17.828 19.348-17.828h193.308c10.712 0 19.348 7.996 19.348 17.828v130.948c0.080 9.832-8.556 17.828-19.268 17.828zM998.572 436.764c0-1.2-1.12-2.24-2.4-2.24h-192.268c-1.36 0-2.4 1.040-2.4 2.24v63.236h197.064v-63.236zM998.572 547.648h-197.064v15.588c0 1.2 1.12 2.24 2.4 2.24h192.188c1.36 0 2.4-1.040 2.4-2.24v-15.588h0.076zM818.216 465.224h40.452v-15.828h-40.452v15.828zM874.416 465.224h58.52v-15.828h-58.52v15.828zM63.052 442.884v-18.284c0-10.224-8.256-18.284-18.284-18.284s-18.288 8.060-18.288 18.284v18.284h-18.48v59.772c0 13.172 8.848 23.988 20.84 27.328l21.432 50.924c3.144 7.472 10.42 12.78 19.072 12.78h109.512c8.652 0 15.924-5.308 19.072-12.78l21.232-50.924c11.992-3.344 20.84-14.156 20.84-27.328v0-59.768h-18.676v-18.284c0-10.224-8.256-18.284-18.284-18.284-10.224 0-18.284 8.060-18.284 18.284v18.284h-121.704zM45.944 475.72c10.224 0 18.48 8.256 18.48 18.48s-8.256 18.48-18.48 18.48-18.48-8.256-18.48-18.48 8.26-18.48 18.48-18.48zM219.356 494.2c0 10.224-8.256 18.48-18.48 18.48s-18.48-8.256-18.48-18.48 8.256-18.48 18.48-18.48 18.48 8.256 18.48 18.48zM200.876 530.968l-18.284 44.040c-0.788 2.164-2.948 3.736-5.504 3.736h-106.172c-2.36 0-4.524-1.572-5.308-3.736l-18.284-44.040h153.552z" />
<glyph unicode="&#xe92a;" glyph-name="marketplace-gateway" d="M385.182 836.135c-191.49-4.665-344.94-161.003-344.94-353.182s153.45-348.517 344.508-353.173l0.432-0.008h15.754v280.025c0 20.874 15.951 47.655 37.022 47.655h299.323c0 11.618 1.182 19.692 1.182 25.994-1.003 194.588-158.645 352.022-353.216 352.689h-0.064zM667.175 513.182h-90.978c-1.879 77.298-20.126 149.89-51.386 215.054l1.368-3.165c76.042-44.365 129.162-120.895 140.843-210.449l0.153-1.44zM344.812 745.354v-232.172h-80.738c6.105 110.671 40.96 198.105 80.738 232.172zM344.812 452.726v-231.975c-39.385 34.068-74.634 121.108-80.738 231.975zM425.551 513.182v232.172c39.385-34.068 74.831-121.502 80.738-232.172zM243.988 725.071c-29.356-62.069-47.474-134.583-49.802-211.070l-0.020-0.819h-91.569c11.801 91.104 65.108 167.696 140.024 211.158l1.366 0.732zM102.794 442.683h91.569c1.834-77.056 19.939-149.45 50.991-214.475l-1.366 3.177c-76.023 44.166-129.194 120.483-141.036 209.845l-0.157 1.453zM935.385 397.588h-428.702c-27.189 0-49.231-22.041-49.231-49.231v0-239.262c0-27.189 22.041-49.231 49.231-49.231v0h428.702c27.189 0 49.231 22.041 49.231 49.231v0 239.262c0 27.189-22.041 49.231-49.231 49.231v0zM564.382 109.095c0.014 0.476 0.022 1.035 0.022 1.596 0 31.211-24.866 56.614-55.868 57.479l-0.080 0.002h-1.575v122.289c0.418-0.011 0.911-0.017 1.405-0.017 31.249 0 56.696 24.841 57.67 55.854l0.002 0.089v1.378h311.335c0-0.002 0-0.004 0-0.005 0-31.372 25.209-56.855 56.475-57.299h1.617v-123.077c-0.415 0.011-0.904 0.017-1.395 0.017-31.387 0-56.921-25.062-57.681-56.266l-0.001-0.071v-1.772zM803.643 232.96c0-45.678-37.029-82.708-82.708-82.708s-82.708 37.029-82.708 82.708c0 45.678 37.029 82.708 82.708 82.708s82.708-37.029 82.708-82.708z" />
<glyph unicode="&#xe92b;" glyph-name="marketplace-fee" d="M925.056 557.728c-0.965 2.029-2.031 3.771-3.255 5.388l0.055-0.076c-1.097 5.31-2.399 9.844-3.999 14.236l0.223-0.7c-0.192 0.512-0.384 1.024-0.64 1.536l-88.096 202.688c-5.065 11.397-16.285 19.2-29.328 19.2-0.005 0-0.011 0-0.016 0h-575.999c-0.005 0-0.010 0-0.016 0-13.043 0-24.264-7.803-29.248-18.996l-0.081-0.204-88.64-204.192c-4.005-9.875-6.329-21.33-6.329-33.328s2.324-23.453 6.547-33.939l-0.217 0.611c16.758-37.654 47.244-66.662 84.942-81.090l1.042-0.35v-332.512c0-17.673 14.327-32 32-32v0h576c17.673 0 32 14.327 32 32v0 332.512c38.732 14.761 69.215 43.746 85.599 80.412l0.385 0.964c2.468 6.099 4.304 13.185 5.178 20.565l0.038 0.395c2.395 4.522 3.8 9.885 3.8 15.577 0 4.052-0.713 7.938-2.019 11.538l0.075-0.235zM416 128v192h64v-192zM544 128v192h64v-192zM768 128h-96v224c0 17.673-14.327 32-32 32v0h-256c-17.673 0-32-14.327-32-32v0-224h-96v288c0.62-0.008 1.353-0.013 2.086-0.013 50.212 0 95.23 22.24 125.739 57.407l0.175 0.206c31.452-35.456 77.13-57.689 128-57.689s96.548 22.233 127.846 57.512l0.154 0.177c30.685-35.373 75.702-57.613 125.914-57.613 0.733 0 1.466 0.005 2.197 0.014l-0.111-0.001zM858.784 534.4c-15.979-32.504-48.852-54.48-86.858-54.48-1.381 0-2.754 0.029-4.121 0.086l0.195-0.007c-2.166-0.187-4.686-0.294-7.231-0.294-46.13 0-84.083 35.011-88.737 79.911l-0.032 0.383c0 17.673-14.327 32-32 32s-32-14.327-32-32v0c-4.685-45.282-42.638-80.294-88.769-80.294-2.545 0-5.066 0.107-7.557 0.316l0.326-0.022c-2.166-0.187-4.686-0.294-7.231-0.294-46.13 0-84.083 35.011-88.737 79.911l-0.032 0.383c0 17.673-14.327 32-32 32s-32-14.327-32-32v0c-4.685-45.282-42.638-80.294-88.769-80.294-2.545 0-5.066 0.107-7.557 0.316l0.326-0.022c-1.175-0.051-2.553-0.080-3.937-0.080-38.012 0-70.891 21.975-86.627 53.914l-0.252 0.566c-1.019 2.717-1.608 5.858-1.608 9.136s0.59 6.419 1.669 9.321l-0.060-0.185 79.808 183.328h534.016l79.264-182.4c1.265-3.044 1.999-6.579 1.999-10.286 0-3.192-0.545-6.257-1.546-9.107l0.059 0.192z" />
<glyph unicode="&#xe92c;" glyph-name="compliance" d="M938.667-64h-853.333v938.667h213.333v85.333h426.667v-85.333h213.333v-938.667zM170.667 21.333h682.667v768h-128v-128h-426.667v128h-128v-768zM384 746.667h256v128h-256v-128zM469.333 174.933l-157.867 157.867 59.733 59.733 98.133-98.133 226.133 226.133 59.733-59.733-285.867-285.867z" />
<glyph unicode="&#xe92d;" glyph-name="lock" d="M800 576h-32v122.112c0 146.848-106.24 261.888-257.184 261.888-151.552 0-254.816-117.472-254.816-261.888v-122.112h-32c-70.592 0-128-57.408-128-128v-384c0-70.592 57.408-128 128-128h576c70.592 0 128 57.408 128 128v384c0 70.592-57.408 128-128 128zM320 698.112c0 109.088 74.56 197.888 190.816 197.888 115.072 0 193.184-86.912 193.184-197.888v-122.112h-384v122.112zM864 64c0-35.264-28.736-64-64-64h-576c-35.296 0-64 28.736-64 64v384c0 35.264 28.704 64 64 64h576c35.264 0 64-28.736 64-64v-384zM512 384c-35.328 0-64-28.64-64-64 0-23.616 12.96-44.032 32-55.136v-104.864c0-17.664 14.336-32 32-32s32 14.336 32 32v104.864c19.040 11.072 32 31.52 32 55.136 0 35.36-28.64 64-64 64z" />
<glyph unicode="&#xe92e;" glyph-name="pros-and-cons" d="M891.866 959.75l-751.48 0.246c-77.41 0-140.386-62.975-140.386-140.386v-883.608h776.255v668.319l34.222 22.808 64.876-32.436 66.065 33.033 82.582-41.291v233.175c-0.007 74.636-58.556 135.859-132.134 140.139zM743.222 819.611v-850.575h-710.189v850.575c0 59.195 48.162 107.353 107.353 107.353h652.847c-30.556-25.78-50.010-64.345-50.010-107.353zM990.96 639.884l-49.549 24.775-66.065-33.033-67.238 33.626-31.853-21.223v175.582c0 59.195 48.162 107.353 107.353 107.353s107.353-48.162 107.353-107.353v-179.727zM490.642 601.482l70.904 70.904 70.904-70.904 23.352 23.356-70.904 70.904 70.904 70.9-23.352 23.356-70.904-70.904-70.904 70.904-23.352-23.356 70.9-70.9-70.9-70.904zM309.642 750.819l-24.709 21.969-117.907-132.658-21.157 31.746-27.483-18.334 44.908-67.352zM82.582 547.095h264.255v-33.033h-264.255v33.033zM82.582 464.516h264.255v-33.033h-264.255v33.033zM82.582 381.935h264.255v-33.033h-264.255v33.033zM82.582 299.356h264.255v-33.033h-264.255v33.033zM82.582 216.775h264.255v-33.033h-264.255v33.033zM82.582 134.196h132.127v-33.033h-132.127v33.033zM429.418 547.095h264.255v-33.033h-264.255v33.033zM429.418 464.516h264.255v-33.033h-264.255v33.033zM429.418 381.935h264.255v-33.033h-264.255v33.033zM429.418 299.356h198.193v-33.033h-198.193v33.033z" />
<glyph unicode="&#xe92f;" glyph-name="like" d="M85.333 21.333h710.144c0.245-0.002 0.535-0.003 0.824-0.003 62.833 0 115.217 44.736 127.038 104.095l0.137 0.825 55.68 298.667c1.358 6.955 2.135 14.953 2.135 23.132 0 30.882-11.077 59.177-29.474 81.129l0.16-0.197c-24.147 28.822-60.155 47.019-100.414 47.019-0.143 0-0.287 0-0.43-0.001h-203.541v170.667c0 87.936-90.155 128-173.909 128-23.564 0-42.667-19.103-42.667-42.667v0c0-81.365-14.507-166.827-30.891-182.784l-118.827-115.883h-195.968c-23.564 0-42.667-19.103-42.667-42.667v0-426.667c0-23.564 19.103-42.667 42.667-42.667v0zM341.333 472.704l118.357 115.2c39.68 38.699 51.712 132.779 55.467 195.584 23.125-5.504 47.317-16.213 47.317-37.035v-213.333c0-23.564 19.103-42.667 42.667-42.667v0h246.229c0.096 0.001 0.209 0.001 0.323 0.001 13.946 0 26.428-6.271 34.779-16.147l0.055-0.067c6.027-7.076 9.693-16.324 9.693-26.428 0-2.725-0.267-5.389-0.776-7.965l0.043 0.259-55.467-298.667c-4.478-20.040-22.111-34.794-43.19-34.794-0.476 0-0.951 0.008-1.423 0.022l0.069-0.002h-454.144zM128 448h128v-341.333h-128z" />
<glyph unicode="&#xe930;" glyph-name="home" d="M512 960l-512-384v-128h64v-448h192v320h192v-320h512v448h64v128l-128 96v224h-192v-80l-192 144zM576 320h192v-192h-192v192z" />
<glyph unicode="&#xe931;" glyph-name="dollar" d="M710.287 431.596c-29.45 23.224-73.646 41.779-132.588 55.644l-45.22 10.67v193.126l6.124-2.499c38.38-19.436 59.003-56.218 61.829-97.178h153.928c-2.806 81.92-33.075 142.5-90.808 185.303-38.359 28.447-82.104 46.735-131.072 55.951v106.906h-143.36v-103.629c-66.294-8.192-118.866-29.532-157.471-64.225-50.545-45.425-75.796-102.441-75.796-171.090 0-75.223 25.825-130.519 77.476-165.888 28.918-20.050 81.039-38.666 155.791-55.91v-209.224c-27.259 7.516-48.62 19.886-63.672 37.765-14.52 17.367-24.248 35.881-29.204 76.841h-152.883c0-81.92 28.897-140.698 86.712-186.286 41.738-32.891 94.863-52.879 159.048-61.542v-79.852h143.36v78.5c68.26 8.172 123.372 29.962 165.11 65.618 54.129 46.285 81.203 104.448 81.203 174.469 0 68.301-22.835 120.463-68.506 156.529zM341.361 550.728c-24.883 13.517-37.315 34.038-37.315 61.44 0 29.819 12.616 53.187 37.847 69.816 13.312 8.786 29.164 15.176 47.227 19.395v-168.428c-22.221 6.472-38.257 12.411-47.759 17.777zM555.889 173.752c-7.107-2.458-15.032-4.485-23.409-6.267v178.115c24.678-7.311 44.155-15.278 58.327-23.839 22.364-13.865 33.567-33.587 33.567-58.88-0.020-43.336-22.856-73.175-68.485-89.129z" />
<glyph unicode="&#xe932;" glyph-name="bank" d="M978 764l-471.2 193.6-466.8-198v-137.6h938v142zM527.2 692.4v-32.8h-31.6v30.8c-18 0.8-34.8 5.2-43.6 10l8 32.8c10.4-5.2 26.8-10.8 44-10.8 18.8 0 27.6 8 27.6 19.6s-8.8 16-30 24c-29.6 10.4-48.4 25.2-48.4 52 0 23.6 15.2 42 42 49.2v32.8h31.6v-30.8c16-0.8 27.2-4 36-8.8l-8.8-32c-7.2 2.8-19.6 8-35.6 8-16.4 0-25.2-8-25.2-16.4 0-10.8 10.4-15.6 32.8-24.4 30.4-10.8 44.8-26.8 44.8-52-0.4-24.4-14.4-43.2-43.6-51.2zM983.2 36.4v78.8h-39.2v386.8h39.2v78.4h-943.6v-78.8h40.4v-386.8h-40.8v-78.4h-39.2v-99.2h1022.4v99.2h-39.2zM158.8 114.4v386.8h78.8v-386.8h-78.8zM315.6 114.4v386.8h78.8v-386.8h-78.8zM473.2 114.4v386.8h78.8v-386.8h-78.8zM630 114.4v386.8h78.8v-386.8h-78.8zM787.2 114.4v386.8h78.8v-386.8h-78.8z" />
<glyph unicode="&#xe933;" glyph-name="question-answer" d="M424 312c0 8.832 7.168 16 16 16s16-7.168 16-16v-280c0-4.24 1.68-8.32 4.688-11.312 2.992-3.008 7.072-4.688 11.312-4.688 92.016 0 356.64 0 448.656 0 4.24 0 8.32 1.68 11.312 4.688 3.008 2.992 4.688 7.072 4.688 11.312 0 65.344 0 208 0 208 0 8.832 7.168 16 16 16s16-7.168 16-16c0 0 0-142.656 0-208 0-12.736-5.056-24.944-14.048-33.936-9.008-9.008-21.216-14.064-33.952-14.064-92.016 0-356.64 0-448.656 0-12.736 0-24.944 5.056-33.936 14.064-9.008 8.992-14.064 21.2-14.064 33.936v280zM536.656 400c8.848 0 16 7.168 16 16v448.656c0 8.848-7.152 16-16 16h-448.656c-8.832 0-16-7.152-16-16v-192.656c0-8.832-7.168-16-16-16s-16 7.168-16 16c0 0 0 130.608 0 192.656 0 26.512 21.488 48 48 48h448.656c26.512 0 48-21.488 48-48v-336h336c12.736 0 24.944-5.056 33.952-14.048 8.992-9.008 14.048-21.216 14.048-33.952v-160.656c0-8.832-7.168-16-16-16s-16 7.168-16 16c0 0 0 160.656 0 160.656 0 4.24-1.68 8.32-4.688 11.312-2.992 3.008-7.072 4.688-11.312 4.688h-336v-80.656c0-26.512-21.488-48-48-48h-16.656v-288c0 0 352.656 0 352.656 0s0 352.656 0 352.656h-256c-8.832 0-16 7.168-16 16s7.168 16 16 16h272c8.848 0 16-7.152 16-16v-384.656c0-8.832-7.152-16-16-16h-384.656c-8.832 0-16 7.168-16 16v304h-400c-26.512 0-48 21.488-48 48v192c0 8.832 7.168 16 16 16s16-7.168 16-16c0 0 0-192 0-192 0-8.832 7.168-16 16-16h448.656zM653.664 201.6l-35.008-80.016c-3.536-8.080-12.976-11.776-21.072-8.24-8.080 3.536-11.776 12.976-8.24 21.072l98 224c2.544 5.824 8.304 9.584 14.656 9.584s12.112-3.76 14.656-9.584l98-224c3.536-8.096-0.16-17.536-8.24-21.072-8.096-3.536-17.536 0.16-21.072 8.24l-35.008 80.016h-96.672zM667.664 233.6h68.672l-34.336 78.48-34.336-78.48zM520.656 832.656c0 8.848-7.152 16-16 16h-384.656c-8.832 0-16-7.152-16-16v-384.656c0-8.832 7.168-16 16-16h384.656c8.848 0 16 7.168 16 16v384.656zM488.656 816.656v-352.656c0 0-352.656 0-352.656 0s0 352.656 0 352.656c0 0 352.656 0 352.656 0zM395.056 526.32c-21.456-14.112-47.136-22.32-74.72-22.32-75.248 0-136.336 61.088-136.336 136.336 0 75.232 61.088 136.32 136.336 136.32 75.232 0 136.32-61.088 136.32-136.32 0-36.112-14.064-68.944-37.008-93.36l23.664-23.664c6.24-6.24 6.24-16.384 0-22.624s-16.384-6.24-22.624 0l-25.632 25.632zM397.008 569.616c17.168 18.592 27.648 43.44 27.648 70.72 0 57.568-46.752 104.32-104.32 104.32-57.584 0-104.336-46.752-104.336-104.32 0-57.584 46.752-104.336 104.336-104.336 18.704 0 36.272 4.928 51.456 13.568l-15.104 15.12c-6.24 6.24-6.24 16.384 0 22.624s16.384 6.24 22.624 0l17.696-17.696z" />
<glyph unicode="&#xe934;" glyph-name="zone-wise-shipping" d="M511.999 960c-197.446 0-358.079-160.634-358.079-358.081 0-78.25 19.236-152.832 58.804-228.010 34.988-66.472 82.614-127.778 128.672-187.064 57.598-74.142 117.16-150.81 155.866-241.128 2.526-5.894 8.324-9.716 14.738-9.716s12.212 3.822 14.738 9.716c38.706 90.318 98.268 166.984 155.866 241.128 46.058 59.288 93.684 120.592 128.672 187.064 39.568 75.178 58.804 149.76 58.804 228.010-0.002 197.446-160.634 358.081-358.083 358.081zM657.279 206.517c-52.058-67.010-105.68-136.030-145.28-216.22-39.6 80.188-93.222 149.208-145.28 216.22-92.944 119.64-180.732 232.644-180.732 395.403 0 179.764 146.248 326.013 326.013 326.013s326.015-146.246 326.015-326.013c0-162.758-87.788-275.765-180.734-395.403zM748.407 632.865c-13.662 108.29-102.522 194.982-211.284 206.13-47.070 4.828-93.802-4.016-135.156-25.572-7.852-4.094-10.9-13.776-6.806-21.63s13.776-10.9 21.63-6.806c35.774 18.648 76.248 26.292 117.064 22.11 94.072-9.644 170.924-84.606 182.738-178.244 8.122-64.362-13.272-127.338-58.69-172.774-45.422-45.438-108.386-66.852-172.75-58.756-43.816 5.512-85.64 25.922-117.768 57.474-32.142 31.562-53.272 73-59.502 116.676-7.686 53.892 5.332 107.5 36.654 150.954 0.044 0.062 0.37 0.284 0.892 0.284h34.134c0.468 0 0.89-0.312 1.024-0.762l40.338-134.458c6.42-21.418 25.758-35.806 48.116-35.806h111.37c27.702 0 50.238 22.536 50.238 50.238v102.614c0 8.854-7.178 16.034-16.034 16.034h-200.14l-3.176 10.59c-4.238 14.124-16.992 23.614-31.738 23.614h-34.134c-10.706 0-20.764-5.084-26.902-13.6-36.198-50.212-51.25-112.090-42.386-174.232 7.218-50.606 31.644-98.558 68.78-135.026 37.11-36.442 85.492-60.030 136.234-66.41 10.312-1.298 20.582-1.936 30.784-1.936 63.266 0.002 123.458 24.634 168.646 69.84 52.472 52.488 77.194 125.188 67.824 199.454zM598.581 688.501v-86.58c0-10.020-8.152-18.172-18.172-18.172h-111.37c-8.088 0-15.082 5.204-17.406 12.95l-27.538 91.8h174.486zM426.489 532.441c-18.272 0-33.136-14.864-33.136-33.136s14.864-33.136 33.136-33.136 33.136 14.864 33.136 33.136-14.864 33.136-33.136 33.136zM597.511 532.441c-18.272 0-33.136-14.864-33.136-33.136s14.864-33.136 33.136-33.136c18.272 0 33.136 14.864 33.136 33.136s-14.864 33.136-33.136 33.136z" />
<glyph unicode="&#xe935;" glyph-name="approval" d="M460.452 687.608l99.528 99.528-45.488 45.128-152.84-152.48-37.12 37.12c-20.38 20.38-37.848 37.12-38.576 37.12s-11.644-10.372-24.38-22.928l-23.108-23.108 59.864-59.864c32.932-32.932 60.408-59.864 61.136-59.864 1.092-0.18 46.396 44.58 100.984 99.348v0zM898.664 547.224v-99.224c0-10.236-7.876-18.112-18.112-18.112s-18.112 7.876-18.112 18.112v144.112c0 6.3-0.788 11.812-3.936 17.324-5.512 13.388-18.112 23.624-32.288 26.776-2.364 0.788-6.3 0.788-8.664 0.788v-170.888c0-10.236-7.876-18.112-18.112-18.112s-18.112 7.876-18.112 18.112v215.776c0 4.724-0.788 7.876-1.576 11.812-0.788 4.724-3.936 8.664-6.3 13.388-3.936 4.724-7.088 8.664-12.6 12.6-3.936 2.364-8.664 4.724-13.388 6.3-2.364 0-6.3 0.788-11.024 0.788-2.364 0-6.3 0-8.664-0.788v226.012h-648.112v-756h495.336c16.536-45.676 52.764-81.9 99.224-99.224v-152.776h270.112v558.336c-0.784 25.2-20.472 44.888-45.672 44.888zM673.436 348.776c-10.236 0-18.112 7.876-18.112 18.112v162.224c0 25.2-19.688 44.888-44.888 44.888-27.936 0-44.888-20.848-44.888-45.176v-63.5h-359.884v-36.224h359.888v-54.336h-359.888v-36.224h359.888v-89.776c0-6.3 0.788-11.812 0.788-18.112h-451.24v685.124h575.664v-548.888h0.788c0-10.24-7.876-18.112-18.116-18.112z" />
<glyph unicode="&#xe936;" glyph-name="cash" d="M176 707.2v-29.6h751.2v-379.2h28.8v408.8zM122.4 624h751.2v-379.2h28.8v408h-780zM191.2 596.8h-123.2v-408h780v408h-656.8zM816 478.4v-169.6c-42.4-11.2-75.2-44.8-87.2-88h-542.4c-11.2 43.2-44.8 76-87.2 88v169.6c42.4 11.2 75.2 44.8 87.2 88h542.4c10.4-43.2 44-76.8 87.2-88zM601.6 392.8c0-79.529-64.471-144-144-144s-144 64.471-144 144c0 79.529 64.471 144 144 144s144-64.471 144-144z" />
<glyph unicode="&#xe937;" glyph-name="view-files" d="M146.017 9.889c-12.686 0-22.996 10.31-22.996 22.979v707.825c0 12.669 10.31 22.975 22.996 22.975h491.838c12.686 0 22.998-10.304 22.998-22.975v-306.039c21.86 7.281 44.783 12.114 68.553 14.161v291.878c0 50.477-41.069 91.528-91.55 91.528h-387.172v36.252c0 12.671 10.308 22.975 22.994 22.975h491.842c12.683 0 22.994-10.304 22.994-22.975v-420.279c23.83-2.646 46.732-8.303 68.551-16.219v436.498c0 50.475-41.065 91.528-91.544 91.528h-491.842c-50.479 0-91.546-41.053-91.546-91.528v-36.252h-36.114c-50.479 0-91.548-41.053-91.548-91.528v-707.825c0-50.475 41.069-91.532 91.548-91.532h394.502c-19.745 20.3-36.652 43.333-50.078 68.553h-344.425zM262.593 565.096h197.824c18.949 0 34.274 15.348 34.274 34.274 0 18.93-15.326 34.276-34.274 34.276h-197.824c-18.938 0-34.266-15.348-34.266-34.276 0-18.926 15.326-34.274 34.266-34.274zM555.576 447.188c0 18.928-15.326 34.276-34.276 34.276h-258.707c-18.938 0-34.266-15.348-34.266-34.276 0-18.93 15.326-34.276 34.266-34.276h258.707c18.951 0 34.276 15.346 34.276 34.276zM515.314 329.329h-252.721c-18.938 0-34.266-15.346-34.266-34.274s15.326-34.276 34.266-34.276h214.193c9.803 24.657 22.861 47.616 38.528 68.551zM262.593 177.182c-18.938 0-34.266-15.348-34.266-34.274 0-18.928 15.326-34.276 34.266-34.276h196.018c-1.877 13.623-3.211 27.45-3.211 41.595 0 9.104 0.567 18.059 1.374 26.958h-194.181zM755.31 221.034c-58.84 0-110.931-48.754-131.479-70.81 20.548-22.046 72.639-70.781 131.479-70.781 59.078 0 111.022 48.721 131.479 70.76-20.519 22.042-72.6 70.831-131.479 70.831zM755.31 98.809c-28.384 0-51.408 23.025-51.408 51.414 0 28.413 23.025 51.41 51.408 51.41s51.408-22.996 51.408-51.41c0-28.39-23.025-51.414-51.408-51.414zM755.31 364.443c-118.322 0-214.224-95.9-214.224-214.22 0-118.295 95.902-214.224 214.224-214.224s214.222 95.929 214.222 214.224c0 118.322-95.9 214.22-214.222 214.22zM755.31 45.173c-92.448 0-164.686 90.607-167.728 94.457-4.852 6.224-4.852 14.959 0 21.167 3.044 3.865 75.281 94.511 167.728 94.511 92.444 0 164.682-90.644 167.728-94.511 4.852-6.207 4.852-14.945 0-21.167-3.046-3.853-75.283-94.457-167.728-94.457z" />
</font>
</defs>
</svg>
