<?xml version="1.0" standalone="no"?>
<!DOCTYPE svg PUBLIC "-//W3C//DTD SVG 1.1//EN" "http://www.w3.org/Graphics/SVG/1.1/DTD/svg11.dtd" >
<svg xmlns="http://www.w3.org/2000/svg">
<metadata>Generated by IcoMoon</metadata>
<defs>
<font id="adminlibrary" horiz-adv-x="1024">
<font-face units-per-em="1024" ascent="960" descent="-64" />
<missing-glyph horiz-adv-x="1024" />
<glyph unicode="&#x20;" horiz-adv-x="512" d="" />
<glyph unicode="&#x8907;" glyph-name="cart" d="M728.131 159.484q34.099 0 59.174-26.075t25.072-60.177-25.072-59.174-59.174-25.072-60.177 25.072-26.075 59.174 26.075 60.177 60.177 26.075zM42.123 843.486h140.411l40.117-84.246h633.855q18.054 0 30.087-13.039t12.036-31.090q0-2.006-6.018-20.060l-152.447-276.81q-24.070-44.129-74.216-44.129h-318.933l-38.111-70.205-2.006-6.018q0-10.030 10.030-10.030h495.45v-86.252h-513.502q-34.099 0-59.174 26.075t-25.072 60.177q0 20.060 10.030 40.117l58.171 106.312-154.453 324.951h-86.252v84.246zM298.875 159.484q34.099 0 60.177-26.075t26.075-60.177-26.075-59.174-60.177-25.072-59.174 25.072-25.072 59.174 25.072 60.177 59.174 26.075z" />
<glyph unicode="&#xe520;" glyph-name="person" d="M513.502 320.814q108.318 0 225.66-47.138t117.343-123.36v-86.252h-686.008v86.252q0 76.222 117.343 123.36t225.66 47.138zM513.502 407.066q-70.205 0-120.352 50.147t-50.147 120.352 50.147 121.355 120.352 51.15 120.352-51.15 50.147-121.355-50.147-120.352-120.352-50.147z" />
<glyph unicode="&#xe700;" glyph-name="tools" d="M889.056 706.048c30.688-74.016 16.064-162.368-44.128-222.56-66.272-66.272-166.432-76.64-244.288-32.704l-56.288-61.472 40.16-40.32 24 24c12.256 12.288 32.16 12.288 44.416 0l194.624-196.608c12.288-12.256 12.288-32.16 0-44.416l-88.832-88.832c-12.256-12.288-32.16-12.288-44.416 0l-194.624 196.608c-12.288 12.256-12.288 32.16 0 44.416l21.92 21.92-38.272 38.368-269.152-294.048c-24.544-24.544-64.32-24.544-88.832 0l-22.208 22.208c-24.544 24.544-24.544 64.32 0 88.832l306.624 256.8-203.648 204.192-64.32 0.032-74.432 119.68 59.904 60 122.4-74.912 0.8-62.976 206.016-206.816 59.936 50.176c-58.592 79.872-52.48 192.384 19.712 264.576 59.904 59.904 147.776 74.784 221.6 44.672l-131.968-130.144 111.072-111.072 132.224 130.4zM196.8 130.112c-12.256 12.256-32.128 12.256-44.416 0-12.288-12.288-12.288-32.16 0-44.448 12.288-12.256 32.16-12.256 44.416 0 12.288 12.32 12.288 32.192 0 44.448z" />
<glyph unicode="&#xe702;" glyph-name="supervised-user-circle" d="M512 84.667q106 0 193 61t125 157q-60 48-164 48-58 0-123-25t-65-65v-174q12-2 34-2zM410 260.667q0 70 80 114-50 10-80 10-54 0-122-19t-98-53q28-76 86-132t134-80v160zM410 650.667q-42 0-72-30t-30-72 30-71 72-29 71 29 29 71-29 72-71 30zM666 582.667q-34 0-58-24t-24-58 24-58 58-24 58 24 24 58-24 58-58 24zM512 852.667q176 0 301-125t125-301-125-301-301-125q-178 0-303 125t-125 301 125 301 303 125z" />
<glyph unicode="&#xe704;" glyph-name="vpn-key" d="M298 340.667q34 0 60 26t26 60-26 60-60 26-59-26-25-60 25-60 59-26zM540 512.667h442v-172h-86v-170h-170v170h-186q-26-70-97-120t-145-50q-106 0-181 75t-75 181 75 181 181 75q74 0 145-50t97-120z" />
<glyph unicode="&#xe800;" glyph-name="user-circle" d="M872.841 174.576c-14.902 107.171-58.457 202.306-155.885 215.487-50.433-55.019-123.217-89.978-203.452-89.978s-153.018 34.959-203.452 89.978c-97.428-13.182-140.984-108.318-155.885-215.487 79.663-112.329 210.904-186.26 359.338-186.26s279.676 73.93 359.338 186.26zM733.576 575.177c0 121.499-98.574 220.073-220.073 220.073s-220.073-98.574-220.073-220.073 98.574-220.073 220.073-220.073 220.073 98.574 220.073 220.073zM1027.006 428.462c0-282.541-229.242-513.502-513.502-513.502-283.687 0-513.502 230.389-513.502 513.502 0 283.687 229.815 513.502 513.502 513.502s513.502-229.815 513.502-513.502z" />
<glyph unicode="&#xe802;" glyph-name="error" d="M555.627 374.113v256.751h-84.246v-256.751h84.246zM555.627 201.608v86.252h-84.246v-86.252h84.246zM513.502 843.486q176.516 0 301.884-125.366t125.366-301.884-125.366-301.884-301.884-125.366-301.884 125.366-125.366 301.884 125.366 301.884 301.884 125.366z" />
<glyph unicode="&#xe803;" glyph-name="security" d="M513.502 887.615l385.127-172.504v-256.751q0-178.522-110.324-325.954t-274.804-187.549q-164.481 40.117-274.804 187.549t-110.324 325.954v256.751zM513.502 416.236v-383.121q118.346 38.111 200.588 143.42t98.288 239.702h-298.875zM513.502 416.236v377.104l-298.875-132.387v-244.717h298.875z" />
<glyph unicode="&#xe804;" glyph-name="storefront" d="M214.628 117.361h599.756v256.751h-10.030q-60.177 0-96.282 40.117-40.117-40.117-96.282-40.117-54.159 0-98.288 40.117-40.117-40.117-94.276-40.117-60.177 0-100.294 40.117-36.105-40.117-94.276-40.117h-10.030v-256.751zM172.504 528.565q-6.018-28.081 12.036-50.147 14.042-20.060 40.117-20.060 42.123 0 50.147 50.147l26.075 206.605h-84.246zM363.063 516.529q0-22.066 15.045-40.117t37.108-18.054q24.070 0 40.117 17.051t16.048 39.114v200.588h-84.246l-24.070-192.564v-6.018zM555.627 715.111v-200.588q0-22.066 16.048-39.114t36.105-17.051q26.075 0 43.126 19.057t13.039 45.132l-24.070 192.564h-84.246zM808.366 717.117l-82.24-2.006 26.075-206.605q2.006-20.060 16.048-35.102t34.099-15.045q24.070 0 40.117 20.060 18.054 22.066 12.036 50.147zM936.742 548.624q16.048-70.205-26.075-122.357l-12.036-12.036v-296.869q0-34.099-26.075-60.177t-60.177-26.075h-597.75q-34.099 0-60.177 26.075t-26.075 60.177v296.869l-12.036 12.036q-42.123 52.153-26.075 122.357l44.129 188.552q6.018 28.081 30.087 46.135t52.153 18.054h593.738q28.081 0 51.15-18.054t31.090-46.135z" />
<glyph unicode="&#xe805;" glyph-name="editor-list-ul" d="M916.090 428.462c0-23.621-19.513-43.134-43.134-43.134h-487.827c-23.621 0-43.134 19.513-43.134 43.134s19.513 43.134 43.134 43.134h487.827c23.621 0 43.134-19.513 43.134-43.134zM872.955 214.844h-487.827c-23.621 0-43.134-19.513-43.134-43.134s19.513-43.134 43.134-43.134h487.827c23.621 0 43.134 19.513 43.134 43.134s-19.513 43.134-43.134 43.134zM385.127 642.080h487.827c23.621 0 43.134 19.513 43.134 43.134s-19.513 43.134-43.134 43.134h-487.827c-23.621 0-43.134-19.513-43.134-43.134s19.513-43.134 43.134-43.134zM193.077 749.915c-35.945 0-64.701-28.756-64.701-64.701s28.756-63.674 64.701-63.674c34.918 0 63.674 27.729 63.674 63.674s-28.756 64.701-63.674 64.701zM193.077 236.411c-35.945 0-64.701-28.756-64.701-64.701s28.756-63.674 64.701-63.674c34.918 0 63.674 27.729 63.674 63.674s-28.756 64.701-63.674 64.701zM193.077 495.217c-35.945 0-64.701-28.756-64.701-63.674 0-35.945 28.756-64.701 64.701-64.701 34.918 0 63.674 28.756 63.674 64.701 0 34.918-28.756 63.674-63.674 63.674z" />
<glyph unicode="&#xe806;" glyph-name="search" d="M407.192 329.984q80.234 0 136.399 56.165t56.165 136.399-56.165 136.399-136.399 56.165-136.399-56.165-56.165-136.399 56.165-136.399 136.399-56.165zM663.943 329.984l212.622-212.622-64.189-64.189-212.622 212.622v34.099l-12.036 12.036q-76.222-66.195-180.528-66.195-116.341 0-197.579 80.234t-81.237 196.576 81.237 197.579 197.579 81.237 196.576-81.237 80.234-197.579q0-42.123-20.060-95.279t-46.135-85.249l12.036-12.036h34.099z" />
<glyph unicode="&#xe807;" glyph-name="info" d="M555.627 544.612v86.252h-84.246v-86.252h84.246zM555.627 201.608v256.751h-84.246v-256.751h84.246zM513.502 843.486q176.516 0 301.884-125.366t125.366-301.884-125.366-301.884-301.884-125.366-301.884 125.366-125.366 301.884 125.366 301.884 301.884 125.366z" />
<glyph unicode="&#xe809;" glyph-name="check" d="M385.127 237.714l453.327 453.327 60.177-60.177-513.502-513.502-238.699 238.699 60.177 60.177z" />
<glyph unicode="&#xe80a;" glyph-name="smile-o" horiz-adv-x="881" d="M649.902 325.876c-28.655-92.27-112.901-154.165-209.757-154.165s-181.102 61.894-209.757 154.165c-6.304 19.486 4.583 39.546 24.070 45.849 18.911 6.304 39.546-4.583 45.849-24.070 18.911-61.323 75.651-102.586 139.838-102.586s120.925 41.263 139.838 102.586c6.304 19.486 26.935 30.376 46.421 24.070 18.911-6.304 29.801-26.364 23.498-45.849zM366.787 575.177c0-40.691-32.667-73.358-73.358-73.358s-73.358 32.667-73.358 73.358 32.667 73.358 73.358 73.358 73.358-32.667 73.358-73.358zM660.218 575.177c0-40.691-32.667-73.358-73.358-73.358s-73.358 32.667-73.358 73.358 32.667 73.358 73.358 73.358 73.358-32.667 73.358-73.358zM806.932 428.462c0 202.306-164.481 366.787-366.787 366.787s-366.787-164.481-366.787-366.787 164.481-366.787 366.787-366.787 366.787 164.481 366.787 366.787zM880.291 428.462c0-242.997-197.148-440.145-440.145-440.145s-440.145 197.148-440.145 440.145 197.148 440.145 440.145 440.145 440.145-197.148 440.145-440.145z" />
<glyph unicode="&#xe810;" glyph-name="close" d="M812.378 654.934l-238.699-238.699 238.699-238.699-60.177-60.177-238.699 238.699-238.699-238.699-60.177 60.177 238.699 238.699-238.699 238.699 60.177 60.177 238.699-238.699 238.699 238.699z" />
<glyph unicode="&#xe820;" glyph-name="captcha" d="M106.808 321.654c-11.297 0-21.567-9.243-21.567-21.567s-9.243-21.567-20.54-21.567-21.567 10.27-21.567 21.567v85.241c0 12.324 9.243 21.567 21.567 21.567s20.54-9.243 20.54-21.567 10.27-20.54 21.567-20.54 21.567 9.243 21.567 20.54c0 35.945-28.756 64.701-63.674 64.701s-64.701-28.756-64.701-64.701v-85.241c0-34.918 28.756-63.674 64.701-63.674s63.674 28.756 63.674 63.674c0 12.324-9.243 21.567-21.567 21.567zM535.071 428.462c11.297 0 21.567-9.243 21.567-21.567s9.243-21.567 21.567-21.567 20.54 10.27 20.54 21.567c0 35.945-28.756 64.701-63.674 64.701s-64.701-28.756-64.701-64.701v-85.241c0-35.945 28.756-64.701 64.701-64.701s63.674 28.756 63.674 64.701c0 11.297-9.243 21.567-20.54 21.567s-21.567-10.27-21.567-21.567-10.27-21.567-21.567-21.567-21.567 9.243-21.567 21.567v85.241c0 12.324 9.243 21.567 21.567 21.567zM1025.979 265.167l-64.701 170.482c-6.162 17.459-33.891 17.459-40.053 0l-63.674-170.482c-4.108-11.297 1.027-23.621 12.324-27.729s23.621 1.027 27.729 12.324l10.27 28.756h66.755l11.297-28.756c3.081-8.216 11.297-13.351 19.513-13.351 3.081 0 5.135 0 8.216 1.027 10.27 4.108 16.432 16.432 12.324 27.729zM924.306 321.654l17.459 46.215 17.459-46.215h-34.918zM234.157 350.41c-6.162 16.432-33.891 16.432-40.053 0l-64.701-171.509c-4.108-10.27 2.054-22.594 13.351-26.702 10.27-4.108 22.594 1.027 26.702 12.324l11.297 28.756h66.755l10.27-28.756c4.108-9.243 11.297-14.378 20.54-14.378 2.054 0 5.135 1.027 7.189 2.054 11.297 4.108 16.432 16.432 12.324 26.702l-63.674 171.509zM197.185 236.411l16.432 45.188 17.459-45.188h-33.891zM363.56 535.27h-42.107c-12.324 0-21.567-9.243-21.567-21.567v-170.482c0-12.324 9.243-21.567 21.567-21.567s20.54 9.243 20.54 21.567v63.674h21.567c35.945 0 64.701 28.756 64.701 64.701s-28.756 63.674-64.701 63.674zM363.56 450.029h-21.567v43.134h21.567c12.324 0 21.567-10.27 21.567-21.567s-9.243-21.567-21.567-21.567zM791.822 364.788c-12.324 0-21.567-10.27-21.567-21.567v-64.701h-85.241v64.701c0 11.297-10.27 21.567-21.567 21.567s-21.567-10.27-21.567-21.567v-171.509c0-11.297 9.243-21.567 21.567-21.567s21.567 10.27 21.567 21.567v64.701h85.241v-64.701c0-11.297 9.243-21.567 21.567-21.567s21.567 10.27 21.567 21.567v171.509c0 11.297-10.27 21.567-21.567 21.567zM470.368 513.703c0-11.297 10.27-20.54 21.567-20.54s21.567 9.243 21.567 20.54v149.942h43.134c11.297 0 21.567 10.27 21.567 21.567s-10.27 21.567-21.567 21.567h-128.375c-12.324 0-21.567-9.243-21.567-21.567s9.243-21.567 21.567-21.567h42.107v-149.942z" />
<glyph unicode="&#xe822;" glyph-name="checkbox" d="M235.184 214.844h-170.482c-35.945 0-64.701-28.756-64.701-64.701v-171.509c0-34.918 28.756-63.674 64.701-63.674h170.482c35.945 0 64.701 28.756 64.701 63.674v171.509c0 35.945-28.756 64.701-64.701 64.701zM256.751-21.367c0-11.297-9.243-20.54-21.567-20.54h-170.482c-12.324 0-21.567 9.243-21.567 20.54v171.509c0 12.324 9.243 21.567 21.567 21.567h170.482c12.324 0 21.567-9.243 21.567-21.567v-171.509zM406.694 728.348h598.745c12.324 0 21.567 9.243 21.567 21.567s-9.243 20.54-21.567 20.54h-598.745c-12.324 0-21.567-9.243-21.567-20.54s9.243-21.567 21.567-21.567zM1005.439 428.462h-598.745c-12.324 0-21.567-9.243-21.567-21.567s9.243-21.567 21.567-21.567h598.745c12.324 0 21.567 10.27 21.567 21.567s-9.243 21.567-21.567 21.567zM1005.439 86.469h-598.745c-12.324 0-21.567-10.27-21.567-21.567s9.243-21.567 21.567-21.567h598.745c12.324 0 21.567 9.243 21.567 21.567s-9.243 21.567-21.567 21.567zM302.967 932.721l-30.81-45.188c-10.27 7.189-23.621 11.297-36.972 11.297h-170.482c-35.945 0-64.701-28.756-64.701-63.674v-171.509c0-34.918 28.756-63.674 64.701-63.674h170.482c35.945 0 64.701 28.756 64.701 63.674v171.509c0 5.135-1.027 10.27-2.054 14.378l41.080 58.539c6.162 10.27 4.108 23.621-6.162 29.783-9.243 7.189-22.594 5.135-29.783-5.135zM256.751 663.647c0-11.297-9.243-21.567-21.567-21.567h-170.482c-12.324 0-21.567 10.27-21.567 21.567v171.509c0 11.297 9.243 21.567 21.567 21.567h170.482c5.135 0 8.216-2.054 12.324-4.108l-79.079-112.97-46.215 46.215c-8.216 8.216-21.567 8.216-30.81 0s-8.216-21.567 0-29.783l64.701-64.701c4.108-4.108 9.243-6.162 15.405-6.162 0 0 1.027 0 2.054 0 6.162 1.027 11.297 4.108 15.405 9.243l67.782 97.565v-128.375zM302.967 590.729l-30.81-45.188c-10.27 7.189-23.621 11.297-36.972 11.297h-170.482c-35.945 0-64.701-28.756-64.701-63.674v-171.509c0-35.945 28.756-64.701 64.701-64.701h170.482c35.945 0 64.701 28.756 64.701 64.701v171.509c0 5.135-1.027 9.243-2.054 14.378l41.080 58.539c6.162 9.243 4.108 22.594-6.162 29.783-9.243 7.189-22.594 4.108-29.783-5.135zM256.751 321.654c0-12.324-9.243-21.567-21.567-21.567h-170.482c-12.324 0-21.567 9.243-21.567 21.567v171.509c0 11.297 9.243 20.54 21.567 20.54h170.482c5.135 0 8.216-1.027 12.324-3.081l-79.079-112.97-46.215 46.215c-8.216 8.216-21.567 8.216-30.81 0s-8.216-22.594 0-30.81l64.701-63.674c4.108-4.108 9.243-6.162 15.405-6.162 0 0 1.027 0 2.054 0 6.162 0 11.297 4.108 15.405 9.243l67.782 96.538v-127.348z" />
<glyph unicode="&#xe828;" glyph-name="divider" d="M43.134 535.27h940.738c12.324 0 21.567 10.27 21.567 21.567s-9.243 21.567-21.567 21.567h-940.738c-12.324 0-21.567-9.243-21.567-21.567s9.243-21.567 21.567-21.567zM385.127 706.781h256.751c8.216 0 15.405 5.135 19.513 12.324s2.054 15.405-2.054 21.567l-128.375 171.509c-8.216 11.297-26.702 11.297-34.918 0l-128.375-171.509c-4.108-6.162-5.135-14.378-2.054-21.567 4.108-7.189 11.297-12.324 19.513-12.324zM513.502 863.912l85.241-113.997h-170.482l85.241 113.997zM641.879 150.143h-256.751c-8.216 0-15.405-4.108-19.513-11.297-3.081-7.189-2.054-16.432 2.054-22.594l128.375-171.509c4.108-5.135 11.297-8.216 17.459-8.216s13.351 3.081 17.459 8.216l128.375 171.509c4.108 6.162 5.135 15.405 2.054 22.594-4.108 7.189-11.297 11.297-19.513 11.297zM513.502-5.962l-85.241 113.997h170.482l-85.241-113.997zM983.872 321.654h-940.738c-12.324 0-21.567-9.243-21.567-21.567s9.243-21.567 21.567-21.567h940.738c12.324 0 21.567 10.27 21.567 21.567s-9.243 21.567-21.567 21.567z" />
<glyph unicode="&#xe84e;" glyph-name="radio" d="M149.942 920.397c-83.187 0-149.942-66.755-149.942-149.942s66.755-148.915 149.942-148.915 149.942 66.755 149.942 148.915-67.782 149.942-149.942 149.942zM149.942 663.647c-59.566 0-106.808 48.269-106.808 106.808s47.242 107.835 106.808 107.835 106.808-48.269 106.808-107.835-48.269-106.808-106.808-106.808zM149.942 578.405c-83.187 0-149.942-67.782-149.942-149.942s66.755-149.942 149.942-149.942 149.942 67.782 149.942 149.942-67.782 149.942-149.942 149.942zM149.942 321.654c-59.566 0-106.808 48.269-106.808 106.808s47.242 106.808 106.808 106.808 106.808-48.269 106.808-106.808-48.269-106.808-106.808-106.808zM149.942 236.411c-83.187 0-149.942-67.782-149.942-149.942s66.755-149.942 149.942-149.942 149.942 66.755 149.942 149.942-67.782 149.942-149.942 149.942zM149.942-21.367c-59.566 0-106.808 48.269-106.808 107.835s47.242 106.808 106.808 106.808 106.808-48.269 106.808-106.808-48.269-107.835-106.808-107.835zM406.694 749.915h598.745c12.324 0 21.567 9.243 21.567 20.54s-9.243 21.567-21.567 21.567h-598.745c-12.324 0-21.567-9.243-21.567-21.567s9.243-20.54 21.567-20.54zM1005.439 450.029h-598.745c-12.324 0-21.567-9.243-21.567-21.567s9.243-21.567 21.567-21.567h598.745c12.324 0 21.567 10.27 21.567 21.567s-9.243 21.567-21.567 21.567zM1005.439 108.036h-598.745c-12.324 0-21.567-10.27-21.567-21.567s9.243-21.567 21.567-21.567h598.745c12.324 0 21.567 9.243 21.567 21.567s-9.243 21.567-21.567 21.567zM149.942 493.163c-35.945 0-64.701-28.756-64.701-64.701s28.756-63.674 64.701-63.674 63.674 28.756 63.674 63.674-28.756 64.701-63.674 64.701zM149.942 406.895c-12.324 0-21.567 10.27-21.567 21.567s9.243 21.567 21.567 21.567 21.567-9.243 21.567-21.567-10.27-21.567-21.567-21.567z" />
<glyph unicode="&#xe869;" glyph-name="toggle" d="M235.184 920.397h-170.482c-35.945 0-64.701-28.756-64.701-63.674v-171.509c0-34.918 28.756-63.674 64.701-63.674h170.482c35.945 0 64.701 28.756 64.701 63.674v171.509c0 34.918-28.756 63.674-64.701 63.674zM256.751 685.214c0-11.297-9.243-21.567-21.567-21.567h-170.482c-12.324 0-21.567 10.27-21.567 21.567v171.509c0 11.297 9.243 21.567 21.567 21.567h170.482c12.324 0 21.567-10.27 21.567-21.567v-171.509zM193.077 792.022h-21.567v21.567c0 12.324-10.27 21.567-21.567 21.567s-21.567-9.243-21.567-21.567v-21.567h-21.567c-11.297 0-21.567-9.243-21.567-21.567s10.27-20.54 21.567-20.54h21.567v-21.567c0-12.324 9.243-21.567 21.567-21.567s21.567 9.243 21.567 21.567v21.567h21.567c11.297 0 20.54 9.243 20.54 20.54s-9.243 21.567-20.54 21.567zM235.184 578.405h-170.482c-35.945 0-64.701-28.756-64.701-64.701v-170.482c0-35.945 28.756-64.701 64.701-64.701h170.482c35.945 0 64.701 28.756 64.701 64.701v170.482c0 35.945-28.756 64.701-64.701 64.701zM256.751 343.221c0-12.324-9.243-21.567-21.567-21.567h-170.482c-12.324 0-21.567 9.243-21.567 21.567v170.482c0 12.324 9.243 21.567 21.567 21.567h170.482c12.324 0 21.567-9.243 21.567-21.567v-170.482zM193.077 450.029h-21.567v21.567c0 11.297-10.27 21.567-21.567 21.567s-21.567-10.27-21.567-21.567v-21.567h-21.567c-11.297 0-21.567-9.243-21.567-21.567s10.27-21.567 21.567-21.567h21.567v-21.567c0-11.297 9.243-20.54 21.567-20.54s21.567 9.243 21.567 20.54v21.567h21.567c11.297 0 20.54 10.27 20.54 21.567s-9.243 21.567-20.54 21.567zM235.184 236.411h-170.482c-35.945 0-64.701-28.756-64.701-64.701v-171.509c0-34.918 28.756-63.674 64.701-63.674h170.482c35.945 0 64.701 28.756 64.701 63.674v171.509c0 35.945-28.756 64.701-64.701 64.701zM256.751 0.2c0-11.297-9.243-21.567-21.567-21.567h-170.482c-12.324 0-21.567 10.27-21.567 21.567v171.509c0 12.324 9.243 21.567 21.567 21.567h170.482c12.324 0 21.567-9.243 21.567-21.567v-171.509zM193.077 108.036h-21.567v20.54c0 12.324-10.27 21.567-21.567 21.567s-21.567-9.243-21.567-21.567v-20.54h-21.567c-11.297 0-21.567-10.27-21.567-21.567s10.27-21.567 21.567-21.567h21.567v-21.567c0-12.324 9.243-21.567 21.567-21.567s21.567 9.243 21.567 21.567v21.567h21.567c11.297 0 20.54 9.243 20.54 21.567s-9.243 21.567-20.54 21.567zM406.694 749.915h598.745c12.324 0 21.567 9.243 21.567 20.54s-9.243 21.567-21.567 21.567h-598.745c-12.324 0-21.567-9.243-21.567-21.567s9.243-20.54 21.567-20.54zM1005.439 450.029h-598.745c-12.324 0-21.567-9.243-21.567-21.567s9.243-21.567 21.567-21.567h598.745c12.324 0 21.567 10.27 21.567 21.567s-9.243 21.567-21.567 21.567zM1005.439 108.036h-598.745c-12.324 0-21.567-10.27-21.567-21.567s9.243-21.567 21.567-21.567h598.745c12.324 0 21.567 9.243 21.567 21.567s-9.243 21.567-21.567 21.567z" />
<glyph unicode="&#xe86d;" glyph-name="text" d="M1005.439 728.348h-983.872c-12.324 0-21.567 9.243-21.567 21.567s9.243 20.54 21.567 20.54h983.872c12.324 0 21.567-9.243 21.567-20.54s-9.243-21.567-21.567-21.567zM706.58 599.972h-685.013c-12.324 0-21.567 9.243-21.567 21.567s9.243 20.54 21.567 20.54h685.013c11.297 0 20.54-9.243 20.54-20.54s-9.243-21.567-20.54-21.567zM1005.439 471.596h-983.872c-12.324 0-21.567 9.243-21.567 21.567s9.243 20.54 21.567 20.54h983.872c12.324 0 21.567-9.243 21.567-20.54s-9.243-21.567-21.567-21.567zM706.58 343.221h-685.013c-12.324 0-21.567 9.243-21.567 21.567s9.243 20.54 21.567 20.54h685.013c11.297 0 20.54-9.243 20.54-20.54s-9.243-21.567-20.54-21.567zM1005.439 214.844h-983.872c-12.324 0-21.567 9.243-21.567 21.567s9.243 20.54 21.567 20.54h983.872c12.324 0 21.567-9.243 21.567-20.54s-9.243-21.567-21.567-21.567zM706.58 86.469h-685.013c-12.324 0-21.567 9.243-21.567 21.567s9.243 20.54 21.567 20.54h685.013c11.297 0 20.54-9.243 20.54-20.54s-9.243-21.567-20.54-21.567z" />
<glyph unicode="&#xe898;" glyph-name="section" d="M59.566 873.155c-16.432-16.432-20.54-37.999-20.54-63.674v-762.038c0-25.675 8.216-47.242 25.675-63.674s37.999-25.675 63.674-25.675h770.254c25.675 0 47.242 8.216 64.701 25.675 16.432 16.432 25.675 37.999 25.675 63.674v762.038c0 25.675-9.243 47.242-25.675 63.674-21.567 17.459-43.134 25.675-64.701 25.675h-770.254c-29.783 5.135-51.35-8.216-68.809-25.675M128.375 714.997h752.795v-282.427h-752.795v282.427M886.307 339.113v-283.454h-757.93v283.454h757.93z" />
<glyph unicode="&#xe8f0;" glyph-name="book" d="M748.19 315.943q52.153 0 108.318-10.030v-64.189q-40.117 10.030-108.318 10.030-120.352 0-192.564-42.123v72.211q76.222 34.099 192.564 34.099zM555.627 396.177q84.246 34.099 192.564 34.099 52.153 0 108.318-10.030v-64.189q-40.117 10.030-108.318 10.030-120.352 0-192.564-42.123v72.211zM748.19 480.424q-120.352 0-192.564-42.123v70.205q80.234 36.105 192.564 36.105 52.153 0 108.318-10.030v-66.195q-48.141 12.036-108.318 12.036zM898.631 137.42v493.444q-66.195 20.060-150.441 20.060-130.381 0-234.687-64.189v-491.438q104.306 64.189 234.687 64.189 78.228 0 150.441-22.066zM748.19 737.175q152.447 0 236.693-64.189v-623.826q0-8.024-7.021-15.045t-15.045-7.021q-6.018 0-10.030 2.006-82.24 44.129-204.599 44.129-130.381 0-234.687-64.189-86.252 64.189-234.687 64.189-108.318 0-204.599-46.135-2.006 0-5.015-1.003t-5.015-1.003q-8.024 0-15.045 6.018t-7.021 14.042v627.838q86.252 64.189 236.693 64.189 148.435 0 234.687-64.189 86.252 64.189 234.687 64.189z" />
<glyph unicode="&#xe8f7;" glyph-name="plus-circle-o" d="M513.502-47.042c-260.859 0-474.476 214.644-474.476 475.503s213.617 475.503 474.476 475.503 475.503-214.644 475.503-475.503-214.644-475.503-475.503-475.503zM513.502 47.443c209.509 0 381.019 171.509 381.019 381.019s-171.509 381.019-381.019 381.019-381.019-171.509-381.019-381.019 171.509-381.019 381.019-381.019zM466.26 475.704v179.726c0 25.675 21.567 47.242 47.242 47.242s47.242-21.567 47.242-47.242v-179.726h179.726c25.675 0 47.242-21.567 47.242-47.242s-21.567-47.242-47.242-47.242h-179.726v-179.726c0-25.675-21.567-47.242-47.242-47.242s-47.242 21.567-47.242 47.242v179.726h-179.726c-25.675 0-47.242 21.567-47.242 47.242s21.567 47.242 47.242 47.242h179.726z" />
<glyph unicode="&#xe900;" horiz-adv-x="4499" d="M3735.269 759.728c0.656-0.001 1.313-0.001 1.989-0.002 25.837-0.075 51-4.895 76.188-10.301 0.591-0.127 1.183-0.253 1.792-0.384 13.723-2.946 27.376-6.176 41.030-9.422 27.035-6.425 54.094-12.669 81.319-18.241 1.067-0.218 1.067-0.218 2.155-0.441 64.447-13.156 129.903-20.808 195.694-21.616 0.874-0.011 1.748-0.022 2.648-0.034 5.803-0.061 11.602-0.040 17.404 0.034 0.468 0.006 0.936 0.011 1.418 0.017 68.791 0.881 136.966 9.482 246.051 33.313 0.546 0.136 1.093 0.272 1.655 0.412 1.010 0.252 2.019 0.505 3.029 0.76 14.693 3.669 28.957 2.029 41.947-5.76 2.396-1.627 4.551-3.391 6.684-5.347 0.489-0.428 0.979-0.856 1.483-1.298 38.114-35.363 39.3-108.098 41.227-156.466 0.189-5.56 0.192-11.123 0.203-16.686 0.005-1.375 0.009-2.751 0.014-4.126 0.013-4.391 0.016-8.783 0.017-13.174 0-0.751 0.001-1.503 0.001-2.277 0.005-25.403-0.465-50.659-2.173-76.011-0.059-0.891-0.118-1.781-0.177-2.672-3.54-53.508-9.443-106.841-35.917-270.707-0.085-0.443-0.171-0.886-0.259-1.342-6.651-34.493-14.038-68.806-22.216-102.971-0.165-0.689-0.329-1.377-0.499-2.087-0.882-3.678-1.786-7.35-2.713-11.017-0.355-1.455-0.671-2.913-0.977-4.379-1.122-4.861-2.265-7.524-6.555-10.212-0.59-0.332-1.181-0.663-1.789-1.005-0.93-0.569-0.93-0.569-1.879-1.15-1.302-0.796-2.61-1.581-3.925-2.356-2.529-1.508-4.992-3.11-7.46-4.716-7.829-5.073-15.841-9.835-23.916-14.504-0.916-0.531-0.916-0.531-1.85-1.072-9.628-5.565-19.416-10.781-29.324-15.829-2.155-1.099-4.305-2.207-6.456-3.316-50.355-25.766-105.265-43.834-242.209-66.167-0.511-0.042-1.023-0.085-1.55-0.128-10.324-0.81-20.632-1.16-30.985-1.185-1.206-0.005-2.411-0.009-3.617-0.014-3.829-0.013-7.658-0.016-11.487-0.017-0.978 0-0.978 0-1.976-0.001-18.701-0.004-37.312 0.063-55.932 2.006-1.705 0.176-3.412 0.341-5.118 0.504-56.307 5.432-111.53 18.365-220.504 61.742-0.815 0.386-0.815 0.386-1.647 0.779-23.044 10.926-45.207 23.632-66.739 37.278-0.626 0.396-1.252 0.793-1.896 1.201-0.573 0.366-1.145 0.732-1.735 1.109-0.754 0.482-0.754 0.482-1.523 0.973-2.016 1.389-2.524 1.981-3.11 4.428-0.185 1.006-0.364 2.012-0.539 3.020-0.102 0.565-0.205 1.131-0.311 1.713-0.229 1.268-0.456 2.536-0.68 3.805-0.377 2.132-0.761 4.262-1.146 6.393-0.517 2.861-1.032 5.722-1.545 8.584-1.187 6.616-2.394 13.229-3.603 19.842-0.103 0.565-0.207 1.13-0.313 1.713-0.429 2.347-0.859 4.695-1.288 7.042-1.252 6.843-2.5 13.686-3.748 20.529-0.117 0.639-0.233 1.278-0.353 1.936-4.574 25.079-9.143 50.158-13.706 75.239-0.293 1.609-0.586 3.218-0.878 4.827-24.772 136.13-24.772 136.13-52.231 361.803-0.032 0.572-0.065 1.145-0.098 1.735-0.603 10.928-0.696 21.852-0.694 32.794 0 1.925-0.005 3.851-0.014 5.776-0.079 16.996 0.264 34.038 2.686 50.891 0.114 0.817 0.228 1.633 0.345 2.475 2.92 20.21 7.356 41.391 19.833 58.058 0.507 0.696 1.015 1.392 1.538 2.11 14.888 20.119 34.547 34.532 58.953 40.501 0.538 0.133 1.076 0.266 1.631 0.403 10.056 2.322 20.054 2.711 30.327 2.689z" />
<glyph unicode="&#xe901;" horiz-adv-x="4499" d="M0 573.661c23.381 0 46.762 0 70.851 0 5.365-10.729 5.365-10.729 7.345-15.326 0.228-0.522 0.455-1.044 0.689-1.582 0.485-1.112 0.968-2.224 1.451-3.337 1.314-3.028 2.636-6.052 3.959-9.076 0.407-0.931 0.407-0.931 0.822-1.881 2.773-6.331 5.612-12.631 8.46-18.929 4.325-9.569 8.576-19.169 12.783-28.79 3.707-8.474 7.471-16.922 11.279-25.351 4.324-9.57 8.576-19.169 12.783-28.79 3.707-8.474 7.471-16.922 11.279-25.351 4.324-9.57 8.576-19.169 12.783-28.79 3.707-8.474 7.471-16.922 11.279-25.351 4.324-9.57 8.576-19.169 12.783-28.79 3.707-8.475 7.471-16.922 11.279-25.351 4.286-9.488 8.509-19.002 12.682-28.541 4.78-10.925 9.618-21.824 14.474-32.716 0.275-0.617 0.55-1.234 0.833-1.87 0.514-1.154 1.028-2.307 1.543-3.46 1.122-2.518 2.222-5.036 3.219-7.607 3.482 7.405 6.879 14.845 10.235 22.308 0.258 0.574 0.516 1.148 0.783 1.739 4.43 9.849 8.788 19.73 13.119 29.623 3.708 8.468 7.447 16.923 11.205 25.369 0.278 0.625 0.556 1.25 0.842 1.893 1.411 3.17 2.822 6.34 4.233 9.51 2.517 5.654 5.029 11.309 7.542 16.965 1.392 3.132 2.784 6.265 4.176 9.397 0.557 1.253 1.114 2.507 1.671 3.76 27.597 62.094 55.195 124.188 97.922 220.324 23.381 0 46.762 0 70.851 0 0-145.579 0-291.158 0-441.149-24.263 0-48.526 0-73.525 0-0.221 90.436-0.441 180.871-0.668 274.047-3.97-8.823-7.941-17.646-12.031-26.736-5.431-11.864-5.431-11.864-8.060-17.601-2.984-6.526-5.883-13.089-8.786-19.652-3.232-7.305-6.547-14.564-9.936-21.798-2.963-6.349-5.812-12.745-8.644-19.153-3.498-7.915-7.068-15.787-10.739-23.624-2.963-6.349-5.812-12.746-8.645-19.154-3.498-7.915-7.068-15.787-10.739-23.624-2.963-6.349-5.812-12.746-8.645-19.154-3.498-7.915-7.068-15.787-10.739-23.624-2.963-6.349-5.812-12.746-8.645-19.154-4.557-10.308-9.252-20.542-14.037-30.747-1.544-3.309-3.088-6.617-4.679-10.026-16.102 0-32.204 0-48.794 0-6.137 12.275-6.137 12.275-8.272 17.057-0.245 0.544-0.491 1.089-0.743 1.65-0.518 1.151-1.036 2.302-1.552 3.454-1.384 3.087-2.775 6.17-4.164 9.254-0.28 0.622-0.56 1.243-0.848 1.884-2.664 5.914-5.362 11.813-8.066 17.709-3.535 7.714-7.029 15.445-10.489 23.193-2.846 6.364-5.739 12.705-8.644 19.042-3.618 7.894-7.198 15.804-10.739 23.734-2.846 6.364-5.74 12.706-8.645 19.044-3.618 7.894-7.198 15.804-10.739 23.734-2.846 6.364-5.74 12.706-8.645 19.044-3.618 7.894-7.198 15.804-10.739 23.734-2.846 6.364-5.74 12.706-8.645 19.044-4.736 10.336-9.398 20.701-14.037 31.081-2.867 6.397-5.735 12.793-8.689 19.384-0.221-89.774-0.441-179.548-0.668-272.042-24.263 0-48.526 0-73.525 0 0 145.579 0 291.158 0 441.149z" />
<glyph unicode="&#xe902;" horiz-adv-x="4499" d="M3847.352 510.162c17.204 0.25 34.407 0.439 51.613 0.554 7.989 0.055 15.977 0.13 23.966 0.253 6.965 0.107 13.929 0.176 20.895 0.199 3.687 0.014 7.372 0.046 11.058 0.125 3.475 0.073 6.946 0.095 10.422 0.079 1.271 0.003 2.542 0.024 3.812 0.065 9.318 0.287 9.318 0.287 12.525-2.309 2.365-2.522 4.172-5.327 5.911-8.303 1.306-2.128 2.854-4.014 4.426-5.953 0.332-0.422 0.665-0.843 1.007-1.278 0.265-0.334 0.529-0.668 0.802-1.012 6.598-8.35 13.081-16.792 19.559-25.235 3.251-4.232 6.518-8.452 9.796-12.663 4.333-5.565 8.636-11.151 12.93-16.747 3.649-4.751 7.32-9.486 11.003-14.211 1.831-2.35 3.657-4.703 5.462-7.074 0.452-0.593 0.452-0.593 0.914-1.198 0.797-1.047 1.592-2.097 2.386-3.146 1.273-1.588 2.598-3.009 4.068-4.413 4.465 5.438 8.889 10.884 13.076 16.54 2.045 2.75 4.159 5.447 6.266 8.149 3.821 4.901 7.622 9.816 11.405 14.747 4.172 5.438 8.367 10.858 12.578 16.266 3.4 4.368 6.778 8.752 10.148 13.144 4.17 5.435 8.361 10.852 12.571 16.256 2.918 3.747 5.814 7.51 8.695 11.285 0.722 0.925 0.722 0.925 1.46 1.869 0.471 0.69 0.941 1.381 1.426 2.092 1.523 1.805 1.879 1.911 4.373 2.412 0.973 0.017 1.946 0.012 2.918-0.011 0.538 0.003 1.076 0.007 1.63 0.010 1.801 0.007 3.6-0.015 5.4-0.037 1.291-0.001 2.582 0 3.874 0.002 3.505 0.001 7.009-0.022 10.514-0.050 3.663-0.025 7.326-0.027 10.989-0.032 6.936-0.012 13.872-0.045 20.808-0.086 7.896-0.045 15.793-0.067 23.689-0.087 16.243-0.042 32.486-0.112 48.729-0.202-1.224-2.068-2.444-3.983-3.99-5.825-0.378-0.454-0.756-0.907-1.145-1.375-0.401-0.478-0.802-0.956-1.215-1.448-2.947-3.542-5.863-7.098-8.689-10.736-3.114-4.002-6.329-7.915-9.564-11.82-2.425-2.935-4.808-5.896-7.146-8.901-3.115-4.002-6.329-7.915-9.564-11.82-2.425-2.935-4.808-5.896-7.146-8.901-3.115-4.002-6.329-7.915-9.564-11.82-2.425-2.935-4.808-5.896-7.146-8.901-3.115-4.002-6.329-7.915-9.564-11.82-2.425-2.935-4.808-5.896-7.146-8.901-3.115-4.002-6.329-7.915-9.564-11.82-2.425-2.935-4.808-5.896-7.146-8.901-3.115-4.002-6.329-7.915-9.564-11.82-2.425-2.935-4.808-5.896-7.146-8.901-3.115-4.002-6.329-7.915-9.564-11.82-2.724-3.297-5.384-6.636-8.010-10.011-3.954-5.061-8.070-9.99-12.17-14.932 0.861-2.473 1.834-4.083 3.634-5.974 2.336-2.542 4.489-5.168 6.601-7.896 2.468-3.179 4.99-6.297 7.603-9.358 2.525-2.958 4.996-5.95 7.413-8.997 1.914-2.402 3.851-4.786 5.789-7.17 0.378-0.465 0.756-0.93 1.146-1.409 2.554-3.139 5.115-6.272 7.679-9.403 3.055-3.737 6.095-7.486 9.137-11.233 1.824-2.246 3.649-4.492 5.474-6.738 2.204-2.712 4.408-5.425 6.611-8.138 3.138-3.864 6.276-7.729 9.431-11.58 3.536-4.316 7.051-8.649 10.568-12.98 1.824-2.246 3.649-4.492 5.474-6.738 2.204-2.712 4.408-5.425 6.611-8.138 3.138-3.864 6.276-7.729 9.431-11.58 3.536-4.316 7.051-8.649 10.568-12.98 1.824-2.246 3.649-4.492 5.474-6.738 2.204-2.712 4.408-5.425 6.611-8.138 3.138-3.864 6.276-7.729 9.431-11.58 2.772-3.383 5.532-6.776 8.287-10.173 1.943-2.395 3.892-4.785 5.852-7.166 0.396-0.482 0.791-0.965 1.199-1.462 0.759-0.925 1.52-1.848 2.283-2.77 0.343-0.419 0.686-0.838 1.040-1.27 0.302-0.366 0.603-0.732 0.914-1.109 0.878-1.207 1.495-2.45 2.148-3.789-17.314-0.203-34.628-0.356-51.943-0.45-8.040-0.045-16.079-0.106-24.119-0.205-7.009-0.087-14.016-0.143-21.026-0.162-3.711-0.011-7.42-0.038-11.13-0.101-3.495-0.059-6.988-0.077-10.484-0.064-1.28-0.002-2.56-0.020-3.839-0.053-9.407-0.234-9.407-0.234-12.3 1.885-2.329 2.326-3.899 4.999-5.525 7.84-0.803 1.073-1.62 2.135-2.465 3.175-0.366 0.47-0.732 0.94-1.11 1.424-0.364 0.467-0.729 0.935-1.104 1.416-3.218 4.132-6.42 8.274-9.608 12.428-2.133 2.773-4.284 5.532-6.433 8.292-2.683 3.446-5.361 6.896-8.021 10.36-4.207 5.479-8.455 10.926-12.7 16.376-4.778 6.136-9.552 12.275-14.287 18.444-2.133 2.773-4.284 5.532-6.433 8.292-6.543 8.407-13.008 16.865-19.384 25.399-2.484-2.391-4.663-4.912-6.768-7.645-0.652-0.838-1.304-1.676-1.956-2.514-0.329-0.424-0.658-0.848-0.996-1.286-1.206-1.553-2.422-3.097-3.639-4.641-3.139-3.983-6.256-7.982-9.367-11.987-3.699-4.761-7.415-9.509-11.145-14.247-1.522-1.934-3.043-3.87-4.563-5.805-0.613-0.78-1.225-1.56-1.838-2.339-0.455-0.579-0.455-0.579-0.919-1.17-32.167-40.94-32.167-40.94-33.087-42.111-0.61-0.776-1.22-1.553-1.83-2.33-1.572-2.001-3.145-4.001-4.72-5.998-0.323-0.41-0.646-0.82-0.979-1.243-0.608-0.772-1.216-1.543-1.825-2.313-0.421-0.535-0.421-0.535-0.851-1.081-0.416-0.502-0.416-0.502-0.841-1.014-0.945-1.195-0.945-1.195-1.507-2.593-0.938-1.825-1.727-2.772-3.404-3.98-4.168-0.819-8.31-0.676-12.543-0.607-1.298 0.002-2.596 0.001-3.894-0.002-3.52-0.002-7.039 0.030-10.56 0.067-3.68 0.033-7.36 0.037-11.039 0.043-6.967 0.017-13.933 0.060-20.9 0.114-7.932 0.060-15.864 0.089-23.796 0.116-16.315 0.056-32.63 0.15-48.945 0.269 1.134 3.089 2.794 5.219 4.971 7.645 2.788 3.174 5.481 6.39 8.063 9.734 2.84 3.667 5.803 7.204 8.839 10.711 2.378 2.751 4.677 5.554 6.934 8.406 4.315 5.44 8.777 10.767 13.193 16.126 3.165 3.841 6.319 7.691 9.468 11.545 1.003 1.225 2.005 2.451 3.008 3.676 0.496 0.607 0.993 1.213 1.504 1.838 4.512 5.514 4.512 5.514 6.029 7.368 0.959 1.173 1.919 2.346 2.877 3.52 3.501 4.284 7.017 8.556 10.535 12.826 3.165 3.841 6.319 7.691 9.468 11.545 1.003 1.225 2.005 2.451 3.008 3.676 0.496 0.607 0.993 1.213 1.504 1.838 4.512 5.514 4.512 5.514 6.029 7.368 0.959 1.173 1.919 2.346 2.877 3.52 3.501 4.284 7.017 8.556 10.535 12.826 3.165 3.841 6.319 7.691 9.468 11.545 1.003 1.225 2.005 2.451 3.008 3.676 0.496 0.607 0.993 1.213 1.504 1.838 4.512 5.514 4.512 5.514 6.029 7.368 0.959 1.173 1.919 2.346 2.877 3.52 3.094 3.786 6.199 7.563 9.308 11.337 5.388 6.54 10.764 13.088 16.042 19.718-2.092 3.281-4.443 6.248-6.935 9.232-0.836 1.009-1.673 2.017-2.509 3.026-0.427 0.514-0.855 1.029-1.295 1.558-2.067 2.49-4.123 4.989-6.18 7.489-0.392 0.476-0.783 0.951-1.187 1.441-3.108 3.774-6.206 7.556-9.299 11.342-1.003 1.225-2.005 2.451-3.008 3.676-1.465 1.791-2.93 3.581-4.394 5.373-3.094 3.786-6.199 7.563-9.308 11.337-3.574 4.337-7.139 8.682-10.695 13.034-1.003 1.225-2.005 2.451-3.008 3.676-1.465 1.791-2.93 3.581-4.394 5.373-3.094 3.786-6.199 7.563-9.308 11.337-3.574 4.337-7.139 8.682-10.695 13.034-1.003 1.225-2.005 2.451-3.008 3.676-1.465 1.791-2.93 3.581-4.394 5.373-3.094 3.786-6.199 7.563-9.308 11.337-4.034 4.896-8.055 9.802-12.068 14.715-3.099 3.791-6.207 7.574-9.321 11.352-3.574 4.337-7.139 8.682-10.695 13.034-1.003 1.225-2.005 2.451-3.008 3.676-0.495 0.605-0.989 1.21-1.499 1.833-1.019 1.244-2.039 2.487-3.060 3.728-9.144 11.127-9.144 11.127-9.144 12.151z" />
<glyph unicode="&#xe903;" horiz-adv-x="4499" d="M2825.358 593.044c26.028 0 52.056 0 78.872 0 0-151.976 0-303.952 0-460.533-25.587 0-51.173 0-77.535 0-0.331 22.499-0.331 22.499-0.668 45.452-2.316-3.639-2.316-3.639-4.679-7.352-1.693-2.306-3.507-4.494-5.347-6.684-0.393-0.476-0.786-0.951-1.191-1.441-2.699-3.19-5.598-5.947-8.836-8.585-0.95-0.775-0.95-0.775-1.919-1.567-5.304-4.244-10.869-7.825-16.796-11.133-0.395-0.226-0.789-0.451-1.195-0.683-16.246-9.187-35.727-14.001-54.361-14.181-0.566-0.007-1.132-0.013-1.715-0.020-23.128-0.212-44.539 2.343-65.716 12.21-0.721 0.334-0.721 0.334-1.457 0.674-12.802 5.987-23.779 14.349-33.968 24.057-0.658 0.616-0.658 0.616-1.329 1.245-28.978 27.912-42.13 72.928-42.869 112.127-0.065 4.541-0.082 9.083-0.084 13.625 0 0.807-0.001 1.615-0.001 2.447 0.011 12.008 0.249 23.776 2.174 35.652 0.118 0.739 0.237 1.478 0.358 2.239 6.603 39.893 24.745 77.059 58.119 101.048 17.677 12.394 37.844 19.553 59.162 22.373 0.461 0.064 0.922 0.128 1.397 0.194 5.912 0.711 11.874 0.638 17.82 0.642 0.872 0.001 0.872 0.001 1.761 0.001 8.961-0.011 17.679-0.334 26.479-2.174 0.836-0.172 0.836-0.172 1.689-0.348 18.572-3.954 37.352-11.814 51.783-24.383 0.563-0.489 1.125-0.979 1.705-1.483 1.681-1.489 3.334-3.004 4.979-4.533 0.445-0.402 0.891-0.803 1.35-1.217 4.588-4.317 7.455-8.846 11.35-14.157 0.221 61.54 0.441 123.081 0.668 186.486zM2695.018 377.149c-0.561-0.446-1.122-0.893-1.7-1.352-3.974-3.351-7.172-7.235-10.332-11.347-0.39-0.483-0.781-0.965-1.183-1.462-20.226-26.526-20.46-66.751-16.603-98.258 3.425-24.55 12.869-47.746 33.022-63.284 17.894-13.169 40.368-16.885 62.030-13.724 15.873 2.658 28.756 9.21 40.374 20.321 0.5 0.45 0.999 0.9 1.514 1.363 12.968 12.107 19.43 30.187 22.757 47.18 0.098 0.5 0.197 1.001 0.298 1.516 1.925 10.771 2.422 21.654 2.375 32.573-0.001 0.609-0.003 1.218-0.004 1.845-0.1 26.603-4.264 54.119-21.594 75.273-0.458 0.569-0.917 1.137-1.389 1.723-12.724 14.986-31.259 22.871-50.551 24.658-21.591 1.661-41.962-3.443-59.016-17.023z" />
<glyph unicode="&#xe904;" horiz-adv-x="4499" d="M1423.708 573.661c28.895 0 57.79 0 87.561 0 3.759-7.519 3.759-7.519 4.878-10.162 0.256-0.603 0.513-1.206 0.777-1.827 0.268-0.636 0.536-1.272 0.812-1.928 0.293-0.689 0.585-1.379 0.887-2.089 0.632-1.488 1.262-2.977 1.892-4.466 1.538-3.635 3.081-7.268 4.624-10.901 0.538-1.268 1.077-2.536 1.615-3.805 3.728-8.782 7.489-17.55 11.252-26.317 5.574-12.993 11.126-25.995 16.662-39.005 4.9-11.515 9.82-23.020 14.754-34.52 5.574-12.993 11.126-25.995 16.662-39.005 4.9-11.515 9.82-23.020 14.754-34.52 5.574-12.993 11.126-25.995 16.662-39.005 5.228-12.287 10.482-24.564 15.747-36.836 7.5-17.484 14.955-34.987 22.401-52.494 1.414 1.414 1.884 2.404 2.656 4.229 0.388 0.911 0.388 0.911 0.784 1.841 0.281 0.668 0.561 1.336 0.85 2.024 0.297 0.701 0.595 1.401 0.901 2.123 0.988 2.33 1.972 4.663 2.956 6.995 0.695 1.64 1.39 3.28 2.085 4.919 1.264 2.98 2.526 5.96 3.787 8.942 3.12 7.375 6.256 14.744 9.395 22.112 0.948 2.225 1.895 4.45 2.843 6.675 7.948 18.66 15.947 37.298 23.946 55.936 0.993 2.314 1.985 4.627 2.978 6.941 0.19 0.443 0.38 0.886 0.576 1.342 4.25 9.912 8.47 19.836 12.693 29.759 5.015 11.782 10.049 23.554 15.097 35.322 5.254 12.247 10.49 24.5 15.708 36.762 5.549 13.041 11.121 26.072 16.709 39.097 5.087 11.858 10.154 23.725 15.207 35.598 0.646 1.518 1.293 3.036 1.939 4.554 3.341 7.847 3.341 7.847 6.68 15.694 1.163 2.734 2.329 5.468 3.495 8.201 0.318 0.749 0.636 1.498 0.964 2.27 0.28 0.655 0.56 1.309 0.848 1.984 0.235 0.551 0.469 1.102 0.711 1.669 0.568 1.221 0.568 1.221 1.237 1.89 1.091 0.064 2.185 0.081 3.278 0.080 0.71 0.001 1.419 0.002 2.15 0.003 0.785-0.002 1.57-0.005 2.379-0.007 0.822 0 1.643 0 2.49 0 2.259 0 4.518-0.004 6.778-0.008 2.359-0.004 4.717-0.005 7.076-0.005 4.469-0.002 8.939-0.008 13.408-0.014 5.087-0.007 10.174-0.011 15.261-0.015 10.467-0.007 20.934-0.019 31.401-0.034-2.067-6.345-2.067-6.345-3.28-9.057-0.231-0.521-0.463-1.042-0.701-1.578-0.246-0.546-0.492-1.092-0.745-1.655-0.263-0.59-0.526-1.179-0.796-1.787-0.858-1.923-1.72-3.845-2.582-5.767-0.606-1.355-1.211-2.711-1.816-4.067-1.529-3.423-3.061-6.845-4.594-10.266-1.268-2.829-2.533-5.659-3.799-8.49-1.374-3.073-2.749-6.145-4.125-9.217-3.633-8.113-7.248-16.234-10.857-24.357-0.278-0.625-0.555-1.25-0.842-1.894-1.99-4.479-3.979-8.958-5.968-13.437-2.325-5.236-4.65-10.472-6.977-15.708-0.283-0.637-0.566-1.274-0.858-1.931-3.613-8.131-7.239-16.256-10.885-24.372-3.261-7.266-6.496-14.544-9.73-21.822-0.282-0.636-0.565-1.272-0.856-1.927-2.041-4.593-4.081-9.187-6.121-13.781-2.325-5.236-4.65-10.472-6.977-15.708-0.283-0.637-0.566-1.273-0.857-1.929-3.613-8.132-7.24-16.257-10.885-24.374-3.261-7.266-6.496-14.544-9.73-21.822-0.282-0.636-0.565-1.272-0.856-1.927-2.041-4.593-4.081-9.187-6.121-13.781-2.325-5.236-4.65-10.472-6.977-15.708-0.283-0.637-0.566-1.273-0.857-1.929-3.613-8.132-7.24-16.257-10.885-24.374-3.261-7.266-6.496-14.544-9.73-21.822-0.282-0.636-0.565-1.272-0.856-1.927-2.041-4.593-4.081-9.187-6.121-13.781-2.325-5.236-4.65-10.472-6.977-15.708-0.424-0.955-0.424-0.955-0.857-1.929-3.613-8.132-7.24-16.257-10.885-24.374-3.261-7.266-6.496-14.544-9.73-21.822-0.28-0.63-0.56-1.26-0.848-1.908-2.043-4.6-4.086-9.199-6.129-13.799-2.193-4.938-4.386-9.877-6.58-14.815-0.885-1.993-1.77-3.986-2.655-5.979-0.538-1.211-1.076-2.421-1.613-3.632-0.37-0.833-0.37-0.833-0.747-1.683-1.696-3.817-1.696-3.817-2.441-5.306-22.719 0-45.438 0-68.846 0-6.169 12.338-6.169 12.338-8.939 18.659-0.203 0.463-0.407 0.926-0.616 1.403-0.316 0.719-0.316 0.719-0.638 1.452-0.458 1.037-0.916 2.073-1.374 3.11-0.98 2.217-1.959 4.434-2.937 6.651-2.394 5.424-4.805 10.839-7.215 16.256-1.417 3.186-2.834 6.373-4.25 9.56-0.284 0.639-0.568 1.277-0.86 1.935-1.713 3.853-3.424 7.707-5.134 11.562-1.404 3.165-2.809 6.33-4.215 9.495-0.277 0.624-0.554 1.249-0.84 1.892-4.17 9.389-8.378 18.761-12.605 28.124-4.044 8.964-8.013 17.96-11.954 26.97-3.738 8.544-7.528 17.062-11.364 25.562-0.251 0.556-0.501 1.111-0.76 1.684-0.375 0.831-0.375 0.831-0.757 1.679-3.247 7.197-6.475 14.402-9.679 21.619-0.215 0.484-0.43 0.968-0.651 1.467-0.887 1.999-1.775 3.999-2.661 5.999-1.761 3.97-3.524 7.939-5.288 11.908-0.272 0.612-0.544 1.225-0.825 1.856-0.841 1.891-1.681 3.783-2.522 5.674-6.284 14.136-6.284 14.136-9.404 21.168-1.404 3.165-2.809 6.33-4.215 9.495-0.277 0.624-0.554 1.249-0.84 1.892-4.17 9.389-8.378 18.761-12.605 28.124-4.045 8.966-8.014 17.964-11.956 26.976-3.682 8.416-7.415 16.808-11.194 25.18-4.262 9.443-8.496 18.897-12.7 28.366-0.415 0.934-0.415 0.934-0.838 1.886-1.406 3.167-2.812 6.334-4.217 9.501-2.895 6.524-5.792 13.046-8.69 19.568-0.282 0.634-0.563 1.267-0.853 1.92-3.381 7.608-6.768 15.214-10.175 22.811-0.334 0.746-0.669 1.492-1.013 2.261-1.618 3.606-3.24 7.211-4.87 10.812-0.822 1.818-1.642 3.636-2.462 5.455-0.393 0.87-0.787 1.739-1.181 2.608-0.542 1.193-1.081 2.388-1.619 3.583-0.309 0.682-0.617 1.363-0.936 2.066-0.66 1.624-0.66 1.624-0.66 2.96z" />
<glyph unicode="&#xe905;" horiz-adv-x="4499" d="M3131.196 454.893c0.671-0.001 1.342-0.002 2.033-0.004 10.678-0.033 21.127-0.445 31.68-2.21 0.65-0.104 1.301-0.208 1.971-0.315 28.902-4.788 56.291-17.555 77.57-37.784 0.385-0.36 0.77-0.719 1.166-1.090 11.083-10.409 19.835-22.226 26.907-35.673 0.427-0.807 0.427-0.807 0.863-1.63 12.565-24.070 17.994-51.56 18.521-78.579 0.014-0.495 0.027-0.99 0.041-1.499 1.067-41.453-8.451-85.407-36.135-117.477-0.433-0.506-0.865-1.012-1.311-1.533-7.101-8.091-14.621-15.638-23.42-21.862-0.357-0.26-0.714-0.52-1.082-0.789-25.428-18.46-57.952-27.945-89.242-28.089-0.686-0.005-1.373-0.009-2.080-0.014-2.201-0.012-4.402-0.016-6.604-0.017-0.751 0-1.503-0.001-2.277-0.001-10.713 0.010-21.169 0.197-31.729 2.174-0.661 0.118-1.322 0.237-2.004 0.358-38.414 6.989-72.976 26.473-95.558 58.806-20.744 30.308-28.908 66.163-28.935 102.548 0 0.55-0.001 1.1-0.001 1.667 0.045 34.883 7.217 71.963 28.242 100.641 0.456 0.637 0.912 1.273 1.381 1.93 7.697 10.534 16.358 20.141 26.692 28.149 0.362 0.283 0.725 0.567 1.098 0.859 13.967 10.851 29.553 18.519 46.359 23.872 0.5 0.159 1.001 0.319 1.516 0.483 5.962 1.859 11.972 3.224 18.118 4.321 0.862 0.155 0.862 0.155 1.741 0.314 11.453 1.925 22.882 2.487 34.478 2.443zM3082.026 377.817c-0.638-0.538-1.275-1.075-1.932-1.629-15.139-13.236-22.507-31.538-26.308-50.841-0.101-0.505-0.202-1.011-0.306-1.532-1.995-10.9-2.456-21.919-2.409-32.975 0.001-0.625 0.003-1.249 0.004-1.893 0.108-29.225 5.249-59.983 26.607-81.533 3.637-3.569 7.281-6.815 11.697-9.399 0.754-0.444 1.508-0.887 2.285-1.345 11.016-6.27 23.149-9.467 35.815-10.018 0.613-0.028 1.225-0.055 1.856-0.084 21.757-0.478 40.486 6.589 56.295 21.473 0.616 0.552 0.616 0.552 1.245 1.115 18.524 17.246 23.498 46.446 24.822 70.405 0.119 3.579 0.164 7.155 0.167 10.736 0 0.489 0.001 0.977 0.001 1.481-0.043 29.822-5.314 60.361-26.905 82.279-14.507 14.307-33.637 20.277-53.729 20.485-17.867-0.157-35.448-4.956-49.206-16.726z" />
<glyph unicode="&#xe906;" horiz-adv-x="4499" d="M2407.018 454.893c0.901-0.002 0.901-0.002 1.819-0.004 9.295-0.032 18.365-0.399 27.507-2.21 0.584-0.111 1.168-0.222 1.77-0.337 23.353-4.575 45.608-16.487 59.304-36.423 20.037-30.226 21.94-66.294 21.887-101.467-0.003-2.451-0.002-4.901-0.001-7.352 0-4.229-0.002-8.458-0.006-12.686-0.005-6.114-0.007-12.228-0.008-18.341-0.001-9.923-0.006-19.847-0.012-29.77-0.006-9.63-0.011-19.26-0.014-28.89 0-0.893 0-0.893-0.001-1.804-0.001-2.987-0.002-5.974-0.003-8.96-0.007-24.712-0.019-49.425-0.034-74.137-26.028 0-52.056 0-78.872 0-0.013 5.92-0.026 11.84-0.040 17.939-0.043 18.986-0.093 37.972-0.147 56.958-0.008 2.954-0.017 5.908-0.025 8.862-0.002 0.882-0.002 0.882-0.005 1.782-0.026 9.495-0.048 18.99-0.069 28.486-0.021 9.758-0.047 19.516-0.077 29.274-0.019 6.011-0.033 12.022-0.043 18.033-0.007 4.134-0.019 8.267-0.035 12.401-0.009 2.377-0.016 4.755-0.017 7.132 0.073 19.366 0.073 19.366-3.094 38.413-0.219 0.872-0.219 0.872-0.442 1.761-1.167 4.495-2.596 8.749-4.697 12.902-0.327 0.662-0.655 1.323-0.992 2.005-6.057 11.306-15.69 17.474-27.54 21.415-3.169 0.919-6.295 1.562-9.567 1.979-0.581 0.074-1.161 0.148-1.76 0.225-20.645 2.227-43.045-2.003-59.71-14.916-16.753-13.648-25.28-33.069-27.659-54.236-0.786-7.85-0.645-15.747-0.651-23.628-0.006-1.826-0.013-3.652-0.020-5.478-0.015-3.907-0.025-7.814-0.032-11.721-0.010-5.649-0.027-11.298-0.046-16.946-0.030-9.168-0.055-18.336-0.076-27.505-0.020-8.898-0.043-17.796-0.070-26.694-0.002-0.55-0.003-1.1-0.005-1.666-0.008-2.759-0.017-5.518-0.025-8.277-0.069-22.833-0.128-45.667-0.182-68.5-26.028 0-52.056 0-78.872 0-0.010 7.82-0.019 15.64-0.030 23.698-0.033 25.138-0.075 50.277-0.124 75.415-0.008 3.917-0.015 7.834-0.022 11.751-0.001 0.78-0.003 1.559-0.004 2.363-0.024 12.557-0.040 25.115-0.054 37.672-0.015 12.924-0.037 25.848-0.066 38.773-0.018 7.949-0.030 15.898-0.034 23.846-0.004 5.481-0.015 10.962-0.031 16.443-0.009 3.143-0.016 6.286-0.013 9.429 0.016 23.764-1.209 47.468-4.149 71.060-0.17 1.895-0.152 3.804-0.152 5.706 25.145 0 50.291 0 76.198 0 2.305-19.205 2.305-19.205 2.932-25.214 0.107-1.010 0.107-1.010 0.216-2.041 0.219-2.069 0.436-4.138 0.653-6.207 0.152-1.437 0.304-2.875 0.456-4.312 0.365-3.45 0.728-6.901 1.090-10.351 0.403 0.586 0.806 1.172 1.22 1.776 0.539 0.782 1.078 1.565 1.618 2.347 0.264 0.385 0.528 0.769 0.801 1.166 16.646 24.12 41.529 39.339 69.803 45.97 0.567 0.135 1.134 0.271 1.718 0.41 10.112 2.269 20.208 2.725 30.532 2.681z" />
<glyph unicode="&#xe907;" horiz-adv-x="4499" d="M534.726 448.668c25.807 0 51.614 0 78.204 0 0.020-8.809 0.020-8.809 0.040-17.795 0.043-18.841 0.093-37.682 0.147-56.523 0.008-2.932 0.017-5.864 0.025-8.796 0.002-0.584 0.003-1.167 0.005-1.769 0.026-9.421 0.048-18.842 0.069-28.262 0.021-9.684 0.047-19.368 0.077-29.052 0.019-5.964 0.033-11.928 0.043-17.892 0.007-4.103 0.019-8.206 0.035-12.309 0.009-2.359 0.016-4.717 0.017-7.076 0.007-8.523 0.080-17.007 0.801-25.504 0.051-0.596 0.101-1.192 0.153-1.807 1.498-15.562 6.47-31.583 18.841-41.946 15.867-11.022 35.56-12.523 54.123-9.256 17.426 3.399 32.919 13.664 43.264 28.055 1.975 3.031 3.717 6.133 5.347 9.358 0.208 0.406 0.415 0.813 0.629 1.231 5.749 11.482 8.154 23.949 8.166 36.722 0.005 1.174 0.005 1.174 0.010 2.371 0.008 2.16 0.014 4.32 0.018 6.48 0.005 2.334 0.015 4.667 0.023 7.001 0.015 4.039 0.027 8.078 0.037 12.118 0.015 5.84 0.034 11.68 0.054 17.52 0.032 9.476 0.061 18.952 0.088 28.428 0.026 9.203 0.054 18.406 0.084 27.609 0.003 0.851 0.003 0.851 0.006 1.72 0.009 2.848 0.018 5.695 0.027 8.543 0.076 23.611 0.147 47.221 0.216 70.832 26.028 0 52.056 0 78.872 0 0-104.332 0-208.663 0-316.157-25.366 0-50.732 0-76.867 0-0.221 14.337-0.441 28.675-0.668 43.446-2.647-3.529-5.294-7.058-8.021-10.695-15.961-18.101-34.838-29.846-58.193-35.927-0.504-0.133-1.008-0.266-1.528-0.403-9.762-2.401-19.559-2.687-29.553-2.647-0.927 0.002-0.927 0.002-1.872 0.004-9.397 0.031-18.591 0.345-27.83 2.21-0.594 0.118-1.188 0.237-1.799 0.358-25.226 5.188-47.773 17.244-62.639 38.791-17.473 26.622-20.816 58.779-20.682 89.83 0.009 2.579 0.006 5.157 0.004 7.736-0.001 4.444 0.005 8.887 0.017 13.33 0.016 6.424 0.022 12.848 0.024 19.272 0.004 10.429 0.018 20.857 0.037 31.286 0.018 10.117 0.033 20.233 0.041 30.35 0.001 0.626 0.001 1.252 0.002 1.897 0.003 3.141 0.005 6.282 0.008 9.423 0.021 25.964 0.058 51.929 0.101 77.893z" />
<glyph unicode="&#xe908;" horiz-adv-x="4499" d="M2011.721 454.82c0.598 0.005 1.197 0.009 1.813 0.014 1.922 0.012 3.844 0.016 5.767 0.017 0.658 0 1.315 0.001 1.993 0.001 27.834-0.030 57.372-5.078 80.18-22.226 0.694-0.506 1.387-1.012 2.102-1.533 31.19-23.073 47.501-58.457 53.373-96.164 2.758-18.965 2.008-37.191 2.008-56.705-71.907 0-143.815 0-217.901 0 1.315-13.155 1.315-13.155 3.802-26.026 0.169-0.681 0.339-1.361 0.513-2.062 3.406-13.048 9.338-25.365 18.411-35.41 0.507-0.563 1.015-1.125 1.538-1.705 17.094-17.989 42.433-25.071 66.64-25.7 0.783-0.027 1.566-0.053 2.373-0.081 33.432-0.59 69.26 7.837 95.467 29.535 0.358 0.206 0.715 0.412 1.084 0.624 2.005-0.668 2.005-0.668 3.096-2.662 0.405-0.9 0.801-1.805 1.192-2.711 0.219-0.493 0.438-0.985 0.663-1.493 0.724-1.635 1.438-3.275 2.152-4.914 0.5-1.135 1-2.27 1.501-3.405 1.052-2.388 2.1-4.779 3.144-7.171 1.355-3.106 2.719-6.208 4.086-9.308 1.057-2.4 2.112-4.802 3.165-7.203 0.508-1.158 1.016-2.315 1.525-3.473 0.71-1.617 1.417-3.235 2.122-4.854 0.212-0.483 0.425-0.965 0.644-1.463 1.442-3.324 1.442-3.324 1.442-4.814-27.455-25.893-74.637-37.404-111.266-37.567-0.711-0.005-1.421-0.009-2.154-0.014-2.284-0.012-4.568-0.016-6.852-0.017-1.17-0.001-1.17-0.001-2.364-0.001-11.603 0.011-22.967 0.282-34.44 2.174-0.72 0.115-1.439 0.229-2.181 0.348-31.887 5.218-61.563 17.69-85.060 40.15-0.656 0.626-1.315 1.248-1.978 1.867-29.051 27.155-41.963 67.881-43.794 106.691-0.121 4.107-0.131 8.215-0.125 12.324 0 0.559 0.001 1.117 0.001 1.693 0.093 47.316 15.008 90.768 48.838 124.466 4.251 4.16 8.564 7.846 13.448 11.241 0.724 0.526 1.448 1.051 2.172 1.577 23.491 16.691 53.063 25.811 81.862 25.963zM1964.073 376.689c-13.772-15.737-20.081-36.6-22.35-57.023 49.629 0 99.258 0 150.392 0-0.505 9.516-0.505 9.516-1.755 18.883-0.114 0.642-0.229 1.285-0.347 1.947-3.623 19.041-12.358 37.857-28.692 49.175-30.433 19.934-72.92 12.784-97.249-12.981z" />
<glyph unicode="&#xe909;" horiz-adv-x="4499" d="M1171.718 548.93c0-33.086 0-66.172 0-100.261 27.792 0 55.585 0 84.219 0 0-19.631 0-39.262 0-59.488-27.792 0-55.585 0-84.219 0 0.080-26.587 0.080-26.587 0.172-53.175 0.013-3.592 0.027-7.185 0.040-10.777 0.002-0.45 0.003-0.9 0.005-1.364 0.026-7.249 0.048-14.497 0.069-21.746 0.021-7.45 0.047-14.901 0.077-22.351 0.017-4.18 0.031-8.36 0.040-12.54 0.009-3.941 0.023-7.883 0.043-11.824 0.006-1.44 0.010-2.88 0.011-4.319 0.011-10.048 0.192-20.068 3.010-29.799 0.144-0.499 0.287-0.999 0.436-1.513 3.168-10.433 8.952-18.004 18.509-23.339 16.107-8.401 36.361-6.105 53.118-0.965 1.589 0.509 3.178 1.019 4.762 1.544 1.253 0.336 1.253 0.336 3.258 0.336 0-20.734 0-41.468 0-62.83-16.94-5.39-16.94-5.39-22.601-6.266-0.585-0.101-1.169-0.202-1.772-0.305-5.798-0.977-11.507-1.553-17.388-1.585-0.588-0.005-1.176-0.009-1.782-0.014-1.89-0.012-3.78-0.016-5.67-0.017-0.645 0-1.291-0.001-1.956-0.001-9.588 0.011-18.946 0.268-28.373 2.174-0.879 0.172-0.879 0.172-1.775 0.348-24.755 4.988-47.729 16.927-62.123 38.279-15.775 24.136-19.109 52.212-19.060 80.458 0 1.549 0 3.098 0 4.647 0 4.18 0.004 8.359 0.008 12.539 0.004 4.377 0.005 8.755 0.005 13.132 0.002 7.339 0.006 14.678 0.012 22.017 0.006 7.555 0.011 15.109 0.014 22.664 0 0.467 0 0.933 0.001 1.414 0.001 2.342 0.002 4.683 0.003 7.025 0.007 19.385 0.019 38.771 0.034 58.156-20.072 0-40.145 0-60.825 0 0 19.631 0 39.262 0 59.488 20.072 0 40.145 0 60.825 0 0 26.69 0 53.379 0 80.877 36.637 9.316 36.637 9.316 48.214 12.258 3.419 0.87 3.419 0.87 6.837 1.74 1.525 0.388 3.050 0.776 4.575 1.163 2.307 0.586 4.615 1.173 6.922 1.761 0.682 0.173 1.363 0.346 2.065 0.524 0.62 0.158 1.24 0.316 1.879 0.479 0.54 0.137 1.081 0.275 1.637 0.416 2.545 0.683 3.963 1.043 6.742 1.043z" />
<glyph unicode="&#xe90a;" horiz-adv-x="4499" d="M908.366 593.044c26.028 0 52.056 0 78.872 0 0-151.976 0-303.952 0-460.533-26.028 0-52.056 0-78.872 0 0 151.976 0 303.952 0 460.533z" />
<glyph unicode="&#xe90b;" horiz-adv-x="4499" d="M3530.444 454.977c0.545 0.004 1.090 0.009 1.652 0.013 5.945 0.029 11.738-0.246 17.612-1.201 0.48-0.078 0.959-0.155 1.454-0.235 2.414-0.434 4.648-1.035 6.94-1.916 0.472-0.18 0.944-0.361 1.43-0.547 0.355-0.138 0.709-0.275 1.075-0.417 0.015-8.57 0.027-17.14 0.035-25.71 0.003-3.979 0.008-7.959 0.016-11.938 0.007-3.84 0.011-7.68 0.013-11.519 0.001-1.465 0.004-2.931 0.007-4.396 0.005-2.051 0.006-4.103 0.005-6.154 0.002-0.607 0.005-1.213 0.007-1.839-0.004-2.741-0.057-5.284-0.752-7.957-0.947 0.277-1.894 0.556-2.841 0.836-0.619 0.183-1.237 0.365-1.875 0.554-1.253 0.392-2.498 0.814-3.728 1.274-22.188 8.218-51.026 5.886-72.308-3.875-17.324-8.276-28.948-23.206-35.551-40.898-5.589-16.212-6.113-32.716-6.153-49.691-0.006-1.713-0.013-3.427-0.020-5.14-0.014-3.674-0.027-7.349-0.037-11.023-0.015-5.313-0.034-10.625-0.054-15.938-0.032-8.621-0.061-17.243-0.088-25.864-0.026-8.37-0.054-16.739-0.084-25.109-0.002-0.522-0.004-1.044-0.006-1.582-0.014-4.084-0.029-8.167-0.043-12.251-0.071-19.98-0.135-39.96-0.2-59.939-26.028 0-52.056 0-78.872 0-0.017 7.298-0.033 14.596-0.051 22.115-0.054 23.446-0.111 46.893-0.171 70.339-0.009 3.652-0.018 7.304-0.028 10.956-0.003 1.090-0.003 1.090-0.006 2.203-0.029 11.716-0.057 23.431-0.083 35.147-0.027 12.053-0.057 24.107-0.088 36.16-0.019 7.416-0.037 14.832-0.052 22.248-0.011 5.11-0.024 10.22-0.038 15.331-0.008 2.933-0.016 5.865-0.021 8.798-0.020 11.858-0.127 23.708-0.438 35.562-0.013 0.515-0.027 1.030-0.040 1.561-0.445 16.934-1.546 33.768-3.501 50.596-0.155 1.707-0.163 3.426-0.163 5.14 25.145 0 50.291 0 76.198 0 1.504-9.774 1.504-9.774 1.846-13.304 0.117-1.187 0.117-1.187 0.236-2.398 0.079-0.822 0.157-1.644 0.239-2.491 0.131-1.329 0.261-2.658 0.392-3.987 0.18-1.834 0.358-3.668 0.535-5.502 0.313-3.233 0.628-6.465 0.946-9.697 0.168-1.715 0.335-3.429 0.5-5.144 0.076-0.775 0.152-1.549 0.23-2.347 0.066-0.679 0.131-1.358 0.199-2.057 0.211-1.763 0.518-3.473 0.892-5.208 0.16 0.329 0.321 0.657 0.486 0.996 5.378 10.898 11.825 20.285 20.234 29.082 0.447 0.489 0.894 0.979 1.355 1.483 18.804 19.89 46.284 26.767 72.755 26.883z" />
<glyph unicode="&#xe90c;" horiz-adv-x="4499" d="M1308.073 448.668c26.028 0 52.056 0 78.872 0 0-104.332 0-208.663 0-316.157-26.028 0-52.056 0-78.872 0 0 104.332 0 208.663 0 316.157z" />
<glyph unicode="&#xe90d;" horiz-adv-x="4499" d="M4047.29 960.178c1.715 0.001 3.429 0.002 5.144 0.004 3.57 0.002 7.141-0.001 10.711-0.007 4.086-0.007 8.171-0.005 12.257 0.002 3.985 0.007 7.969 0.006 11.954 0.002 1.671-0.001 3.342 0 5.013 0.003 12.741 0.019 25.41-0.349 37.928-2.939 1.033-0.212 1.033-0.212 2.088-0.427 21.023-4.532 41.309-13.748 57.86-27.562 0.708-0.573 1.416-1.146 2.125-1.718 8.416-6.871 15.951-14.469 22.422-23.204 0.825-1.109 1.666-2.204 2.51-3.298 17.561-23.171 26.57-52.991 26.491-81.882 0-0.976 0-1.951 0-2.927 0-2.629-0.004-5.258-0.008-7.887-0.004-2.755-0.005-5.509-0.005-8.264-0.002-5.208-0.008-10.415-0.014-15.623-0.007-5.932-0.011-11.865-0.015-17.797-0.007-12.195-0.019-24.391-0.034-36.586-1.159-0.327-2.32-0.651-3.48-0.974-0.646-0.181-1.292-0.362-1.958-0.548-4.686-1.184-9.366-1.182-14.168-1.165-0.494 0.001-0.988 0.002-1.497 0.003-1.209 0.002-2.419 0.006-3.628 0.010-0.002 0.489-0.003 0.979-0.005 1.483-0.040 11.976-0.090 23.951-0.153 35.927-0.030 5.792-0.056 11.583-0.074 17.375-0.015 5.055-0.038 10.11-0.068 15.165-0.016 2.67-0.028 5.34-0.033 8.010-0.025 14.076-0.169 28.178-4.137 41.81-0.169 0.599-0.339 1.198-0.513 1.815-5.221 17.763-14.624 33.893-27.1 47.522-0.488 0.533-0.488 0.533-0.986 1.077-15.219 16.395-35.634 27.994-57.249 33.513-0.518 0.133-1.035 0.266-1.569 0.403-7.723 1.873-15.416 2.639-23.35 2.622-0.842 0.003-1.683 0.007-2.55 0.010-2.279 0.009-4.558 0.009-6.837 0.008-1.918-0.001-3.836 0.003-5.754 0.006-4.535 0.007-9.069 0.008-13.603 0.004-4.641-0.004-9.282 0.004-13.923 0.018-4.017 0.012-8.034 0.016-12.051 0.014-2.385-0.001-4.77 0-7.155 0.010-12.66 0.046-24.816-0.377-37.031-4.013-0.574-0.168-1.147-0.336-1.738-0.51-19.553-5.969-36.571-16.546-50.815-31.156-0.414-0.383-0.827-0.767-1.253-1.162-20.214-19.167-31.661-48.708-32.493-76.266-0.068-3.886-0.080-7.771-0.082-11.658-0.010-1.685-0.021-3.371-0.033-5.056-0.029-4.378-0.042-8.755-0.053-13.133-0.012-4.491-0.041-8.981-0.068-13.471-0.050-8.768-0.082-17.535-0.107-26.303-8.382 1.765-16.764 3.529-25.399 5.347-0.030 8.089-0.055 16.179-0.069 24.268-0.007 3.758-0.016 7.516-0.032 11.274-0.015 3.641-0.023 7.281-0.026 10.922-0.002 1.375-0.007 2.749-0.015 4.124-0.065 12.658 0.176 25.588 3.024 37.976 0.146 0.663 0.292 1.326 0.443 2.010 1.26 5.569 2.742 11.003 4.695 16.371 0.185 0.509 0.37 1.019 0.561 1.543 4.264 11.54 9.607 22.547 16.818 32.545 0.458 0.64 0.915 1.28 1.386 1.94 7.909 10.806 16.805 20.528 27.355 28.807 0.635 0.52 1.27 1.041 1.924 1.577 16.908 13.561 37.245 22.531 58.358 27.081 0.878 0.192 0.878 0.192 1.774 0.387 12.628 2.514 25.467 2.572 38.289 2.547z" />
<glyph unicode="&#xe90e;" horiz-adv-x="4499" d="M1304.063 584.355c28.895 0 57.79 0 87.561 0 0-25.366 0-50.732 0-76.867-28.895 0-57.79 0-87.561 0 0 25.366 0 50.732 0 76.867z" />
<glyph unicode="&#xe90f;" glyph-name="lock" d="M800 576h-32v122.112c0 146.848-106.24 261.888-257.184 261.888-151.552 0-254.816-117.472-254.816-261.888v-122.112h-32c-70.592 0-128-57.408-128-128v-384c0-70.592 57.408-128 128-128h576c70.592 0 128 57.408 128 128v384c0 70.592-57.408 128-128 128zM320 698.112c0 109.088 74.56 197.888 190.816 197.888 115.072 0 193.184-86.912 193.184-197.888v-122.112h-384v122.112zM864 64c0-35.264-28.736-64-64-64h-576c-35.296 0-64 28.736-64 64v384c0 35.264 28.704 64 64 64h576c35.264 0 64-28.736 64-64v-384zM512 384c-35.328 0-64-28.64-64-64 0-23.616 12.96-44.032 32-55.136v-104.864c0-17.664 14.336-32 32-32s32 14.336 32 32v104.864c19.040 11.072 32 31.52 32 55.136 0 35.36-28.64 64-64 64z" />
<glyph unicode="&#xe910;" glyph-name="pros-and-cons" d="M891.866 959.75l-751.48 0.246c-77.41 0-140.386-62.975-140.386-140.386v-883.608h776.255v668.319l34.222 22.808 64.876-32.436 66.065 33.033 82.582-41.291v233.175c-0.007 74.636-58.556 135.859-132.134 140.139zM743.222 819.611v-850.575h-710.189v850.575c0 59.195 48.162 107.353 107.353 107.353h652.847c-30.556-25.78-50.010-64.345-50.010-107.353zM990.96 639.884l-49.549 24.775-66.065-33.033-67.238 33.626-31.853-21.223v175.582c0 59.195 48.162 107.353 107.353 107.353s107.353-48.162 107.353-107.353v-179.727zM490.642 601.482l70.904 70.904 70.904-70.904 23.352 23.356-70.904 70.904 70.904 70.9-23.352 23.356-70.904-70.904-70.904 70.904-23.352-23.356 70.9-70.9-70.9-70.904zM309.642 750.819l-24.709 21.969-117.907-132.658-21.157 31.746-27.483-18.334 44.908-67.352zM82.582 547.095h264.255v-33.033h-264.255v33.033zM82.582 464.516h264.255v-33.033h-264.255v33.033zM82.582 381.935h264.255v-33.033h-264.255v33.033zM82.582 299.356h264.255v-33.033h-264.255v33.033zM82.582 216.775h264.255v-33.033h-264.255v33.033zM82.582 134.196h132.127v-33.033h-132.127v33.033zM429.418 547.095h264.255v-33.033h-264.255v33.033zM429.418 464.516h264.255v-33.033h-264.255v33.033zM429.418 381.935h264.255v-33.033h-264.255v33.033zM429.418 299.356h198.193v-33.033h-198.193v33.033z" />
<glyph unicode="&#xe911;" glyph-name="like" d="M85.333 21.333h710.144c0.245-0.002 0.535-0.003 0.824-0.003 62.833 0 115.217 44.736 127.038 104.095l0.137 0.825 55.68 298.667c1.358 6.955 2.135 14.953 2.135 23.132 0 30.882-11.077 59.177-29.474 81.129l0.16-0.197c-24.147 28.822-60.155 47.019-100.414 47.019-0.143 0-0.287 0-0.43-0.001h-203.541v170.667c0 87.936-90.155 128-173.909 128-23.564 0-42.667-19.103-42.667-42.667v0c0-81.365-14.507-166.827-30.891-182.784l-118.827-115.883h-195.968c-23.564 0-42.667-19.103-42.667-42.667v0-426.667c0-23.564 19.103-42.667 42.667-42.667v0zM341.333 472.704l118.357 115.2c39.68 38.699 51.712 132.779 55.467 195.584 23.125-5.504 47.317-16.213 47.317-37.035v-213.333c0-23.564 19.103-42.667 42.667-42.667v0h246.229c0.096 0.001 0.209 0.001 0.323 0.001 13.946 0 26.428-6.271 34.779-16.147l0.055-0.067c6.027-7.076 9.693-16.324 9.693-26.428 0-2.725-0.267-5.389-0.776-7.965l0.043 0.259-55.467-298.667c-4.478-20.040-22.111-34.794-43.19-34.794-0.476 0-0.951 0.008-1.423 0.022l0.069-0.002h-454.144zM128 448h128v-341.333h-128z" />
<glyph unicode="&#xe912;" glyph-name="home" d="M512 960l-512-384v-128h64v-448h192v320h192v-320h512v448h64v128l-128 96v224h-192v-80l-192 144zM576 320h192v-192h-192v192z" />
<glyph unicode="&#xe913;" glyph-name="dollar" d="M710.287 431.596c-29.45 23.224-73.646 41.779-132.588 55.644l-45.22 10.67v193.126l6.124-2.499c38.38-19.436 59.003-56.218 61.829-97.178h153.928c-2.806 81.92-33.075 142.5-90.808 185.303-38.359 28.447-82.104 46.735-131.072 55.951v106.906h-143.36v-103.629c-66.294-8.192-118.866-29.532-157.471-64.225-50.545-45.425-75.796-102.441-75.796-171.090 0-75.223 25.825-130.519 77.476-165.888 28.918-20.050 81.039-38.666 155.791-55.91v-209.224c-27.259 7.516-48.62 19.886-63.672 37.765-14.52 17.367-24.248 35.881-29.204 76.841h-152.883c0-81.92 28.897-140.698 86.712-186.286 41.738-32.891 94.863-52.879 159.048-61.542v-79.852h143.36v78.5c68.26 8.172 123.372 29.962 165.11 65.618 54.129 46.285 81.203 104.448 81.203 174.469 0 68.301-22.835 120.463-68.506 156.529zM341.361 550.728c-24.883 13.517-37.315 34.038-37.315 61.44 0 29.819 12.616 53.187 37.847 69.816 13.312 8.786 29.164 15.176 47.227 19.395v-168.428c-22.221 6.472-38.257 12.411-47.759 17.777zM555.889 173.752c-7.107-2.458-15.032-4.485-23.409-6.267v178.115c24.678-7.311 44.155-15.278 58.327-23.839 22.364-13.865 33.567-33.587 33.567-58.88-0.020-43.336-22.856-73.175-68.485-89.129z" />
<glyph unicode="&#xe914;" glyph-name="bank" d="M978 764l-471.2 193.6-466.8-198v-137.6h938v142zM527.2 692.4v-32.8h-31.6v30.8c-18 0.8-34.8 5.2-43.6 10l8 32.8c10.4-5.2 26.8-10.8 44-10.8 18.8 0 27.6 8 27.6 19.6s-8.8 16-30 24c-29.6 10.4-48.4 25.2-48.4 52 0 23.6 15.2 42 42 49.2v32.8h31.6v-30.8c16-0.8 27.2-4 36-8.8l-8.8-32c-7.2 2.8-19.6 8-35.6 8-16.4 0-25.2-8-25.2-16.4 0-10.8 10.4-15.6 32.8-24.4 30.4-10.8 44.8-26.8 44.8-52-0.4-24.4-14.4-43.2-43.6-51.2zM983.2 36.4v78.8h-39.2v386.8h39.2v78.4h-943.6v-78.8h40.4v-386.8h-40.8v-78.4h-39.2v-99.2h1022.4v99.2h-39.2zM158.8 114.4v386.8h78.8v-386.8h-78.8zM315.6 114.4v386.8h78.8v-386.8h-78.8zM473.2 114.4v386.8h78.8v-386.8h-78.8zM630 114.4v386.8h78.8v-386.8h-78.8zM787.2 114.4v386.8h78.8v-386.8h-78.8z" />
<glyph unicode="&#xe915;" horiz-adv-x="2970" d="M0 960c980.199 0 1960.399 0 2970.301 0 0-337.92 0-675.84 0-1024-980.199 0-1960.399 0-2970.301 0 0 337.92 0 675.84 0 1024z" />
<glyph unicode="&#xe916;" horiz-adv-x="2970" d="M196.612 357.772c2.981-0.014 5.961-0.028 9.032-0.043 3.137 0.012 6.273 0.025 9.505 0.037 10.403 0.031 20.805 0.010 31.208-0.013 7.207 0.005 14.413 0.012 21.62 0.020 15.118 0.010 30.235-0.005 45.353-0.037 19.412-0.040 38.822-0.017 58.234 0.025 14.885 0.025 29.771 0.017 44.656-0.001 7.159-0.005 14.318 0.001 21.477 0.017 9.992 0.018 19.983-0.009 29.976-0.048 2.981 0.014 5.961 0.028 9.032 0.043 20.468-0.149 20.468-0.149 28.283-7.964 0-25.46 0-50.919 0-77.151 813.554 0 1627.108 0 2465.315 0 0-111.097 0-222.194 0-336.658-980.199 0-1960.399 0-2970.301 0 0 111.097 0 222.194 0 336.658 55.548 0 111.097 0 168.329 0 0 25.46 0 50.919 0 77.151 9.2 9.2 15.757 7.873 28.283 7.964z" />
<glyph unicode="&#xe917;" horiz-adv-x="2970" d="M0 960c437.444 0 874.889 0 1325.589 0-7.014-10.521-7.014-10.521-16-15.562-10.166-5.138-10.166-5.138-12.055-19.507-15.044 0-30.089 0-45.589 0 2.315-5.786 4.629-11.573 7.014-17.534 8.935-3.135 8.935-3.135 17.534-3.507-1.157-5.786-2.315-11.573-3.507-17.534-2.315 3.472-4.629 6.944-7.014 10.521-8.464 2.341-8.464 2.341-17.534 0-7.769-7.81-7.769-7.81-14.027-17.534-8.953-12.066-18.386-23.57-28.055-35.068 1.157-2.315 2.315-4.629 3.507-7.014-2.242-2.025-4.484-4.050-6.795-6.137-7.171-7.822-9.274-11.658-10.74-21.918-5.786 0-11.573 0-17.534 0-1.157-9.258-2.315-18.516-3.507-28.055 3.472 0 6.944 0 10.521 0 0 3.472 0 6.944 0 10.521 6.944 2.315 13.887 4.629 21.041 7.014-2.63-16.658-2.63-16.658-10.521-24.548-4.62-2.446-9.29-4.803-14.027-7.014 1.157-2.315 2.315-4.629 3.507-7.014-2.315 0-4.629 0-7.014 0 0-2.315 0-4.629 0-7.014 3.472-1.157 6.944-2.315 10.521-3.507-5.208-1.736-5.208-1.736-10.521-3.507-1.157-11.573-2.315-23.145-3.507-35.068 12.151 1.736 12.151 1.736 24.548 3.507 0-3.472 0-6.944 0-10.521 4.629-1.157 9.258-2.315 14.027-3.507-1.157-5.786-2.315-11.573-3.507-17.534-3.472 0-6.944 0-10.521 0-1.157-3.472-2.315-6.944-3.507-10.521 0 2.315 0 4.629 0 7.014-2.315 0-4.629 0-7.014 0 0-2.315 0-4.629 0-7.014-2.315 0-4.629 0-7.014 0 0 2.315 0 4.629 0 7.014-2.315 0-4.629 0-7.014 0 0-6.944 0-13.887 0-21.041 2.315 0 4.629 0 7.014 0 1.157 2.315 2.315 4.629 3.507 7.014 0-2.315 0-4.629 0-7.014 3.472 0 6.944 0 10.521 0 1.157 2.315 2.315 4.629 3.507 7.014 0-2.315 0-4.629 0-7.014 3.472 0 6.944 0 10.521 0 1.157 2.315 2.315 4.629 3.507 7.014 0.362-2.242 0.723-4.484 1.096-6.795 1.193-3.58 1.193-3.58 2.411-7.233 3.472-1.157 6.944-2.315 10.521-3.507-3.472 0-6.944 0-10.521 0 0-2.315 0-4.629 0-7.014 2.315 0 4.629 0 7.014 0 0-7.014 0-7.014-4.233-12.671-8.097-6.262-12.622-5.96-22.726-5.521-4.252 0.142-4.252 0.142-8.589 0.288-2.156 0.122-4.313 0.244-6.534 0.37-1.157-6.944-2.315-13.887-3.507-21.041 2.315-1.157 4.629-2.315 7.014-3.507-1.157-3.472-2.315-6.944-3.507-10.521 4.629-1.157 9.258-2.315 14.027-3.507 0-2.315 0-4.629 0-7.014 5.208 1.736 5.208 1.736 10.521 3.507 7.014-10.521 7.014-10.521 7.014-21.041-2.315-2.315-4.629-4.629-7.014-7.014 2.315-6.944 4.629-13.887 7.014-21.041 2.315 0 4.629 0 7.014 0 0 5.786 0 11.573 0 17.534 2.242 0.362 4.484 0.723 6.795 1.096 3.58 1.193 3.58 1.193 7.233 2.411 1.157 3.472 2.315 6.944 3.507 10.521 4.629 0 9.258 0 14.027 0 0.434-2.242 0.868-4.484 1.315-6.795 1.085-3.58 1.085-3.58 2.192-7.233 2.315-1.157 4.629-2.315 7.014-3.507-5.208-12.151-5.208-12.151-10.521-24.548-4.629 1.157-9.258 2.315-14.027 3.507 1.157-3.472 2.315-6.944 3.507-10.521 3.472-1.157 6.944-2.315 10.521-3.507 0-2.315 0-4.629 0-7.014 8.101-1.157 16.202-2.315 24.548-3.507 0-2.315 0-4.629 0-7.014 3.472-1.157 6.944-2.315 10.521-3.507-6.944 0-13.887 0-21.041 0 0-3.472 0-6.944 0-10.521-3.472 0-6.944 0-10.521 0-1.157 5.786-2.315 11.573-3.507 17.534-4.629 1.157-9.258 2.315-14.027 3.507 0-2.315 0-4.629 0-7.014 3.472 0 6.944 0 10.521 0 1.157-6.944 2.315-13.887 3.507-21.041-2.315-1.157-4.629-2.315-7.014-3.507 0 3.472 0 6.944 0 10.521-8.101 1.157-16.202 2.315-24.548 3.507 0 2.315 0 4.629 0 7.014-2.315 0-4.629 0-7.014 0 0-2.315 0-4.629 0-7.014-5.786 0-11.573 0-17.534 0-1.157 3.472-2.315 6.944-3.507 10.521-28.025 2.463-28.025 2.463-53.26-8.11-3.255-3.11-6.51-6.22-9.863-9.425 0-3.472 0-6.944 0-10.521 2.315-2.315 4.629-4.629 7.014-7.014-9.205-13.589-9.205-13.589-21.041-17.534-3.558-6.335-3.558-6.335-3.507-14.027 4.74-7.882 4.74-7.882 10.521-14.027 8.795 3.909 14.883 7.777 22.137 14.247 19.759 14.245 45.599 10.726 69.041 10.301 0.362-2.242 0.723-4.484 1.096-6.795 0.796-2.387 1.591-4.774 2.411-7.233 3.472-1.157 6.944-2.315 10.521-3.507-4.629 0-9.258 0-14.027 0 0.651-2.098 1.302-4.195 1.973-6.356 1.534-7.671 1.534-7.671-1.973-18.192 8.333-5.643 8.333-5.643 17.534-10.521 2.315 1.157 4.629 2.315 7.014 3.507 0-3.472 0-6.944 0-10.521 9.258-1.157 18.516-2.315 28.055-3.507 0 6.944 0 13.887 0 21.041 2.315 0 4.629 0 7.014 0 0-2.315 0-4.629 0-7.014 5.786 0 11.573 0 17.534 0 0 2.315 0 4.629 0 7.014-9.258 2.315-18.516 4.629-28.055 7.014 9.676 6.327 13.641 7.058 25.425 5.699 3.182-0.723 6.365-1.447 9.644-2.192 1.157 2.315 2.315 4.629 3.507 7.014 4.969-14.906 0.678-23.561-3.507-38.575-13.151-3.945-13.151-3.945-21.041 0 4.963-7.134 8.942-10.184 17.466-12 7.018-0.845 14.064-1.45 21.11-2.027-2.315-1.157-4.629-2.315-7.014-3.507 2.315-6.944 4.629-13.887 7.014-21.041-2.315-2.315-4.629-4.629-7.014-7.014 1.157-2.098 2.315-4.195 3.507-6.356 3.507-7.671 3.507-7.671 3.507-18.192 2.098-0.434 4.195-0.868 6.356-1.315 7.671-2.192 7.671-2.192 18.192-9.205 0-14.027 0-14.027-3.507-21.041-273.113 0-546.227 0-827.616 0-1.157 25.46-2.315 50.919-3.507 77.151-6.5 6.5-15.729 3.951-24.379 3.982-2.999-0.007-5.997-0.014-9.087-0.022-3.142 0.006-6.283 0.012-9.52 0.019-10.439 0.015-20.877 0.005-31.315-0.007-7.22 0.002-14.44 0.006-21.66 0.010-15.153 0.005-30.306-0.002-45.46-0.019-19.471-0.020-38.941-0.008-58.412 0.013-14.915 0.013-29.831 0.009-44.746 0-7.181-0.002-14.363 0.001-21.544 0.009-10.018 0.009-20.036-0.005-30.054-0.024-4.498 0.011-4.498 0.011-9.087 0.022-13.264 1.243-13.264 1.243-24.379-3.982-1.157-25.46-2.315-50.919-3.507-77.151-55.548 0-111.097 0-168.329 0 0 226.823 0 453.646 0 687.342zM1202.849 791.671c2.315 0 4.629 0 7.014 0-1.157-2.315-2.315-4.629-3.507-7.014-1.157 2.315-2.315 4.629-3.507 7.014zM1213.37 412.932c2.315 0 4.629 0 7.014 0-1.157-2.315-2.315-4.629-3.507-7.014-1.157 2.315-2.315 4.629-3.507 7.014z" />
<glyph unicode="&#xe918;" horiz-adv-x="2970" d="M205.246 357.387c4.704 0.026 4.704 0.026 9.503 0.053 10.422 0.051 20.843 0.075 31.265 0.094 7.212 0.020 14.423 0.040 21.635 0.061 15.139 0.037 30.277 0.057 45.416 0.070 19.439 0.019 38.878 0.104 58.317 0.203 14.9 0.065 29.801 0.084 44.701 0.089 7.169 0.011 14.338 0.039 21.506 0.085 10.010 0.060 20.017 0.053 30.027 0.030 4.479 0.048 4.479 0.048 9.049 0.098 8.24-0.059 8.24-0.059 21.308-1.348 3.472-5.208 3.472-5.208 7.014-10.521-1.157-1.157-2.315-2.315-3.507-3.507-0.42-9.691-0.615-19.298-0.664-28.993-0.029-3.039-0.058-6.078-0.088-9.209-0.061-6.621-0.114-13.242-0.161-19.863-0.073-10.46-0.168-20.92-0.269-31.381-0.21-22.203-0.392-44.406-0.571-66.609-0.207-25.717-0.426-51.434-0.673-77.15-0.094-10.337-0.166-20.674-0.238-31.011-0.058-6.3-0.117-12.6-0.178-18.9-0.015-2.9-0.029-5.801-0.044-8.789-0.221-19.805-0.221-19.805-4.127-23.711-9.8-0.353-19.513-0.477-29.315-0.454-4.61-0.009-4.61-0.009-9.313-0.019-10.211-0.015-20.421-0.005-30.632 0.007-7.063-0.002-14.126-0.006-21.188-0.010-14.823-0.005-29.646 0.002-44.469 0.019-19.046 0.020-38.092 0.008-57.138-0.013-14.59-0.013-29.181-0.009-43.771 0-7.025 0.002-14.050-0.001-21.074-0.009-9.8-0.009-19.6 0.005-29.399 0.024-2.933-0.007-5.866-0.014-8.888-0.022-20.026 0.075-20.026 0.075-23.934 3.982-0.439 9.653-0.653 19.223-0.72 28.882-0.035 3.028-0.069 6.056-0.105 9.175-0.111 10.063-0.198 20.126-0.284 30.19-0.072 6.967-0.146 13.935-0.221 20.902-0.194 18.387-0.367 36.774-0.536 55.161-0.176 18.701-0.371 37.401-0.565 56.101-0.28 27.303-0.552 54.606-0.809 81.909-0.027 2.875-0.055 5.75-0.083 8.712-0.098 10.533-0.184 21.064-0.184 31.597 7.316 7.316 23.317 4.059 33.41 4.072z" />
<glyph unicode="&#xe919;" horiz-adv-x="2970" d="M2574.478 469.992c4.52-0.021 4.52-0.021 9.131-0.043 3.171 0.012 6.342 0.025 9.608 0.037 10.517 0.031 21.033 0.010 31.549-0.013 7.285 0.005 14.57 0.012 21.856 0.020 15.283 0.010 30.565-0.005 45.848-0.037 19.624-0.040 39.247-0.017 58.871 0.025 15.048 0.025 30.096 0.017 45.143-0.001 7.237-0.005 14.475 0.001 21.712 0.017 10.101 0.018 20.202-0.009 30.303-0.048 3.013 0.014 6.027 0.028 9.131 0.043 20.69-0.149 20.69-0.149 28.506-7.964 0.908-9.699 0.908-9.699 0.932-21.918 0.014-6.564 0.014-6.564 0.027-13.26-0.027-4.593-0.054-9.186-0.082-13.918 0.041-6.889 0.041-6.889 0.082-13.918-0.009-4.376-0.018-8.752-0.027-13.26-0.008-4.032-0.016-8.065-0.024-12.219-0.908-9.699-0.908-9.699-7.921-16.712-10.316-0.697-20.303-0.956-30.623-0.908-3.171-0.012-6.342-0.025-9.608-0.037-10.517-0.031-21.033-0.010-31.549 0.013-7.285-0.005-14.57-0.012-21.856-0.020-15.283-0.010-30.565 0.005-45.848 0.037-19.624 0.040-39.247 0.017-58.871-0.025-15.048-0.025-30.096-0.017-45.143 0.001-7.237 0.005-14.475-0.001-21.712-0.017-10.101-0.018-20.202 0.009-30.303 0.048-4.52-0.021-4.52-0.021-9.131-0.043-20.69 0.149-20.69 0.149-28.506 7.964-0.908 9.699-0.908 9.699-0.932 21.918-0.009 4.376-0.018 8.752-0.027 13.26 0.027 4.593 0.054 9.186 0.082 13.918-0.027 4.593-0.054 9.186-0.082 13.918 0.009 4.376 0.018 8.752 0.027 13.26 0.008 4.032 0.016 8.065 0.024 12.219 1.801 19.243 12.67 17.542 29.413 17.663z" />
<glyph unicode="&#xe91a;" horiz-adv-x="2970" d="M2248.065 469.992c3.684-0.021 3.684-0.021 7.442-0.043 2.589 0.012 5.179 0.025 7.846 0.037 8.581 0.031 17.161 0.010 25.743-0.013 5.949 0.005 11.897 0.012 17.846 0.020 12.476 0.010 24.952-0.005 37.428-0.037 16.015-0.040 32.029-0.017 48.044 0.025 12.286 0.025 24.572 0.017 36.859-0.001 5.906-0.005 11.812 0.001 17.718 0.017 8.245 0.018 16.49-0.009 24.735-0.048 3.684 0.021 3.684 0.021 7.442 0.043 16.907-0.149 16.907-0.149 24.722-7.964 0.908-9.699 0.908-9.699 0.932-21.918 0.014-6.564 0.014-6.564 0.027-13.26-0.027-4.593-0.054-9.186-0.082-13.918 0.041-6.889 0.041-6.889 0.082-13.918-0.009-4.376-0.018-8.752-0.027-13.26-0.008-4.032-0.016-8.065-0.024-12.219-0.908-9.699-0.908-9.699-7.921-16.712-8.516-0.695-16.631-0.957-25.151-0.908-2.589-0.012-5.179-0.025-7.846-0.037-8.581-0.031-17.161-0.010-25.743 0.013-5.949-0.005-11.897-0.012-17.846-0.020-12.476-0.010-24.952 0.005-37.428 0.037-16.015 0.040-32.029 0.017-48.044-0.025-12.286-0.025-24.572-0.017-36.859 0.001-5.906 0.005-11.812-0.001-17.718-0.017-8.245-0.018-16.49 0.009-24.735 0.048-2.456-0.014-4.912-0.028-7.442-0.043-16.907 0.149-16.907 0.149-24.722 7.964-0.908 9.699-0.908 9.699-0.932 21.918-0.009 4.376-0.018 8.752-0.027 13.26 0.027 4.593 0.054 9.186 0.082 13.918-0.027 4.593-0.054 9.186-0.082 13.918 0.009 4.376 0.018 8.752 0.027 13.26 0.008 4.032 0.016 8.065 0.024 12.219 1.637 17.493 9.95 17.525 25.63 17.663z" />
<glyph unicode="&#xe91b;" horiz-adv-x="2970" d="M323.932 280.603c4.323 0.014 4.323 0.014 8.733 0.027 2.981-0.027 5.963-0.054 9.034-0.082 2.968 0.027 5.935 0.054 8.993 0.082 15.566-0.049 27.933-0.655 42.075-7.973-3.472-1.157-6.944-2.315-10.521-3.507 2.775-7.013 2.775-7.013 7.014-14.027 3.472-1.157 6.944-2.315 10.521-3.507 1.157 3.472 2.315 6.944 3.507 10.521 19.919-22.983 22.429-37.931 22.301-68.712-1.769-16.768-6.044-22.361-18.795-32.986-10.383-5.191-21.005-4.222-32.397-4.342-2.517-0.028-5.034-0.057-7.628-0.086-5.333-0.049-10.665-0.086-15.998-0.114-8.129-0.060-16.253-0.214-24.381-0.369-5.185-0.036-10.37-0.065-15.555-0.089-2.419-0.061-4.838-0.123-7.33-0.186-16.833 0.075-25.117 3.904-36.985 15.707-11.3 16.573-8.983 36.934-7.014 56.11 6.734 23.378 21.019 37.397 41.782 49.503 8.115 3.439 13.862 4.004 22.643 4.031z" />
<glyph unicode="&#xe91c;" horiz-adv-x="2970" d="M248.986 156.932c4.675 0.097 9.351 0.164 14.027 0.219 2.604 0.041 5.208 0.081 7.89 0.123 9.644-0.342 9.644-0.342 22.288-2.137 21.758-2.894 43.696-1.616 65.582-0.959 3.32 0.050 6.641 0.099 10.062 0.151 2.999 0.077 5.997 0.155 9.086 0.235 9.704-1.411 12.507-3.918 18.352-11.659 6.256-16.579 8.191-28.415 3.507-45.589-7.549-11.324-12.823-14.62-24.548-21.041-2.188-1.23-4.376-2.459-6.63-3.726-12.854-5.713-25.207-5.536-38.959-3.288-19.957 11.673-27.842 27.459-35.068 49.096 0 2.315 0 4.629 0 7.014-2.965 0.217-5.931 0.434-8.986 0.658-14.596 3.45-26.049 9.58-36.603 20.384 0 3.472 0 6.944 0 10.521z" />
<glyph unicode="&#xe91d;" horiz-adv-x="2970" d="M1585.096 374.356c-2.315-1.157-4.629-2.315-7.014-3.507-0.94-1.953-1.881-3.906-2.849-5.918-5.821-11.335-13.115-19.709-21.699-29.151-2.315 0-4.629 0-7.014 0-1.39-3.106-1.39-3.106-2.808-6.274-4.326-7.976-9.034-13.164-15.384-19.589-9.306-10.392-9.306-10.392-9.425-24.767 1.013-2.965 2.025-5.931 3.068-8.986 5.786 1.157 11.573 2.315 17.534 3.507 0-2.315 0-4.629 0-7.014-27.774 0-55.548 0-84.164 0 3.472 6.944 6.944 13.887 10.521 21.041-2.893 3.327-5.786 6.654-8.767 10.082-8.767 10.082-8.767 10.082-8.767 17.973-8.101 1.157-16.202 2.315-24.548 3.507 0 3.472 0 6.944 0 10.521 4.629-1.157 9.258-2.315 14.027-3.507 0 2.315 0 4.629 0 7.014-11.573 1.157-23.145 2.315-35.068 3.507 0 10.521 0 10.521 7.014 17.534 9.205 0.438 9.205 0.438 17.534 0 2.315-4.629 4.629-9.258 7.014-14.027 5.642 0.325 5.642 0.325 11.397 0.658 14.046-0.702 17.661-1.333 27.178-11.178 4.861-6.887 9.574-13.884 14.027-21.041 11.829 3.943 14.558 7.271 22.356 16.658 3.234 3.79 3.234 3.79 6.534 7.658 2.039 2.391 4.078 4.783 6.178 7.247 19.145 21.013 34.231 29.788 63.123 28.055z" />
<glyph unicode="&#xe91e;" horiz-adv-x="2970" d="M1413.26 777.644c10.521-8.329 10.521-8.329 17.534-17.534 2.315-2.315 4.629-4.629 7.014-7.014 2.758-15.747 1.534-31.069-5.26-45.589-9.223-11.068-10.394-12.090-23.671-13.808-4.34-0.072-8.679-0.145-13.151-0.219-1.157 3.472-2.315 6.944-3.507 10.521-3.472 1.157-6.944 2.315-10.521 3.507 1.157-3.472 2.315-6.944 3.507-10.521-3.472-1.157-6.944-2.315-10.521-3.507-10.788 7.367-17.268 13.628-24.548 24.548-2.452 16.822-2.507 30.771 6.137 45.589 17.205 15.294 34.501 17.708 56.986 14.027z" />
<glyph unicode="&#xe91f;" horiz-adv-x="2970" d="M1571.068 777.644c6.719 0.285 13.441 0.489 20.164 0.658 5.615 0.183 5.615 0.183 11.342 0.37 11.68-1.135 16.388-3.313 24.603-11.548 0-2.315 0-4.629 0-7.014 3.472-2.315 6.944-4.629 10.521-7.014 3.852-14.589 3.897-27.516 0-42.082-11.319-11.452-23.648-18.627-38.575-24.548-4.629 0-9.258 0-14.027 0 3.472 12.151 3.472 12.151 7.014 24.548-12.73 0-25.46 0-38.575 0 0 3.472 0 6.944 0 10.521-2.315 0-4.629 0-7.014 0-2.747 28.019-2.747 28.019 8.329 42.301 9.205 6.795 9.205 6.795 16.219 6.795 0 2.315 0 4.629 0 7.014z" />
<glyph unicode="&#xe920;" horiz-adv-x="2970" d="M323.863 244.945c2.984-0.011 5.967-0.023 9.041-0.034 3.119-0.029 6.238-0.059 9.452-0.089 3.146-0.016 6.293-0.032 9.534-0.048 7.781-0.041 15.562-0.099 23.342-0.171 0-2.315 0-4.629 0-7.014 6.871-6.012 13.883-11.867 21.041-17.534 2.315 1.157 4.629 2.315 7.014 3.507 2.192-10.082 2.192-10.082 3.507-21.041-12.854-12.854-33.859-9.057-51.288-9.644-4.082-0.194-8.164-0.389-12.37-0.589-22.368-0.836-41.232-0.129-62.589 6.726-1.315 11.178-1.315 11.178 0 24.548 11.862 14.461 24.938 21.506 43.315 21.384z" />
<glyph unicode="&#xe921;" horiz-adv-x="2970" d="M1637.699 942.466c27.972 1.332 52.519-1.249 75.178-19.068 13.37-13.37 13.37-13.37 16-23.014-0.219-10.521-0.219-10.521-3.507-21.041-8.986-8.329-8.986-8.329-17.534-14.027-5.786 2.315-11.573 4.629-17.534 7.014 0 2.315 0 4.629 0 7.014-3.472 1.157-6.944 2.315-10.521 3.507-4.493 4.973-4.493 4.973-8.767 11.178-1.514 2.192-3.029 4.385-4.589 6.644-4.178 6.726-4.178 6.726-9.658 18.562-4.078 9.764-4.078 9.764-12.712 12.274-2.098 0.145-4.195 0.289-6.356 0.438 0 3.472 0 6.944 0 10.521z" />
<glyph unicode="&#xe922;" horiz-adv-x="2970" d="M248.986 156.932c19.073 0.763 34.615 0.366 52.603-7.014-0.072-3.11-0.145-6.22-0.219-9.425 0.158-14.894 0.158-14.894 3.726-29.151 8.616-4.324 8.616-4.324 17.534-7.014 1.157-2.315 2.315-4.629 3.507-7.014 2.315-0.579 4.629-1.157 7.014-1.753 2.315-0.579 4.629-1.157 7.014-1.753 1.157-2.315 2.315-4.629 3.507-7.014 1.157 2.315 2.315 4.629 3.507 7.014 3.472 0 6.944 0 10.521 0 0.434-2.17 0.868-4.34 1.315-6.575 1.743-8.123 1.743-8.123 9.205-14.466-12.278-6.139-25.178-5.427-38.575-3.507-19.957 11.673-27.842 27.459-35.068 49.096 0 2.315 0 4.629 0 7.014-2.965 0.217-5.931 0.434-8.986 0.658-14.596 3.45-26.049 9.58-36.603 20.384 0 3.472 0 6.944 0 10.521z" />
<glyph unicode="&#xe923;" horiz-adv-x="2970" d="M2759.89 874.521c14.288-2.977 19.442-8.074 28.055-19.726 2.192-10.521 2.192-10.521 0-21.041-8.613-11.652-13.767-16.749-28.055-19.726-14.288 2.977-19.442 8.074-28.055 19.726-2.192 10.521-2.192 10.521 0 21.041 8.613 11.652 13.767 16.749 28.055 19.726z" />
<glyph unicode="&#xe924;" horiz-adv-x="2970" d="M2661.699 874.521c14.288-2.977 19.442-8.074 28.055-19.726 2.192-10.521 2.192-10.521 0-21.041-8.613-11.652-13.767-16.749-28.055-19.726-14.288 2.977-19.442 8.074-28.055 19.726-2.192 10.521-2.192 10.521 0 21.041 8.613 11.652 13.767 16.749 28.055 19.726z" />
<glyph unicode="&#xe925;" horiz-adv-x="2970" d="M2563.507 874.521c14.288-2.977 19.442-8.074 28.055-19.726 2.192-10.521 2.192-10.521 0-21.041-8.613-11.652-13.767-16.749-28.055-19.726-14.288 2.977-19.442 8.074-28.055 19.726-2.192 10.521-2.192 10.521 0 21.041 8.613 11.652 13.767 16.749 28.055 19.726z" />
<glyph unicode="&#xe926;" horiz-adv-x="2970" d="M2465.315 874.521c14.288-2.977 19.442-8.074 28.055-19.726 2.192-10.521 2.192-10.521 0-21.041-8.613-11.652-13.767-16.749-28.055-19.726-14.288 2.977-19.442 8.074-28.055 19.726-2.192 10.521-2.192 10.521 0 21.041 8.613 11.652 13.767 16.749 28.055 19.726z" />
<glyph unicode="&#xe927;" horiz-adv-x="2970" d="M2862.027 872.548c9.349-1.905 13.178-3.379 20.603-9.644 4.701-10.87 5.424-17.408 3.507-29.151-8.613-11.652-13.767-16.749-28.055-19.726-14.288 2.977-19.442 8.074-28.055 19.726-2.192 10.521-2.192 10.521 0 21.041 9.184 13.489 15.781 19.010 32 17.753z" />
<glyph unicode="&#xe928;" horiz-adv-x="2970" d="M1578.082 623.342c0-3.472 0-6.944 0-10.521-4.629-1.157-9.258-2.315-14.027-3.507-1.736 5.208-1.736 5.208-3.507 10.521-2.315 0-4.629 0-7.014 0 0-6.944 0-13.887 0-21.041-2.116 0.041-4.231 0.081-6.411 0.123-2.803 0.032-5.605 0.063-8.493 0.096-2.767 0.041-5.533 0.081-8.384 0.123-7.983-0.33-14.604-1.85-22.301-3.849-8.183 0-16.365 0-24.548 0-4.34-0.796-8.679-1.591-13.151-2.411-11.397-1.096-11.397-1.096-18.192 3.288-3.726 6.137-3.726 6.137-3.726 16.658 2.17 0.506 4.34 1.013 6.575 1.534 7.566 1.732 7.566 1.732 14.466 5.479 7.452-3.288 7.452-3.288 14.027-7.014 3.472 2.315 6.944 4.629 10.521 7.014 27.548 5.087 56.275 3.906 84.164 3.507z" />
<glyph unicode="&#xe929;" horiz-adv-x="2970" d="M2502.671 887.493c9.811-0.038 19.493-0.39 29.274-1.137 1.013-2.17 2.025-4.34 3.068-6.575 3.725-7.919 3.725-7.919 10.959-14.466-4.629-10.415-9.258-20.831-14.027-31.562-12.73 0-25.46 0-38.575 0-1.712 7.078-3.425 14.155-5.137 21.233-1.696 7.027-1.696 7.027-5.384 13.836 3.554 12.439 6.711 17.069 19.822 18.671z" />
<glyph unicode="&#xe92a;" horiz-adv-x="2970" d="M1914.74 440.986c9.123 1.027 9.123 1.027 19.726 0.658 5.275-0.142 5.275-0.142 10.658-0.288 2.703-0.122 5.407-0.244 8.192-0.37 1.34-5.808 2.504-11.659 3.507-17.534-1.157-1.157-2.315-2.315-3.507-3.507 1.157 0 2.315 0 3.507 0 0.342-21.575 0.342-21.575 0-28.055-3.507-3.507-3.507-3.507-12.288-3.849-5.309 0.061-5.309 0.061-10.726 0.123-3.549 0.032-7.097 0.063-10.753 0.096-2.744 0.041-5.488 0.081-8.315 0.123-3.033 9.1-4.705 16.853-5.918 26.301-0.375 2.712-0.75 5.425-1.137 8.219 0.041 7.562 0.041 7.562 7.055 18.082z" />
<glyph unicode="&#xe92b;" horiz-adv-x="2970" d="M1923.521 886.699c5.309-0.061 5.309-0.061 10.726-0.123 3.549-0.032 7.097-0.063 10.753-0.096 4.116-0.061 4.116-0.061 8.315-0.123 1.157-5.786 2.315-11.573 3.507-17.534-3.472-1.736-3.472-1.736-7.014-3.507 2.315-2.315 4.629-4.629 7.014-7.014 0.658-10.74 0.658-10.74 0-21.041-7.353-7.353-21.396-6.579-31.562-7.014-3.472 1.157-6.944 2.315-10.521 3.507-6.033 17.797-8.477 30.572-3.507 49.096 3.507 3.507 3.507 3.507 12.288 3.849z" />
<glyph unicode="&#xe92c;" horiz-adv-x="2970" d="M178.849 440.986c9.123 1.027 9.123 1.027 19.726 0.658 5.275-0.142 5.275-0.142 10.658-0.288 2.703-0.122 5.407-0.244 8.192-0.37 1.157-5.786 2.315-11.573 3.507-17.534-10.415 0-20.831 0-31.562 0 11.058-2.457 20.085-3.507 31.562-3.507 0.342-21.575 0.342-21.575 0-28.055-3.507-3.507-3.507-3.507-12.164-3.973-5.262 0.014-5.262 0.014-10.63 0.027-3.508-0.009-7.016-0.018-10.63-0.027-8.658 0.466-8.658 0.466-12.164 3.973-1.008 6.254-1.774 12.547-2.411 18.849-0.375 3.427-0.75 6.853-1.137 10.384 0.041 9.342 0.041 9.342 7.055 19.863z" />
<glyph unicode="&#xe92d;" horiz-adv-x="2970" d="M1087.123 444.493c3.205-19.943 3.205-36.166 0-56.11-13.887 0-27.774 0-42.082 0-3.507 17.534-3.507 17.534-3.507 31.562 6.944 0 13.887 0 21.041 0-10.415 1.736-10.415 1.736-21.041 3.507 1.157 5.786 2.315 11.573 3.507 17.534 5.698 0.589 11.397 1.172 17.096 1.753 3.173 0.325 6.347 0.651 9.616 0.986 8.356 0.767 8.356 0.767 15.37 0.767z" />
<glyph unicode="&#xe92e;" horiz-adv-x="2970" d="M2500.384 363.836c12.52-13.089 14.41-28.388 17.534-45.589-10.122-5.525-19.405-8.637-30.685-10.959-2.803-0.588-5.605-1.175-8.493-1.781-2.116-0.425-4.231-0.85-6.411-1.288-14.027 23.671-14.027 23.671-14.027 31.562 3.472 2.315 6.944 4.629 10.521 7.014 2.538 7.221 2.538 7.221 3.507 14.027 5.967 0.759 5.967 0.759 12.055 1.534 11.819 0.611 11.819 0.611 16 5.479z" />
<glyph unicode="&#xe92f;" horiz-adv-x="2970" d="M2202.301 886.356c6.281 0.284 12.565 0.488 18.849 0.658 5.248 0.183 5.248 0.183 10.603 0.37 3.011-0.339 6.021-0.678 9.123-1.027 7.014-10.521 7.014-10.521 5.699-21.699-0.723-3.255-1.447-6.51-2.192-9.863-3.472 1.157-6.944 2.315-10.521 3.507 0-5.786 0-11.573 0-17.534 2.315 0 4.629 0 7.014 0 0-2.315 0-4.629 0-7.014-6.356-0.094-12.712-0.162-19.068-0.219-3.54-0.041-7.079-0.081-10.726-0.123-8.781 0.342-8.781 0.342-12.288 3.849-0.347 6.933-0.455 13.88-0.438 20.822-0.009 3.793-0.018 7.585-0.027 11.493 0.466 9.767 0.466 9.767 3.973 16.781z" />
<glyph unicode="&#xe930;" horiz-adv-x="2970" d="M757.479 661.918c12.73 0 25.46 0 38.575 0 1.157-4.629 2.315-9.258 3.507-14.027-1.157-1.157-2.315-2.315-3.507-3.507 2.315-1.157 4.629-2.315 7.014-3.507-1.157-9.258-2.315-18.516-3.507-28.055-15.044 0-30.089 0-45.589 0-1.157 11.573-2.315 23.145-3.507 35.068 2.315 0 4.629 0 7.014 0 0 4.629 0 9.258 0 14.027z" />
<glyph unicode="&#xe931;" horiz-adv-x="2970" d="M1893.699 356.822c14.418 0.848 25.719-0.157 38.575-7.014 4.062-9.432 5.357-17.785 7.014-28.055-13.089-12.52-28.388-14.41-45.589-17.534-14.027 23.671-14.027 23.671-14.027 31.562 2.315 1.157 4.629 2.315 7.014 3.507 2.531 5.764 4.887 11.609 7.014 17.534z" />
<glyph unicode="&#xe932;" horiz-adv-x="2970" d="M1707.836 437.479c4.629-2.315 9.258-4.629 14.027-7.014 0-3.472 0-6.944 0-10.521 3.472-1.157 6.944-2.315 10.521-3.507 0-3.472 0-6.944 0-10.521 2.315-1.157 4.629-2.315 7.014-3.507 0.19-7.889 0.326-15.78 0.438-23.671 0.081-4.394 0.163-8.788 0.247-13.315-0.631-11.156-1.772-16.897-7.699-26.137-2.315 0-4.629 0-7.014 0-0.972 4.182-1.944 8.363-2.945 12.671-1.283 5.493-2.566 10.986-3.849 16.479-0.959 4.133-0.959 4.133-1.938 8.349-0.622 2.656-1.243 5.312-1.884 8.048-0.569 2.443-1.139 4.885-1.725 7.402-1.467 5.802-3.3 11.51-5.193 17.188-2.315 0-4.629 0-7.014 0 3.068 24.11 3.068 24.11 7.014 28.055zM1742.904 430.466c1.157 0 2.315 0 3.507 0 0.362-3.255 0.723-6.51 1.096-9.863 2.436-11.292 4.085-14.775 12.932-21.699-2.315-2.315-4.629-4.629-7.014-7.014 0 2.315 0 4.629 0 7.014-3.472-1.157-6.944-2.315-10.521-3.507-3.945 23.233-3.945 23.233 0 35.068z" />
<glyph unicode="&#xe933;" horiz-adv-x="2970" d="M1897.205 581.26c7.233-1.534 7.233-1.534 14.027-3.507 0-2.315 0-4.629 0-7.014 3.146 1.193 3.146 1.193 6.356 2.411 7.671 1.096 7.671 1.096 13.589-2.63 6.098-9.002 6.922-17.146 8.11-27.836-28.973-15.457-28.973-15.457-45.589-17.534-2.445 4.512-4.848 9.046-7.233 13.589-1.343 2.522-2.685 5.045-4.068 7.644-1.349 3.377-1.349 3.377-2.726 6.822 1.157 2.315 2.315 4.629 3.507 7.014 2.315 0 4.629 0 7.014 0 0.506 2.821 1.013 5.642 1.534 8.548 1.973 8.986 1.973 8.986 5.479 12.493z" />
<glyph unicode="&#xe934;" horiz-adv-x="2970" d="M1027.507 581.26c4.629 0 9.258 0 14.027 0 1.157-2.315 2.315-4.629 3.507-7.014 5.786 0 11.573 0 17.534 0 7.452-23.233 7.452-23.233 3.507-35.068-7.767-4.096-7.767-4.096-17.315-7.671-3.142-1.207-6.284-2.414-9.521-3.658-8.233-2.699-8.233-2.699-15.247-2.699-10.521 23.233-10.521 23.233-10.521 35.068 3.472 0 6.944 0 10.521 0-0.072 2.821-0.145 5.642-0.219 8.548 0.219 8.986 0.219 8.986 3.726 12.493z" />
<glyph unicode="&#xe935;" horiz-adv-x="2970" d="M1603.507 788.384c6.51-0.108 6.51-0.108 13.151-0.219 1.157-4.629 2.315-9.258 3.507-14.027 4.629-1.157 9.258-2.315 14.027-3.507 0-3.472 0-6.944 0-10.521 2.315 0 4.629 0 7.014 0 4.754-9.507 4.1-17.231 4.164-27.836 0.050-3.72 0.099-7.441 0.151-11.274-0.808-9.986-0.808-9.986-7.822-20.507-2.315 0-4.629 0-7.014 0 0-2.315 0-4.629 0-7.014-17.792-10.949-32.274-12.8-52.603-10.521-10.74 3.507-10.74 3.507-17.534 7.014 0 2.315 0 4.629 0 7.014-2.315 1.157-4.629 2.315-7.014 3.507 5.786 0 11.573 0 17.534 0 0-2.315 0-4.629 0-7.014 14.426-3.672 23.096-5.816 36.822 0.575 17.058 10.508 17.058 10.508 26.301 27.479 0.236 5.475 0.299 10.959 0.219 16.438-0.032 2.834-0.063 5.669-0.096 8.589-0.041 2.156-0.081 4.313-0.123 6.534-4.629 2.315-9.258 4.629-14.027 7.014 2.315 0 4.629 0 7.014 0 0 2.315 0 4.629 0 7.014-16.669 9.766-33.786 9.866-52.603 7.014-10.605-7.965-10.605-7.965-17.534-17.534-3.472-1.157-6.944-2.315-10.521-3.507-1.157-3.472-2.315-6.944-3.507-10.521-1.973 9.205-1.973 9.205 0 21.041 17.938 16.358 36.257 25.171 60.493 24.767z" />
<glyph unicode="&#xe936;" horiz-adv-x="2970" d="M1045.041 886.356c6.281 0.284 12.565 0.488 18.849 0.658 5.248 0.183 5.248 0.183 10.603 0.37 3.011-0.339 6.021-0.678 9.123-1.027 7.014-10.521 7.014-10.521 5.699-18.192-0.723-2.098-1.447-4.195-2.192-6.356 0 2.315 0 4.629 0 7.014-2.315 0-4.629 0-7.014 0-1.157-10.415-2.315-20.831-3.507-31.562 2.315 0 4.629 0 7.014 0 0 5.786 0 11.573 0 17.534 1.157 0 2.315 0 3.507 0 0-6.944 0-13.887 0-21.041-12.73 0-25.46 0-38.575 0-7.014 14.027-7.014 14.027-5.699 21.918 0.723 2.025 1.447 4.050 2.192 6.137 2.315 0 4.629 0 7.014 0 0 2.315 0 4.629 0 7.014-3.472-1.157-6.944-2.315-10.521-3.507 1.157 6.944 2.315 13.887 3.507 21.041z" />
<glyph unicode="&#xe937;" horiz-adv-x="2970" d="M624.219 69.26c8.329-5.699 8.329-5.699 14.027-14.027 2.146-12.876 1.708-18.545-5.699-29.37-10.825-7.407-16.494-7.845-29.37-5.699-8.329 5.699-8.329 5.699-14.027 14.027-2.146 12.876-1.708 18.545 5.699 29.37 10.825 7.407 16.494 7.845 29.37 5.699z" />
<glyph unicode="&#xe938;" horiz-adv-x="2970" d="M1108.164 146.411c8.548-5.479 8.548-5.479 14.027-14.027-0.215-12.26-1.218-20.814-7.671-31.342-9.708-5.691-16.37-5.301-27.397-3.726-8.329 5.699-8.329 5.699-14.027 14.027-2.146 12.876-1.708 18.545 5.699 29.37 10.825 7.407 16.494 7.845 29.37 5.699z" />
<glyph unicode="&#xe939;" horiz-adv-x="2970" d="M615.671 146.192c17.237-4.701 17.237-4.701 22.575-13.808 1.896-12.731 1.626-18.664-5.699-29.37-8.329-5.699-8.329-5.699-18.849-7.671-10.521 1.973-10.521 1.973-18.849 9.644-6.198 10.727-8.178 15.311-5.699 27.397 8.14 12.372 11.541 14.071 26.521 13.808z" />
<glyph unicode="&#xe93a;" horiz-adv-x="2970" d="M2900.164 661.918c15.044 0 30.089 0 45.589 0 2.904-11.616 3.832-19.848 3.507-31.562-2.025-0.94-4.050-1.881-6.137-2.849-8.117-3.95-8.117-3.95-15.123-10.082-2.242-1.519-4.484-3.038-6.795-4.603-3.472 1.157-6.944 2.315-10.521 3.507 0 3.472 0 6.944 0 10.521-3.472 1.157-6.944 2.315-10.521 3.507 0 10.415 0 20.831 0 31.562z" />
<glyph unicode="&#xe93b;" horiz-adv-x="2970" d="M2619.616 433.973c7.014-10.521 7.014-10.521 6.356-22.795-2.858-12.31-3.634-15.569-13.37-22.795-7.932-1.027-7.932-1.027-16.438-0.658-4.252 0.142-4.252 0.142-8.589 0.288-2.156 0.122-4.313 0.244-6.534 0.37-2.155 31.362-2.155 31.362 5.479 44.493 12.292 6.619 19.888 4.765 33.096 1.096z" />
<glyph unicode="&#xe93c;" horiz-adv-x="2970" d="M1914.74 661.918c6.281 0.284 12.565 0.488 18.849 0.658 5.248 0.183 5.248 0.183 10.603 0.37 3.011-0.339 6.021-0.678 9.123-1.027 8.005-12.007 7.582-14.736 5.918-28.493-0.348-3.119-0.696-6.238-1.055-9.452-1.356-7.644-1.356-7.644-4.863-11.151-7.083-0.254-14.174-0.294-21.26-0.219-3.874 0.032-7.748 0.063-11.74 0.096-4.496 0.061-4.496 0.061-9.082 0.123 0 9.258 0 18.516 0 28.055 23.671 3.945 23.671 3.945 31.562 0 0 3.472 0 6.944 0 10.521 2.315 1.157 4.629 2.315 7.014 3.507-8.366-2.019-16.366-4.286-24.548-7.014-7.671 1.534-7.671 1.534-14.027 3.507 1.157 3.472 2.315 6.944 3.507 10.521z" />
<glyph unicode="&#xe93d;" horiz-adv-x="2970" d="M2790.397 887.726c5.187-0.244 5.187-0.244 10.479-0.493 3.485-0.127 6.971-0.253 10.562-0.384 3.994-0.244 3.994-0.244 8.068-0.493 0-1.157 0-2.315 0-3.507-11.573 0-23.145 0-35.068 0 0-2.315 0-4.629 0-7.014 13.887 0 27.774 0 42.082 0-1.157-13.887-2.315-27.774-3.507-42.082-26.051-4.509-26.051-4.509-38.575 0 0.289 3.11 0.579 6.22 0.877 9.425-1.059 14.036-5.426 19.080-14.904 29.151 5.847 10.138 8.109 13.678 19.986 15.397z" />
<glyph unicode="&#xe93e;" horiz-adv-x="2970" d="M2915.288 441.918c4.665-0.027 4.665-0.027 9.425-0.055 3.11 0.018 6.22 0.036 9.425 0.055 8.11-0.932 8.11-0.932 15.123-7.945 1.188-22.172 1.188-22.172-3.507-31.562-10.293-4.134-20.495-6.337-31.562-7.014-8.986 5.041-8.986 5.041-14.027 14.027-1.315 12.712-1.315 12.712 0 24.548 7.014 7.014 7.014 7.014 15.123 7.945z" />
<glyph unicode="&#xe93f;" horiz-adv-x="2970" d="M2346.082 887.452c3.11 0.059 6.22 0.118 9.425 0.178 4.014-0.631 4.014-0.631 8.11-1.274 8.081-12.122 7.921-17.354 7.014-31.562-1.157-2.315-2.315-4.629-3.507-7.014-8.117-2.555-16.309-4.883-24.548-7.014-3.472-1.157-6.944-2.315-10.521-3.507-10.418 14.325-12.18 24.49-10.521 42.082 8.838 8.838 12.327 8.056 24.548 8.11z" />
<glyph unicode="&#xe940;" horiz-adv-x="2970" d="M2325.041 661.918c13.887 0 27.774 0 42.082 0 2.904-11.616 3.832-19.848 3.507-31.562-9.291-4.977-17.791-8.203-28.055-10.521-3.472-1.157-6.944-2.315-10.521-3.507 0 3.472 0 6.944 0 10.521-3.472 1.157-6.944 2.315-10.521 3.507-0.438 23.671-0.438 23.671 3.507 31.562z" />
<glyph unicode="&#xe941;" horiz-adv-x="2970" d="M2489.863 661.918c13.887 0 27.774 0 42.082 0 2.315-5.786 4.629-11.573 7.014-17.534-1.157-2.315-2.315-4.629-3.507-7.014-13.887 0-27.774 0-42.082 0 0-6.944 0-13.887 0-21.041 2.315 0 4.629 0 7.014 0 1.157 5.786 2.315 11.573 3.507 17.534 5.786 0 11.573 0 17.534 0 0-5.786 0-11.573 0-17.534 3.472 0 6.944 0 10.521 0 1.157 2.315 2.315 4.629 3.507 7.014 0-3.472 0-6.944 0-10.521-15.044 0-30.089 0-45.589 0-3.945 37.26-3.945 37.26 0 49.096z" />
<glyph unicode="&#xe942;" horiz-adv-x="2970" d="M2058.959 441.205c3.192-0.032 6.383-0.063 9.671-0.096 2.45-0.041 4.9-0.081 7.425-0.123 2.949-14.091 3.696-24.611 0-38.575-5.859-1.627-5.859-1.627-11.836-3.288-11.992-3.106-11.992-3.106-19.726-7.233 0 3.472 0 6.944 0 10.521-3.472 1.157-6.944 2.315-10.521 3.507 0 10.415 0 20.831 0 31.562 8.854 4.427 15.122 3.852 24.986 3.726z" />
<glyph unicode="&#xe943;" horiz-adv-x="2970" d="M957.37 714.521c18.516-1.157 37.032-2.315 56.11-3.507-7.192-32.534-7.192-32.534-10.521-42.082-3.472-1.157-6.944-2.315-10.521-3.507 0 4.629 0 9.258 0 14.027-6.961-0.935-6.961-0.935-14.027-3.507-1.157-3.472-2.315-6.944-3.507-10.521-3.472 1.157-6.944 2.315-10.521 3.507 0.145 3.182 0.289 6.365 0.438 9.644-0.432 11.226-2.189 15.886-7.452 25.425 0 3.472 0 6.944 0 10.521z" />
<glyph unicode="&#xe944;" horiz-adv-x="2970" d="M1343.123 511.123c2.315 0 4.629 0 7.014 0 0-3.472 0-6.944 0-10.521 8.679-1.736 8.679-1.736 17.534-3.507-10.521-3.507-10.521-3.507-21.041 0 4.403-8.805 8.769-10.069 17.534-14.027-1.157-4.629-2.315-9.258-3.507-14.027-2.242-0.434-4.484-0.868-6.795-1.315-2.387-0.723-4.774-1.447-7.233-2.192-1.157-2.315-2.315-4.629-3.507-7.014-8.101 0-16.202 0-24.548 0 0 2.315 0 4.629 0 7.014-20.831 1.157-41.661 2.315-63.123 3.507 1.157 2.315 2.315 4.629 3.507 7.014 2.703-0.122 5.407-0.244 8.192-0.37 5.275-0.142 5.275-0.142 10.658-0.288 3.499-0.122 6.998-0.244 10.603-0.37 4.516 0.509 4.516 0.509 9.123 1.027 2.315 3.472 4.629 6.944 7.014 10.521 8.356 1.795 8.356 1.795 17.973 2.411 4.787 0.346 4.787 0.346 9.671 0.699 3.675 0.197 3.675 0.197 7.425 0.397 0-3.472 0-6.944 0-10.521 6.824-2.071 6.824-2.071 14.027-3.507 1.157 1.157 2.315 2.315 3.507 3.507-4.629 1.157-9.258 2.315-14.027 3.507 0 9.258 0 18.516 0 28.055z" />
<glyph unicode="&#xe945;" horiz-adv-x="2970" d="M2046.26 662.26c5.309-0.061 5.309-0.061 10.726-0.123 3.549-0.032 7.097-0.063 10.753-0.096 4.116-0.061 4.116-0.061 8.315-0.123 3.307-11.98 3.79-22.624 3.507-35.068-3.761-0.434-7.522-0.868-11.397-1.315-10.972-1.829-17.832-3.598-27.178-9.205-9.138 13.708-7.796 26.165-7.014 42.082 3.507 3.507 3.507 3.507 12.288 3.849z" />
<glyph unicode="&#xe946;" horiz-adv-x="2970" d="M2202.301 661.918c12.73 0 25.46 0 38.575 0 2.315-4.629 4.629-9.258 7.014-14.027-5.786 0-11.573 0-17.534 0-1.157-2.315-2.315-4.629-3.507-7.014 6.944 1.157 13.887 2.315 21.041 3.507 0-2.315 0-4.629 0-7.014-20.831-1.736-20.831-1.736-42.082-3.507 0-5.786 0-11.573 0-17.534 2.315 0 4.629 0 7.014 0 0 5.786 0 11.573 0 17.534 5.786 0 11.573 0 17.534 0 1.157-5.786 2.315-11.573 3.507-17.534 2.315 0 4.629 0 7.014 0 1.157 2.315 2.315 4.629 3.507 7.014 0-3.472 0-6.944 0-10.521-6.94-0.094-13.881-0.162-20.822-0.219-3.865-0.041-7.73-0.081-11.712-0.123-9.548 0.342-9.548 0.342-13.055 3.849-0.346 6.348-0.455 12.711-0.438 19.068-0.009 3.467-0.018 6.935-0.027 10.507 0.466 9 0.466 9 3.973 16.014z" />
<glyph unicode="&#xe947;" horiz-adv-x="2970" d="M1045.041 661.918c13.887 0 27.774 0 42.082 0 1.157-8.101 2.315-16.202 3.507-24.548-5.786-1.157-11.573-2.315-17.534-3.507 1.157-5.786 2.315-11.573 3.507-17.534 2.315 0 4.629 0 7.014 0 0 5.786 0 11.573 0 17.534 1.157 0 2.315 0 3.507 0 0-6.944 0-13.887 0-21.041-13.887 0-27.774 0-42.082 0-3.245 12.981-3.794 16.253 0 28.055 5.786 1.157 11.573 2.315 17.534 3.507 0 3.472 0 6.944 0 10.521-4.629 1.157-9.258 2.315-14.027 3.507 1.157-3.472 2.315-6.944 3.507-10.521-3.472 1.157-6.944 2.315-10.521 3.507 1.157 3.472 2.315 6.944 3.507 10.521z" />
<glyph unicode="&#xe948;" horiz-adv-x="2970" d="M1613.151 826.74c45.582-11.056 74.98-31.234 101.699-70.137 6.37-11.288 6.37-11.288 10.521-21.041-1.157-2.315-2.315-4.629-3.507-7.014-1.377 1.52-2.754 3.040-4.173 4.606-6.33 6.961-12.695 13.89-19.060 20.818-2.165 2.391-4.331 4.783-6.562 7.247-9.862 10.692-19.105 20.389-31.438 28.205-2.938 1.899-5.877 3.797-8.904 5.753 0 2.315 0 4.629 0 7.014-1.808 0.289-3.616 0.579-5.479 0.877-12.211 3.757-22.126 10.118-33.096 16.658 0 2.315 0 4.629 0 7.014z" />
<glyph unicode="&#xe949;" horiz-adv-x="2970" d="M1178.301 665.425c1.157-2.315 2.315-4.629 3.507-7.014 3.472 0 6.944 0 10.521 0 1.157 2.315 2.315 4.629 3.507 7.014 0-2.315 0-4.629 0-7.014 3.472 0 6.944 0 10.521 0 1.157 2.315 2.315 4.629 3.507 7.014 0.362-2.242 0.723-4.484 1.096-6.795 1.193-3.58 1.193-3.58 2.411-7.233 3.472-1.157 6.944-2.315 10.521-3.507-3.472 0-6.944 0-10.521 0 0-2.315 0-4.629 0-7.014 2.315 0 4.629 0 7.014 0 0-7.014 0-7.014-4.274-12.63-7.841-6.156-12.154-6.318-22.027-6.219-2.712-0.027-5.425-0.054-8.219-0.082-9.383 1.734-12.622 4.146-18.082 11.918 1.096 12.932 1.096 12.932 3.507 24.548 2.315 0 4.629 0 7.014 0 0 2.315 0 4.629 0 7.014z" />
<glyph unicode="&#xe94a;" horiz-adv-x="2970" d="M1857.096 413.37c4.238 0.014 4.238 0.014 8.562 0.027 7-0.466 7-0.466 10.507-3.973 2.315 0 4.629 0 7.014 0-1.157-11.573-2.315-23.145-3.507-35.068-13.086-3.079-25.133-4.118-38.575-3.507-1.157 1.157-2.315 2.315-3.507 3.507 0 7.014 0 14.027 0 21.041-1.541 7.945-1.541 7.945-3.507 14.027 8.345 4.173 13.729 3.975 23.014 3.945z" />
<glyph unicode="&#xe94b;" horiz-adv-x="2970" d="M2693.26 711.014c3.472-1.736 3.472-1.736 7.014-3.507 0-2.315 0-4.629 0-7.014 3.472 0 6.944 0 10.521 0 0 3.472 0 6.944 0 10.521 12.73 0 25.46 0 38.575 0-3.472-13.887-6.944-27.774-10.521-42.082-3.472 0-6.944 0-10.521 0-1.157 2.315-2.315 4.629-3.507 7.014-2.098-1.808-4.195-3.616-6.356-5.479-2.532-1.664-5.063-3.327-7.671-5.041-3.472 1.157-6.944 2.315-10.521 3.507-0.506 4.34-1.013 8.679-1.534 13.151-1.225 9.872-2.687 19.358-5.479 28.932z" />
<glyph unicode="&#xe94c;" horiz-adv-x="2970" d="M2114.63 711.014c3.472-1.736 3.472-1.736 7.014-3.507 0-2.315 0-4.629 0-7.014 5.786 0 11.573 0 17.534 0 1.157-2.315 2.315-4.629 3.507-7.014 0 4.629 0 9.258 0 14.027-3.472 1.157-6.944 2.315-10.521 3.507 12.73 0 25.46 0 38.575 0-3.472-15.044-6.944-30.089-10.521-45.589-3.472 0-6.944 0-10.521 0 0 4.629 0 9.258 0 14.027-2.676-2.387-5.352-4.774-8.11-7.233-3.11-2.242-6.22-4.484-9.425-6.795-3.472 1.157-6.944 2.315-10.521 3.507-0.506 4.34-1.013 8.679-1.534 13.151-1.225 9.872-2.687 19.358-5.479 28.932z" />
<glyph unicode="&#xe94d;" horiz-adv-x="2970" d="M2405.699 711.014c3.472-3.472 6.944-6.944 10.521-10.521 1.157 3.472 2.315 6.944 3.507 10.521 13.887 0 27.774 0 42.082 0-10.082-33.753-10.082-33.753-14.027-45.589-3.472 1.157-6.944 2.315-10.521 3.507 0 2.315 0 4.629 0 7.014-4.629 1.157-9.258 2.315-14.027 3.507 0-4.629 0-9.258 0-14.027-7.014 3.507-7.014 3.507-10 10.384-0.895 2.794-1.79 5.587-2.712 8.466-0.913 2.776-1.826 5.551-2.767 8.411-2.055 7.808-2.055 7.808-2.055 18.329z" />
<glyph unicode="&#xe94e;" horiz-adv-x="2970" d="M929.315 135.89c6.944 0 13.887 0 21.041 0 1.157-2.315 2.315-4.629 3.507-7.014 2.315 2.315 4.629 4.629 7.014 7.014 7.014-1.315 7.014-1.315 14.027-3.507 7.753-0.37 7.753-0.37 17.534 3.507 2.315-1.157 4.629-2.315 7.014-3.507 0-8.101 0-16.202 0-24.548-5.786-1.157-11.573-2.315-17.534-3.507 3.472 3.472 6.944 6.944 10.521 10.521-4.629 1.157-9.258 2.315-14.027 3.507-2.315-4.629-4.629-9.258-7.014-14.027-10.415 1.736-10.415 1.736-21.041 3.507 0 3.472 0 6.944 0 10.521-2.315 0-4.629 0-7.014 0-1.157-4.629-2.315-9.258-3.507-14.027-2.315 1.157-4.629 2.315-7.014 3.507 3.472 6.944 6.944 13.887 10.521 21.041-5.786-1.157-11.573-2.315-17.534-3.507 1.157 3.472 2.315 6.944 3.507 10.521z" />
<glyph unicode="&#xe94f;" horiz-adv-x="2970" d="M1343.123 802.192c5.786-3.472 11.573-6.944 17.534-10.521-6.723-27.411-6.723-27.411-17.534-35.068-2.315 0-4.629 0-7.014 0 0-2.315 0-4.629 0-7.014-2.315 0-4.629 0-7.014 0 0 2.315 0 4.629 0 7.014-2.315 0-4.629 0-7.014 0-1.157-3.472-2.315-6.944-3.507-10.521-0.362 2.242-0.723 4.484-1.096 6.795-0.796 2.387-1.591 4.774-2.411 7.233-3.472 1.157-6.944 2.315-10.521 3.507 1.157 5.786 2.315 11.573 3.507 17.534 6.944-1.736 6.944-1.736 14.027-3.507 0 2.315 0 4.629 0 7.014 2.821 0.94 5.642 1.881 8.548 2.849 2.965 1.374 5.931 2.748 8.986 4.164 1.157 3.472 2.315 6.944 3.507 10.521z" />
<glyph unicode="&#xe950;" horiz-adv-x="2970" d="M378.74 938.959c2.315-4.629 4.629-9.258 7.014-14.027 3.472 1.157 6.944 2.315 10.521 3.507 0 2.315 0 4.629 0 7.014 12.73 0 25.46 0 38.575 0-3.507-17.534-3.507-17.534-7.233-26.74-3.931-8.467-3.931-8.467-3.288-18.849-3.472 0-6.944 0-10.521 0 0 3.472 0 6.944 0 10.521-3.833 0.072-7.667 0.145-11.616 0.219-4.267 1.085-8.535 2.17-12.932 3.288-7.087 12.345-10.521 20.815-10.521 35.068z" />
<glyph unicode="&#xe951;" horiz-adv-x="2970" d="M2273.973 431.123c4.224 0.075 4.224 0.075 8.534 0.151 7.466-0.808 7.466-0.808 14.479-7.822-0.219-10.082-0.219-10.082-3.507-21.041-8.986-8.329-8.986-8.329-17.534-14.027-11.448 6.327-17.146 9.938-24.548 21.041 2.206 18.527 4.258 21.552 22.575 21.699z" />
</font>
</defs>
</svg>
